<svg xmlns="http://www.w3.org/2000/svg" xmlns:xlink="http://www.w3.org/1999/xlink" width="1280" zoomAndPan="magnify" viewBox="0 0 960 540.000001" height="720" preserveAspectRatio="xMidYMid meet" version="1.0"><defs><g/><clipPath id="5ef282567e"><path d="M 0.886719 0 L 959.113281 0 L 959.113281 539 L 0.886719 539 Z M 0.886719 0 " clip-rule="nonzero"/></clipPath><radialGradient gradientTransform="matrix(1, 0, 0, 1, 0.887245, 0.000019963)" gradientUnits="userSpaceOnUse" r="1099.417599" cx="0" id="2a06cb5522" cy="0" fx="0" fy="0"><stop stop-opacity="1" stop-color="rgb(24.092102%, 55.445862%, 26.020813%)" offset="0"/><stop stop-opacity="1" stop-color="rgb(24.429321%, 55.702209%, 26.235962%)" offset="0.015625"/><stop stop-opacity="1" stop-color="rgb(24.719238%, 55.923462%, 26.420593%)" offset="0.0273438"/><stop stop-opacity="1" stop-color="rgb(25.009155%, 56.143188%, 26.603699%)" offset="0.0390625"/><stop stop-opacity="1" stop-color="rgb(25.297546%, 56.364441%, 26.78833%)" offset="0.0507812"/><stop stop-opacity="1" stop-color="rgb(25.587463%, 56.584167%, 26.971436%)" offset="0.0625"/><stop stop-opacity="1" stop-color="rgb(25.87738%, 56.803894%, 27.156067%)" offset="0.0742188"/><stop stop-opacity="1" stop-color="rgb(26.165771%, 57.025146%, 27.340698%)" offset="0.0859375"/><stop stop-opacity="1" stop-color="rgb(26.455688%, 57.244873%, 27.523804%)" offset="0.0976562"/><stop stop-opacity="1" stop-color="rgb(26.745605%, 57.4646%, 27.708435%)" offset="0.109375"/><stop stop-opacity="1" stop-color="rgb(27.033997%, 57.685852%, 27.891541%)" offset="0.121094"/><stop stop-opacity="1" stop-color="rgb(27.323914%, 57.905579%, 28.076172%)" offset="0.132812"/><stop stop-opacity="1" stop-color="rgb(27.613831%, 58.126831%, 28.259277%)" offset="0.144531"/><stop stop-opacity="1" stop-color="rgb(27.903748%, 58.346558%, 28.443909%)" offset="0.15625"/><stop stop-opacity="1" stop-color="rgb(28.192139%, 58.566284%, 28.62854%)" offset="0.167969"/><stop stop-opacity="1" stop-color="rgb(28.482056%, 58.787537%, 28.811646%)" offset="0.179688"/><stop stop-opacity="1" stop-color="rgb(28.771973%, 59.007263%, 28.996277%)" offset="0.191406"/><stop stop-opacity="1" stop-color="rgb(29.060364%, 59.228516%, 29.179382%)" offset="0.203125"/><stop stop-opacity="1" stop-color="rgb(29.350281%, 59.448242%, 29.364014%)" offset="0.214844"/><stop stop-opacity="1" stop-color="rgb(29.640198%, 59.667969%, 29.547119%)" offset="0.226562"/><stop stop-opacity="1" stop-color="rgb(29.928589%, 59.889221%, 29.73175%)" offset="0.238281"/><stop stop-opacity="1" stop-color="rgb(30.218506%, 60.108948%, 29.916382%)" offset="0.25"/><stop stop-opacity="1" stop-color="rgb(30.459595%, 60.292053%, 30.06897%)" offset="0.261719"/><stop stop-opacity="1" stop-color="rgb(30.653381%, 60.440063%, 30.192566%)" offset="0.269531"/><stop stop-opacity="1" stop-color="rgb(30.845642%, 60.586548%, 30.314636%)" offset="0.277344"/><stop stop-opacity="1" stop-color="rgb(31.039429%, 60.733032%, 30.436707%)" offset="0.285156"/><stop stop-opacity="1" stop-color="rgb(31.231689%, 60.881042%, 30.560303%)" offset="0.292969"/><stop stop-opacity="1" stop-color="rgb(31.42395%, 61.027527%, 30.682373%)" offset="0.300781"/><stop stop-opacity="1" stop-color="rgb(31.617737%, 61.174011%, 30.804443%)" offset="0.308594"/><stop stop-opacity="1" stop-color="rgb(31.809998%, 61.320496%, 30.92804%)" offset="0.316406"/><stop stop-opacity="1" stop-color="rgb(32.003784%, 61.468506%, 31.05011%)" offset="0.324219"/><stop stop-opacity="1" stop-color="rgb(32.196045%, 61.61499%, 31.173706%)" offset="0.332031"/><stop stop-opacity="1" stop-color="rgb(32.389832%, 61.761475%, 31.295776%)" offset="0.339844"/><stop stop-opacity="1" stop-color="rgb(32.582092%, 61.907959%, 31.417847%)" offset="0.347656"/><stop stop-opacity="1" stop-color="rgb(32.775879%, 62.055969%, 31.541443%)" offset="0.355469"/><stop stop-opacity="1" stop-color="rgb(32.96814%, 62.202454%, 31.663513%)" offset="0.363281"/><stop stop-opacity="1" stop-color="rgb(33.161926%, 62.348938%, 31.787109%)" offset="0.371094"/><stop stop-opacity="1" stop-color="rgb(33.450317%, 62.568665%, 31.970215%)" offset="0.378906"/><stop stop-opacity="1" stop-color="rgb(33.836365%, 62.863159%, 32.215881%)" offset="0.394531"/><stop stop-opacity="1" stop-color="rgb(34.222412%, 63.156128%, 32.460022%)" offset="0.410156"/><stop stop-opacity="1" stop-color="rgb(34.608459%, 63.450623%, 32.705688%)" offset="0.425781"/><stop stop-opacity="1" stop-color="rgb(34.994507%, 63.743591%, 32.951355%)" offset="0.441406"/><stop stop-opacity="1" stop-color="rgb(35.380554%, 64.038086%, 33.197021%)" offset="0.457031"/><stop stop-opacity="1" stop-color="rgb(35.766602%, 64.331055%, 33.442688%)" offset="0.472656"/><stop stop-opacity="1" stop-color="rgb(36.152649%, 64.625549%, 33.686829%)" offset="0.488281"/><stop stop-opacity="1" stop-color="rgb(36.489868%, 64.881897%, 33.901978%)" offset="0.503906"/><stop stop-opacity="1" stop-color="rgb(36.779785%, 65.103149%, 34.086609%)" offset="0.515625"/><stop stop-opacity="1" stop-color="rgb(37.069702%, 65.322876%, 34.269714%)" offset="0.527344"/><stop stop-opacity="1" stop-color="rgb(37.358093%, 65.544128%, 34.454346%)" offset="0.539062"/><stop stop-opacity="1" stop-color="rgb(37.64801%, 65.763855%, 34.637451%)" offset="0.550781"/><stop stop-opacity="1" stop-color="rgb(37.937927%, 65.983582%, 34.822083%)" offset="0.5625"/><stop stop-opacity="1" stop-color="rgb(38.226318%, 66.204834%, 35.006714%)" offset="0.574219"/><stop stop-opacity="1" stop-color="rgb(38.516235%, 66.424561%, 35.189819%)" offset="0.585938"/><stop stop-opacity="1" stop-color="rgb(38.806152%, 66.644287%, 35.374451%)" offset="0.597656"/><stop stop-opacity="1" stop-color="rgb(39.094543%, 66.86554%, 35.557556%)" offset="0.609375"/><stop stop-opacity="1" stop-color="rgb(39.38446%, 67.085266%, 35.742188%)" offset="0.621094"/><stop stop-opacity="1" stop-color="rgb(39.625549%, 67.269897%, 35.894775%)" offset="0.632812"/><stop stop-opacity="1" stop-color="rgb(39.819336%, 67.416382%, 36.018372%)" offset="0.640625"/><stop stop-opacity="1" stop-color="rgb(40.011597%, 67.562866%, 36.140442%)" offset="0.648438"/><stop stop-opacity="1" stop-color="rgb(40.205383%, 67.709351%, 36.264038%)" offset="0.65625"/><stop stop-opacity="1" stop-color="rgb(40.397644%, 67.857361%, 36.386108%)" offset="0.664062"/><stop stop-opacity="1" stop-color="rgb(40.591431%, 68.003845%, 36.508179%)" offset="0.671875"/><stop stop-opacity="1" stop-color="rgb(40.783691%, 68.15033%, 36.631775%)" offset="0.679688"/><stop stop-opacity="1" stop-color="rgb(40.975952%, 68.296814%, 36.753845%)" offset="0.6875"/><stop stop-opacity="1" stop-color="rgb(41.265869%, 68.518066%, 36.938477%)" offset="0.695312"/><stop stop-opacity="1" stop-color="rgb(41.651917%, 68.811035%, 37.182617%)" offset="0.710938"/><stop stop-opacity="1" stop-color="rgb(42.037964%, 69.10553%, 37.428284%)" offset="0.726562"/><stop stop-opacity="1" stop-color="rgb(42.424011%, 69.398499%, 37.67395%)" offset="0.742188"/><stop stop-opacity="1" stop-color="rgb(42.76123%, 69.656372%, 37.889099%)" offset="0.757812"/><stop stop-opacity="1" stop-color="rgb(43.051147%, 69.876099%, 38.072205%)" offset="0.769531"/><stop stop-opacity="1" stop-color="rgb(43.341064%, 70.097351%, 38.256836%)" offset="0.78125"/><stop stop-opacity="1" stop-color="rgb(43.629456%, 70.317078%, 38.439941%)" offset="0.792969"/><stop stop-opacity="1" stop-color="rgb(43.919373%, 70.536804%, 38.624573%)" offset="0.804688"/><stop stop-opacity="1" stop-color="rgb(44.160461%, 70.721436%, 38.777161%)" offset="0.816406"/><stop stop-opacity="1" stop-color="rgb(44.354248%, 70.86792%, 38.900757%)" offset="0.824219"/><stop stop-opacity="1" stop-color="rgb(44.546509%, 71.014404%, 39.022827%)" offset="0.832031"/><stop stop-opacity="1" stop-color="rgb(44.73877%, 71.160889%, 39.146423%)" offset="0.839844"/><stop stop-opacity="1" stop-color="rgb(45.028687%, 71.382141%, 39.329529%)" offset="0.847656"/><stop stop-opacity="1" stop-color="rgb(45.414734%, 71.67511%, 39.575195%)" offset="0.863281"/><stop stop-opacity="1" stop-color="rgb(45.753479%, 71.932983%, 39.790344%)" offset="0.878906"/><stop stop-opacity="1" stop-color="rgb(46.04187%, 72.15271%, 39.97345%)" offset="0.890625"/><stop stop-opacity="1" stop-color="rgb(46.331787%, 72.372437%, 40.158081%)" offset="0.902344"/><stop stop-opacity="1" stop-color="rgb(46.572876%, 72.557068%, 40.310669%)" offset="0.914062"/><stop stop-opacity="1" stop-color="rgb(46.765137%, 72.703552%, 40.434265%)" offset="0.921875"/><stop stop-opacity="1" stop-color="rgb(47.055054%, 72.923279%, 40.617371%)" offset="0.929688"/><stop stop-opacity="1" stop-color="rgb(47.392273%, 73.181152%, 40.83252%)" offset="0.945312"/><stop stop-opacity="1" stop-color="rgb(47.633362%, 73.364258%, 40.985107%)" offset="0.957031"/><stop stop-opacity="1" stop-color="rgb(47.923279%, 73.58551%, 41.169739%)" offset="0.964844"/><stop stop-opacity="1" stop-color="rgb(48.213196%, 73.805237%, 41.35437%)" offset="0.980469"/><stop stop-opacity="1" stop-color="rgb(48.454285%, 73.988342%, 41.506958%)" offset="0.988281"/><stop stop-opacity="1" stop-color="rgb(48.599243%, 74.099731%, 41.598511%)" offset="1"/></radialGradient><clipPath id="d88ff63f83"><path d="M 110 165 L 432.925781 165 L 432.925781 375 L 110 375 Z M 110 165 " clip-rule="nonzero"/></clipPath><clipPath id="ff939c3901"><path d="M 538.5625 161.699219 L 763.894531 161.699219 L 763.894531 400.507812 L 538.5625 400.507812 Z M 538.5625 161.699219 " clip-rule="nonzero"/></clipPath><clipPath id="eb265ba57e"><path d="M 649 161.699219 L 763.894531 161.699219 L 763.894531 400.507812 L 649 400.507812 Z M 649 161.699219 " clip-rule="nonzero"/></clipPath></defs><g clip-path="url(#5ef282567e)"><path fill="#ffffff" d="M 0.886719 0 L 959.113281 0 L 959.113281 539 L 0.886719 539 Z M 0.886719 0 " fill-opacity="1" fill-rule="nonzero"/><path fill="url(#2a06cb5522)" d="M 0.886719 0 L 0.886719 539 L 959.113281 539 L 959.113281 0 Z M 0.886719 0 " fill-rule="nonzero"/></g><g clip-path="url(#d88ff63f83)"><path fill="#364548" d="M 278.136719 231.757812 L 311.039062 231.757812 L 311.039062 265.417969 L 327.679688 265.417969 C 335.367188 265.417969 343.257812 264.050781 350.546875 261.578125 C 354.117188 260.371094 358.128906 258.679688 361.65625 256.558594 C 357.015625 250.488281 354.636719 242.835938 353.941406 235.273438 C 352.988281 225.003906 355.066406 211.628906 362.003906 203.585938 L 365.46875 199.585938 L 369.585938 202.902344 C 379.960938 211.238281 388.695312 222.894531 390.226562 236.1875 C 402.71875 232.507812 417.386719 233.382812 428.402344 239.746094 L 432.925781 242.351562 L 430.550781 246.996094 C 421.238281 265.191406 401.765625 270.816406 382.726562 269.824219 C 354.234375 340.828125 292.210938 374.4375 217.011719 374.4375 C 178.164062 374.4375 142.507812 359.90625 122.21875 325.414062 L 121.882812 324.847656 L 118.917969 318.832031 C 112.0625 303.648438 109.78125 287.023438 111.324219 270.402344 L 111.792969 265.417969 L 139.933594 265.417969 L 139.933594 231.757812 L 172.835938 231.757812 L 172.835938 198.832031 L 238.644531 198.832031 L 238.644531 165.910156 L 278.136719 165.910156 Z M 278.136719 231.757812 " fill-opacity="1" fill-rule="nonzero"/></g><path fill="#22a0c8" d="M 384.738281 244.21875 C 386.9375 227.058594 374.109375 213.589844 366.152344 207.183594 C 356.988281 217.792969 355.550781 245.601562 369.949219 257.308594 C 361.925781 264.4375 345.003906 270.910156 327.679688 270.910156 L 116.796875 270.910156 C 115.121094 289.011719 118.289062 305.675781 125.535156 319.933594 L 127.9375 324.324219 C 129.453125 326.902344 131.117188 329.402344 132.902344 331.789062 C 141.570312 332.355469 149.566406 332.542969 156.882812 332.382812 C 171.253906 332.058594 182.980469 330.367188 191.863281 327.277344 C 193.207031 326.863281 194.617188 327.613281 195.03125 328.945312 C 195.433594 330.21875 194.761719 331.589844 193.515625 332.058594 C 192.335938 332.476562 191.101562 332.851562 189.824219 333.214844 C 182.832031 335.214844 175.320312 336.558594 165.644531 337.160156 C 166.21875 337.175781 165.039062 337.242188 165.039062 337.242188 C 164.703125 337.269531 164.300781 337.308594 163.964844 337.324219 C 160.15625 337.539062 156.050781 337.578125 151.835938 337.578125 C 147.234375 337.578125 142.710938 337.496094 137.636719 337.230469 L 137.503906 337.308594 C 155.070312 357.074219 182.550781 368.917969 216.984375 368.917969 C 289.863281 368.917969 351.6875 336.585938 379.0625 264.007812 C 398.480469 266.011719 417.144531 261.042969 425.640625 244.457031 C 412.140625 236.683594 394.75 239.167969 384.738281 244.21875 Z M 384.738281 244.21875 " fill-opacity="1" fill-rule="nonzero"/><path fill="#37b1d9" d="M 384.738281 244.21875 C 386.9375 227.058594 374.109375 213.589844 366.152344 207.183594 C 356.988281 217.792969 355.550781 245.601562 369.949219 257.308594 C 361.925781 264.4375 345.003906 270.910156 327.679688 270.910156 L 129.277344 270.910156 C 128.417969 298.625 138.699219 319.652344 156.882812 332.382812 C 171.253906 332.058594 182.980469 330.367188 191.863281 327.277344 C 193.207031 326.863281 194.617188 327.613281 195.03125 328.945312 C 195.433594 330.21875 194.761719 331.589844 193.515625 332.058594 C 192.335938 332.476562 191.101562 332.851562 189.824219 333.214844 C 182.832031 335.214844 174.675781 336.730469 165 337.324219 C 165 337.324219 164.769531 337.09375 164.757812 337.09375 C 189.554688 349.824219 225.53125 349.785156 266.757812 333.925781 C 312.984375 316.148438 356.019531 282.296875 386.039062 243.558594 C 385.609375 243.789062 385.167969 244.003906 384.738281 244.21875 Z M 384.738281 244.21875 " fill-opacity="1" fill-rule="nonzero"/><path fill="#1b81a5" d="M 117.1875 292.890625 C 118.503906 302.585938 121.332031 311.664062 125.535156 319.921875 L 127.9375 324.3125 C 129.453125 326.890625 131.117188 329.386719 132.902344 331.777344 C 141.570312 332.339844 149.566406 332.527344 156.882812 332.367188 C 171.253906 332.046875 182.980469 330.355469 191.863281 327.265625 C 193.207031 326.847656 194.617188 327.601562 195.03125 328.929688 C 195.433594 330.207031 194.761719 331.574219 193.515625 332.046875 C 192.335938 332.460938 191.101562 332.839844 189.824219 333.199219 C 182.832031 335.199219 174.714844 336.636719 165.039062 337.230469 C 164.703125 337.253906 164.128906 337.253906 163.792969 337.269531 C 159.980469 337.484375 155.914062 337.617188 151.699219 337.617188 C 147.097656 337.617188 142.402344 337.523438 137.34375 337.269531 C 154.910156 357.035156 182.550781 368.929688 217 368.929688 C 279.398438 368.929688 333.679688 345.230469 365.1875 292.878906 L 117.1875 292.878906 Z M 117.1875 292.890625 " fill-opacity="1" fill-rule="nonzero"/><path fill="#1d91b4" d="M 131.183594 292.890625 C 134.914062 309.917969 143.878906 323.277344 156.894531 332.367188 C 171.265625 332.046875 182.996094 330.355469 191.878906 327.265625 C 193.21875 326.847656 194.628906 327.601562 195.046875 328.929688 C 195.449219 330.207031 194.777344 331.574219 193.527344 332.046875 C 192.347656 332.460938 191.113281 332.839844 189.839844 333.199219 C 182.847656 335.199219 174.566406 336.636719 164.878906 337.230469 C 189.675781 349.957031 225.546875 349.769531 266.769531 333.925781 C 291.714844 324.339844 315.722656 310.066406 337.261719 292.863281 L 131.183594 292.863281 Z M 131.183594 292.890625 " fill-opacity="1" fill-rule="nonzero"/><path fill="#23a3c2" d="M 145.421875 237.25 L 173.9375 237.25 L 173.9375 265.78125 L 145.421875 265.78125 Z M 147.796875 239.625 L 150.050781 239.625 L 150.050781 263.40625 L 147.796875 263.40625 Z M 152.023438 239.625 L 154.359375 239.625 L 154.359375 263.40625 L 152.023438 263.40625 Z M 156.34375 239.625 L 158.679688 239.625 L 158.679688 263.40625 L 156.34375 263.40625 Z M 160.664062 239.625 L 163 239.625 L 163 263.40625 L 160.664062 263.40625 Z M 164.984375 239.625 L 167.320312 239.625 L 167.320312 263.40625 L 164.984375 263.40625 Z M 169.308594 239.625 L 171.5625 239.625 L 171.5625 263.40625 L 169.308594 263.40625 Z M 178.324219 204.324219 L 206.839844 204.324219 L 206.839844 232.859375 L 178.3125 232.859375 Z M 180.699219 206.699219 L 182.953125 206.699219 L 182.953125 230.480469 L 180.699219 230.480469 Z M 184.925781 206.699219 L 187.261719 206.699219 L 187.261719 230.480469 L 184.925781 230.480469 Z M 189.246094 206.699219 L 191.582031 206.699219 L 191.582031 230.480469 L 189.246094 230.480469 Z M 193.570312 206.699219 L 195.902344 206.699219 L 195.902344 230.480469 L 193.570312 230.480469 Z M 197.890625 206.699219 L 200.226562 206.699219 L 200.226562 230.480469 L 197.890625 230.480469 Z M 202.210938 206.699219 L 204.464844 206.699219 L 204.464844 230.480469 L 202.210938 230.480469 Z M 202.210938 206.699219 " fill-opacity="1" fill-rule="nonzero"/><path fill="#34bbde" d="M 178.324219 237.25 L 206.839844 237.25 L 206.839844 265.78125 L 178.3125 265.78125 Z M 180.699219 239.625 L 182.953125 239.625 L 182.953125 263.40625 L 180.699219 263.40625 Z M 184.925781 239.625 L 187.261719 239.625 L 187.261719 263.40625 L 184.925781 263.40625 Z M 189.246094 239.625 L 191.582031 239.625 L 191.582031 263.40625 L 189.246094 263.40625 Z M 193.570312 239.625 L 195.902344 239.625 L 195.902344 263.40625 L 193.570312 263.40625 Z M 197.890625 239.625 L 200.226562 239.625 L 200.226562 263.40625 L 197.890625 263.40625 Z M 202.210938 239.625 L 204.464844 239.625 L 204.464844 263.40625 L 202.210938 263.40625 Z M 202.210938 239.625 " fill-opacity="1" fill-rule="nonzero"/><path fill="#23a3c2" d="M 211.226562 237.25 L 239.742188 237.25 L 239.742188 265.78125 L 211.226562 265.78125 Z M 213.605469 239.625 L 215.859375 239.625 L 215.859375 263.40625 L 213.605469 263.40625 Z M 217.832031 239.625 L 220.164062 239.625 L 220.164062 263.40625 L 217.832031 263.40625 Z M 222.152344 239.625 L 224.488281 239.625 L 224.488281 263.40625 L 222.152344 263.40625 Z M 226.472656 239.625 L 228.808594 239.625 L 228.808594 263.40625 L 226.472656 263.40625 Z M 230.792969 239.625 L 233.140625 239.625 L 233.140625 263.40625 L 230.792969 263.40625 Z M 235.113281 239.625 L 237.367188 239.625 L 237.367188 263.40625 L 235.113281 263.40625 Z M 235.113281 239.625 " fill-opacity="1" fill-rule="nonzero"/><path fill="#34bbde" d="M 211.226562 204.324219 L 239.742188 204.324219 L 239.742188 232.859375 L 211.226562 232.859375 Z M 213.605469 206.699219 L 215.859375 206.699219 L 215.859375 230.480469 L 213.605469 230.480469 Z M 217.832031 206.699219 L 220.164062 206.699219 L 220.164062 230.480469 L 217.832031 230.480469 Z M 222.152344 206.699219 L 224.488281 206.699219 L 224.488281 230.480469 L 222.152344 230.480469 Z M 226.472656 206.699219 L 228.808594 206.699219 L 228.808594 230.480469 L 226.472656 230.480469 Z M 230.792969 206.699219 L 233.140625 206.699219 L 233.140625 230.480469 L 230.792969 230.480469 Z M 235.113281 206.699219 L 237.367188 206.699219 L 237.367188 230.480469 L 235.113281 230.480469 Z M 244.132812 237.25 L 272.648438 237.25 L 272.648438 265.78125 L 244.132812 265.78125 Z M 246.507812 239.625 L 248.761719 239.625 L 248.761719 263.40625 L 246.507812 263.40625 Z M 250.734375 239.625 L 253.070312 239.625 L 253.070312 263.40625 L 250.734375 263.40625 Z M 255.054688 239.625 L 257.390625 239.625 L 257.390625 263.40625 L 255.054688 263.40625 Z M 259.375 239.625 L 261.710938 239.625 L 261.710938 263.40625 L 259.375 263.40625 Z M 263.695312 239.625 L 266.03125 239.625 L 266.03125 263.40625 L 263.695312 263.40625 Z M 268.019531 239.625 L 270.273438 239.625 L 270.273438 263.40625 L 268.019531 263.40625 Z M 268.019531 239.625 " fill-opacity="1" fill-rule="nonzero"/><path fill="#23a3c2" d="M 244.132812 204.324219 L 272.648438 204.324219 L 272.648438 232.859375 L 244.132812 232.859375 Z M 246.507812 206.699219 L 248.761719 206.699219 L 248.761719 230.480469 L 246.507812 230.480469 Z M 250.734375 206.699219 L 253.070312 206.699219 L 253.070312 230.480469 L 250.734375 230.480469 Z M 255.054688 206.699219 L 257.390625 206.699219 L 257.390625 230.480469 L 255.054688 230.480469 Z M 259.375 206.699219 L 261.710938 206.699219 L 261.710938 230.480469 L 259.375 230.480469 Z M 263.695312 206.699219 L 266.03125 206.699219 L 266.03125 230.480469 L 263.695312 230.480469 Z M 268.019531 206.699219 L 270.273438 206.699219 L 270.273438 230.480469 L 268.019531 230.480469 Z M 268.019531 206.699219 " fill-opacity="1" fill-rule="nonzero"/><path fill="#34bbde" d="M 244.132812 171.402344 L 272.648438 171.402344 L 272.648438 199.933594 L 244.132812 199.933594 Z M 246.507812 173.777344 L 248.761719 173.777344 L 248.761719 197.558594 L 246.507812 197.558594 Z M 250.734375 173.777344 L 253.070312 173.777344 L 253.070312 197.558594 L 250.734375 197.558594 Z M 255.054688 173.777344 L 257.390625 173.777344 L 257.390625 197.558594 L 255.054688 197.558594 Z M 259.375 173.777344 L 261.710938 173.777344 L 261.710938 197.558594 L 259.375 197.558594 Z M 263.695312 173.777344 L 266.03125 173.777344 L 266.03125 197.558594 L 263.695312 197.558594 Z M 268.019531 173.777344 L 270.273438 173.777344 L 270.273438 197.558594 L 268.019531 197.558594 Z M 268.019531 173.777344 " fill-opacity="1" fill-rule="nonzero"/><path fill="#23a3c2" d="M 277.035156 237.25 L 305.550781 237.25 L 305.550781 265.78125 L 277.035156 265.78125 Z M 279.410156 239.625 L 281.664062 239.625 L 281.664062 263.40625 L 279.410156 263.40625 Z M 283.636719 239.625 L 285.972656 239.625 L 285.972656 263.40625 L 283.636719 263.40625 Z M 287.960938 239.625 L 290.292969 239.625 L 290.292969 263.40625 L 287.960938 263.40625 Z M 292.28125 239.625 L 294.613281 239.625 L 294.613281 263.40625 L 292.28125 263.40625 Z M 296.601562 239.625 L 298.9375 239.625 L 298.9375 263.40625 L 296.601562 263.40625 Z M 300.921875 239.625 L 303.175781 239.625 L 303.175781 263.40625 L 300.921875 263.40625 Z M 300.921875 239.625 " fill-opacity="1" fill-rule="nonzero"/><path fill="#d3ecec" d="M 205.054688 312.050781 C 209.402344 312 212.972656 315.476562 213.027344 319.828125 C 213.082031 324.175781 209.605469 327.75 205.257812 327.800781 C 205.191406 327.800781 205.109375 327.800781 205.042969 327.800781 C 200.695312 327.75 197.21875 324.175781 197.285156 319.828125 C 197.351562 315.542969 200.789062 312.105469 205.054688 312.050781 Z M 205.054688 312.050781 " fill-opacity="1" fill-rule="nonzero"/><path fill="#364548" d="M 205.054688 314.28125 C 205.78125 314.28125 206.464844 314.414062 207.09375 314.65625 C 205.996094 315.300781 205.621094 316.699219 206.261719 317.800781 C 206.679688 318.511719 207.429688 318.941406 208.25 318.941406 C 209.121094 318.941406 209.875 318.457031 210.261719 317.746094 C 211.457031 320.617188 210.085938 323.921875 207.214844 325.117188 C 204.34375 326.3125 201.042969 324.941406 199.847656 322.070312 C 198.65625 319.195312 200.023438 315.890625 202.894531 314.699219 C 203.578125 314.429688 204.316406 314.28125 205.054688 314.28125 Z M 205.054688 314.28125 " fill-opacity="1" fill-rule="nonzero"/><path fill="#bdd9d7" d="M 225.960938 368.769531 C 206.476562 359.519531 195.78125 346.9375 189.839844 333.214844 C 182.605469 335.28125 173.894531 336.597656 163.792969 337.175781 C 159.980469 337.390625 155.980469 337.496094 151.78125 337.496094 C 146.9375 337.496094 141.824219 337.347656 136.46875 337.066406 C 154.34375 354.9375 176.324219 368.6875 217.027344 368.945312 C 220.019531 368.945312 222.996094 368.890625 225.960938 368.769531 Z M 225.960938 368.769531 " fill-opacity="1" fill-rule="nonzero"/><path fill="#d3ecec" d="M 197.070312 345.890625 C 194.375 342.222656 191.757812 337.632812 189.839844 333.214844 C 182.605469 335.28125 173.894531 336.609375 163.792969 337.175781 C 170.742188 340.949219 180.671875 344.4375 197.070312 345.890625 Z M 197.070312 345.890625 " fill-opacity="1" fill-rule="nonzero"/><g fill="#ffffff" fill-opacity="1"><g transform="translate(421.508692, 337.999082)"><g><path d="M 51.265625 -100.78125 L 65.890625 -100.78125 L 65.890625 -57.703125 L 108.96875 -57.703125 L 108.96875 -43.078125 L 65.890625 -43.078125 L 65.890625 0 L 51.265625 0 L 51.265625 -43.078125 L 8 -43.078125 L 8 -57.703125 L 51.265625 -57.703125 Z M 51.265625 -100.78125 "/></g></g></g><g clip-path="url(#ff939c3901)"><path fill="#e23237" d="M 538.84375 201.285156 L 649.738281 161.699219 L 763.609375 200.582031 L 745.179688 347.59375 L 649.738281 400.546875 L 555.796875 348.292969 L 538.84375 201.289062 Z M 538.84375 201.285156 " fill-opacity="1" fill-rule="nonzero"/></g><g clip-path="url(#eb265ba57e)"><path fill="#b52e31" d="M 763.609375 200.582031 L 649.738281 161.699219 L 649.738281 400.539062 L 745.179688 347.664062 L 763.609375 200.582031 L 763.609375 200.578125 Z M 763.609375 200.582031 " fill-opacity="1" fill-rule="nonzero"/></g><path fill="#ffffff" d="M 649.914062 189.585938 L 580.8125 343.628906 L 606.625 343.1875 L 620.5 308.441406 L 682.484375 308.441406 L 697.679688 343.628906 L 722.351562 344.070312 L 649.914062 189.585938 L 649.914062 189.589844 Z M 650.089844 238.9375 L 673.441406 287.851562 L 629.542969 287.851562 Z M 650.089844 238.9375 " fill-opacity="1" fill-rule="nonzero"/></svg>