<svg xmlns="http://www.w3.org/2000/svg" xmlns:xlink="http://www.w3.org/1999/xlink" width="1280" zoomAndPan="magnify" viewBox="0 0 960 540.000001" height="720" preserveAspectRatio="xMidYMid meet" version="1.0"><defs><clipPath id="c7788ae7ab"><path d="M 0.886719 0 L 959.113281 0 L 959.113281 539 L 0.886719 539 Z M 0.886719 0 " clip-rule="nonzero"/></clipPath><radialGradient gradientTransform="matrix(1, 0, 0, 1, 0.887245, 0.000019963)" gradientUnits="userSpaceOnUse" r="1099.417599" cx="0" id="8c5baba641" cy="0" fx="0" fy="0"><stop stop-opacity="1" stop-color="rgb(14.59198%, 26.425171%, 43.234253%)" offset="0"/><stop stop-opacity="1" stop-color="rgb(14.732361%, 26.615906%, 43.435669%)" offset="0.0078125"/><stop stop-opacity="1" stop-color="rgb(14.825439%, 26.742554%, 43.569946%)" offset="0.0117188"/><stop stop-opacity="1" stop-color="rgb(14.918518%, 26.869202%, 43.70575%)" offset="0.015625"/><stop stop-opacity="1" stop-color="rgb(15.011597%, 26.997375%, 43.840027%)" offset="0.0195312"/><stop stop-opacity="1" stop-color="rgb(15.106201%, 27.124023%, 43.974304%)" offset="0.0234375"/><stop stop-opacity="1" stop-color="rgb(15.19928%, 27.250671%, 44.110107%)" offset="0.0273438"/><stop stop-opacity="1" stop-color="rgb(15.292358%, 27.377319%, 44.244385%)" offset="0.03125"/><stop stop-opacity="1" stop-color="rgb(15.385437%, 27.503967%, 44.378662%)" offset="0.0351562"/><stop stop-opacity="1" stop-color="rgb(15.478516%, 27.632141%, 44.514465%)" offset="0.0390625"/><stop stop-opacity="1" stop-color="rgb(15.571594%, 27.758789%, 44.648743%)" offset="0.0429688"/><stop stop-opacity="1" stop-color="rgb(15.666199%, 27.885437%, 44.78302%)" offset="0.046875"/><stop stop-opacity="1" stop-color="rgb(15.759277%, 28.012085%, 44.918823%)" offset="0.0507812"/><stop stop-opacity="1" stop-color="rgb(15.852356%, 28.138733%, 45.053101%)" offset="0.0546875"/><stop stop-opacity="1" stop-color="rgb(15.945435%, 28.266907%, 45.187378%)" offset="0.0585938"/><stop stop-opacity="1" stop-color="rgb(16.038513%, 28.393555%, 45.323181%)" offset="0.0625"/><stop stop-opacity="1" stop-color="rgb(16.133118%, 28.520203%, 45.457458%)" offset="0.0664062"/><stop stop-opacity="1" stop-color="rgb(16.226196%, 28.646851%, 45.591736%)" offset="0.0703125"/><stop stop-opacity="1" stop-color="rgb(16.319275%, 28.773499%, 45.727539%)" offset="0.0742188"/><stop stop-opacity="1" stop-color="rgb(16.412354%, 28.901672%, 45.861816%)" offset="0.078125"/><stop stop-opacity="1" stop-color="rgb(16.505432%, 29.02832%, 45.996094%)" offset="0.0820312"/><stop stop-opacity="1" stop-color="rgb(16.598511%, 29.154968%, 46.131897%)" offset="0.0859375"/><stop stop-opacity="1" stop-color="rgb(16.693115%, 29.281616%, 46.266174%)" offset="0.0898438"/><stop stop-opacity="1" stop-color="rgb(16.786194%, 29.408264%, 46.400452%)" offset="0.09375"/><stop stop-opacity="1" stop-color="rgb(16.879272%, 29.536438%, 46.536255%)" offset="0.0976562"/><stop stop-opacity="1" stop-color="rgb(16.972351%, 29.663086%, 46.670532%)" offset="0.101562"/><stop stop-opacity="1" stop-color="rgb(17.06543%, 29.789734%, 46.80481%)" offset="0.105469"/><stop stop-opacity="1" stop-color="rgb(17.160034%, 29.916382%, 46.939087%)" offset="0.109375"/><stop stop-opacity="1" stop-color="rgb(17.253113%, 30.04303%, 47.07489%)" offset="0.113281"/><stop stop-opacity="1" stop-color="rgb(17.346191%, 30.171204%, 47.209167%)" offset="0.117188"/><stop stop-opacity="1" stop-color="rgb(17.43927%, 30.297852%, 47.343445%)" offset="0.121094"/><stop stop-opacity="1" stop-color="rgb(17.532349%, 30.4245%, 47.479248%)" offset="0.125"/><stop stop-opacity="1" stop-color="rgb(17.625427%, 30.551147%, 47.613525%)" offset="0.128906"/><stop stop-opacity="1" stop-color="rgb(17.720032%, 30.677795%, 47.747803%)" offset="0.132812"/><stop stop-opacity="1" stop-color="rgb(17.81311%, 30.805969%, 47.883606%)" offset="0.136719"/><stop stop-opacity="1" stop-color="rgb(17.906189%, 30.932617%, 48.017883%)" offset="0.140625"/><stop stop-opacity="1" stop-color="rgb(17.999268%, 31.059265%, 48.152161%)" offset="0.144531"/><stop stop-opacity="1" stop-color="rgb(18.092346%, 31.185913%, 48.287964%)" offset="0.148438"/><stop stop-opacity="1" stop-color="rgb(18.186951%, 31.312561%, 48.422241%)" offset="0.152344"/><stop stop-opacity="1" stop-color="rgb(18.280029%, 31.440735%, 48.556519%)" offset="0.15625"/><stop stop-opacity="1" stop-color="rgb(18.373108%, 31.567383%, 48.692322%)" offset="0.160156"/><stop stop-opacity="1" stop-color="rgb(18.466187%, 31.694031%, 48.826599%)" offset="0.164062"/><stop stop-opacity="1" stop-color="rgb(18.559265%, 31.820679%, 48.960876%)" offset="0.167969"/><stop stop-opacity="1" stop-color="rgb(18.65387%, 31.947327%, 49.09668%)" offset="0.171875"/><stop stop-opacity="1" stop-color="rgb(18.746948%, 32.0755%, 49.230957%)" offset="0.175781"/><stop stop-opacity="1" stop-color="rgb(18.840027%, 32.202148%, 49.365234%)" offset="0.179688"/><stop stop-opacity="1" stop-color="rgb(18.933105%, 32.328796%, 49.501038%)" offset="0.183594"/><stop stop-opacity="1" stop-color="rgb(19.026184%, 32.455444%, 49.635315%)" offset="0.1875"/><stop stop-opacity="1" stop-color="rgb(19.119263%, 32.582092%, 49.769592%)" offset="0.191406"/><stop stop-opacity="1" stop-color="rgb(19.213867%, 32.710266%, 49.905396%)" offset="0.195312"/><stop stop-opacity="1" stop-color="rgb(19.306946%, 32.836914%, 50.039673%)" offset="0.199219"/><stop stop-opacity="1" stop-color="rgb(19.400024%, 32.963562%, 50.17395%)" offset="0.203125"/><stop stop-opacity="1" stop-color="rgb(19.493103%, 33.09021%, 50.308228%)" offset="0.207031"/><stop stop-opacity="1" stop-color="rgb(19.586182%, 33.216858%, 50.444031%)" offset="0.210938"/><stop stop-opacity="1" stop-color="rgb(19.680786%, 33.345032%, 50.578308%)" offset="0.214844"/><stop stop-opacity="1" stop-color="rgb(19.773865%, 33.47168%, 50.712585%)" offset="0.21875"/><stop stop-opacity="1" stop-color="rgb(19.866943%, 33.598328%, 50.848389%)" offset="0.222656"/><stop stop-opacity="1" stop-color="rgb(19.960022%, 33.724976%, 50.982666%)" offset="0.226562"/><stop stop-opacity="1" stop-color="rgb(20.053101%, 33.851624%, 51.116943%)" offset="0.230469"/><stop stop-opacity="1" stop-color="rgb(20.146179%, 33.979797%, 51.252747%)" offset="0.234375"/><stop stop-opacity="1" stop-color="rgb(20.240784%, 34.106445%, 51.387024%)" offset="0.238281"/><stop stop-opacity="1" stop-color="rgb(20.333862%, 34.233093%, 51.521301%)" offset="0.242188"/><stop stop-opacity="1" stop-color="rgb(20.426941%, 34.359741%, 51.657104%)" offset="0.246094"/><stop stop-opacity="1" stop-color="rgb(20.52002%, 34.486389%, 51.791382%)" offset="0.25"/><stop stop-opacity="1" stop-color="rgb(20.6604%, 34.677124%, 51.992798%)" offset="0.253906"/><stop stop-opacity="1" stop-color="rgb(20.848083%, 34.931946%, 52.262878%)" offset="0.261719"/><stop stop-opacity="1" stop-color="rgb(21.034241%, 35.185242%, 52.532959%)" offset="0.269531"/><stop stop-opacity="1" stop-color="rgb(21.220398%, 35.440063%, 52.801514%)" offset="0.277344"/><stop stop-opacity="1" stop-color="rgb(21.408081%, 35.693359%, 53.071594%)" offset="0.285156"/><stop stop-opacity="1" stop-color="rgb(21.594238%, 35.946655%, 53.341675%)" offset="0.292969"/><stop stop-opacity="1" stop-color="rgb(21.780396%, 36.201477%, 53.610229%)" offset="0.300781"/><stop stop-opacity="1" stop-color="rgb(21.968079%, 36.454773%, 53.88031%)" offset="0.308594"/><stop stop-opacity="1" stop-color="rgb(22.154236%, 36.709595%, 54.148865%)" offset="0.316406"/><stop stop-opacity="1" stop-color="rgb(22.340393%, 36.962891%, 54.418945%)" offset="0.324219"/><stop stop-opacity="1" stop-color="rgb(22.528076%, 37.216187%, 54.689026%)" offset="0.332031"/><stop stop-opacity="1" stop-color="rgb(22.714233%, 37.471008%, 54.957581%)" offset="0.339844"/><stop stop-opacity="1" stop-color="rgb(22.901917%, 37.724304%, 55.227661%)" offset="0.347656"/><stop stop-opacity="1" stop-color="rgb(23.088074%, 37.979126%, 55.497742%)" offset="0.355469"/><stop stop-opacity="1" stop-color="rgb(23.274231%, 38.232422%, 55.766296%)" offset="0.363281"/><stop stop-opacity="1" stop-color="rgb(23.461914%, 38.485718%, 56.036377%)" offset="0.371094"/><stop stop-opacity="1" stop-color="rgb(23.648071%, 38.74054%, 56.306458%)" offset="0.378906"/><stop stop-opacity="1" stop-color="rgb(23.834229%, 38.993835%, 56.575012%)" offset="0.386719"/><stop stop-opacity="1" stop-color="rgb(24.021912%, 39.248657%, 56.845093%)" offset="0.394531"/><stop stop-opacity="1" stop-color="rgb(24.208069%, 39.501953%, 57.113647%)" offset="0.402344"/><stop stop-opacity="1" stop-color="rgb(24.395752%, 39.755249%, 57.383728%)" offset="0.410156"/><stop stop-opacity="1" stop-color="rgb(24.581909%, 40.010071%, 57.653809%)" offset="0.417969"/><stop stop-opacity="1" stop-color="rgb(24.768066%, 40.263367%, 57.922363%)" offset="0.425781"/><stop stop-opacity="1" stop-color="rgb(24.95575%, 40.518188%, 58.192444%)" offset="0.433594"/><stop stop-opacity="1" stop-color="rgb(25.141907%, 40.771484%, 58.462524%)" offset="0.441406"/><stop stop-opacity="1" stop-color="rgb(25.328064%, 41.02478%, 58.731079%)" offset="0.449219"/><stop stop-opacity="1" stop-color="rgb(25.515747%, 41.279602%, 59.00116%)" offset="0.457031"/><stop stop-opacity="1" stop-color="rgb(25.701904%, 41.532898%, 59.27124%)" offset="0.464844"/><stop stop-opacity="1" stop-color="rgb(25.888062%, 41.78772%, 59.539795%)" offset="0.472656"/><stop stop-opacity="1" stop-color="rgb(26.075745%, 42.041016%, 59.809875%)" offset="0.480469"/><stop stop-opacity="1" stop-color="rgb(26.261902%, 42.294312%, 60.079956%)" offset="0.488281"/><stop stop-opacity="1" stop-color="rgb(26.449585%, 42.549133%, 60.348511%)" offset="0.496094"/><stop stop-opacity="1" stop-color="rgb(26.58844%, 42.738342%, 60.551453%)" offset="0.503906"/><stop stop-opacity="1" stop-color="rgb(26.681519%, 42.866516%, 60.68573%)" offset="0.507812"/><stop stop-opacity="1" stop-color="rgb(26.776123%, 42.993164%, 60.820007%)" offset="0.511719"/><stop stop-opacity="1" stop-color="rgb(26.869202%, 43.119812%, 60.955811%)" offset="0.515625"/><stop stop-opacity="1" stop-color="rgb(26.96228%, 43.24646%, 61.090088%)" offset="0.519531"/><stop stop-opacity="1" stop-color="rgb(27.055359%, 43.373108%, 61.224365%)" offset="0.523438"/><stop stop-opacity="1" stop-color="rgb(27.148438%, 43.501282%, 61.360168%)" offset="0.527344"/><stop stop-opacity="1" stop-color="rgb(27.241516%, 43.62793%, 61.494446%)" offset="0.53125"/><stop stop-opacity="1" stop-color="rgb(27.336121%, 43.754578%, 61.628723%)" offset="0.535156"/><stop stop-opacity="1" stop-color="rgb(27.429199%, 43.881226%, 61.764526%)" offset="0.539062"/><stop stop-opacity="1" stop-color="rgb(27.522278%, 44.007874%, 61.898804%)" offset="0.542969"/><stop stop-opacity="1" stop-color="rgb(27.615356%, 44.136047%, 62.033081%)" offset="0.546875"/><stop stop-opacity="1" stop-color="rgb(27.708435%, 44.262695%, 62.168884%)" offset="0.550781"/><stop stop-opacity="1" stop-color="rgb(27.80304%, 44.389343%, 62.303162%)" offset="0.554688"/><stop stop-opacity="1" stop-color="rgb(27.896118%, 44.515991%, 62.437439%)" offset="0.558594"/><stop stop-opacity="1" stop-color="rgb(27.989197%, 44.642639%, 62.573242%)" offset="0.5625"/><stop stop-opacity="1" stop-color="rgb(28.082275%, 44.770813%, 62.70752%)" offset="0.566406"/><stop stop-opacity="1" stop-color="rgb(28.175354%, 44.897461%, 62.841797%)" offset="0.570312"/><stop stop-opacity="1" stop-color="rgb(28.268433%, 45.024109%, 62.9776%)" offset="0.574219"/><stop stop-opacity="1" stop-color="rgb(28.363037%, 45.150757%, 63.111877%)" offset="0.578125"/><stop stop-opacity="1" stop-color="rgb(28.456116%, 45.277405%, 63.246155%)" offset="0.582031"/><stop stop-opacity="1" stop-color="rgb(28.549194%, 45.405579%, 63.381958%)" offset="0.585938"/><stop stop-opacity="1" stop-color="rgb(28.642273%, 45.532227%, 63.516235%)" offset="0.589844"/><stop stop-opacity="1" stop-color="rgb(28.735352%, 45.658875%, 63.650513%)" offset="0.59375"/><stop stop-opacity="1" stop-color="rgb(28.829956%, 45.785522%, 63.78479%)" offset="0.597656"/><stop stop-opacity="1" stop-color="rgb(28.923035%, 45.91217%, 63.920593%)" offset="0.601562"/><stop stop-opacity="1" stop-color="rgb(29.016113%, 46.040344%, 64.054871%)" offset="0.605469"/><stop stop-opacity="1" stop-color="rgb(29.109192%, 46.166992%, 64.189148%)" offset="0.609375"/><stop stop-opacity="1" stop-color="rgb(29.202271%, 46.29364%, 64.324951%)" offset="0.613281"/><stop stop-opacity="1" stop-color="rgb(29.295349%, 46.420288%, 64.459229%)" offset="0.617188"/><stop stop-opacity="1" stop-color="rgb(29.389954%, 46.546936%, 64.593506%)" offset="0.621094"/><stop stop-opacity="1" stop-color="rgb(29.483032%, 46.67511%, 64.729309%)" offset="0.625"/><stop stop-opacity="1" stop-color="rgb(29.623413%, 46.865845%, 64.930725%)" offset="0.628906"/><stop stop-opacity="1" stop-color="rgb(29.80957%, 47.119141%, 65.200806%)" offset="0.636719"/><stop stop-opacity="1" stop-color="rgb(29.997253%, 47.372437%, 65.46936%)" offset="0.644531"/><stop stop-opacity="1" stop-color="rgb(30.183411%, 47.627258%, 65.739441%)" offset="0.652344"/><stop stop-opacity="1" stop-color="rgb(30.369568%, 47.880554%, 66.009521%)" offset="0.660156"/><stop stop-opacity="1" stop-color="rgb(30.557251%, 48.135376%, 66.278076%)" offset="0.667969"/><stop stop-opacity="1" stop-color="rgb(30.743408%, 48.388672%, 66.548157%)" offset="0.675781"/><stop stop-opacity="1" stop-color="rgb(30.929565%, 48.641968%, 66.818237%)" offset="0.683594"/><stop stop-opacity="1" stop-color="rgb(31.117249%, 48.89679%, 67.086792%)" offset="0.691406"/><stop stop-opacity="1" stop-color="rgb(31.303406%, 49.150085%, 67.356873%)" offset="0.699219"/><stop stop-opacity="1" stop-color="rgb(31.491089%, 49.404907%, 67.625427%)" offset="0.707031"/><stop stop-opacity="1" stop-color="rgb(31.677246%, 49.658203%, 67.895508%)" offset="0.714844"/><stop stop-opacity="1" stop-color="rgb(31.863403%, 49.911499%, 68.165588%)" offset="0.722656"/><stop stop-opacity="1" stop-color="rgb(32.051086%, 50.166321%, 68.434143%)" offset="0.730469"/><stop stop-opacity="1" stop-color="rgb(32.237244%, 50.419617%, 68.704224%)" offset="0.738281"/><stop stop-opacity="1" stop-color="rgb(32.423401%, 50.674438%, 68.974304%)" offset="0.746094"/><stop stop-opacity="1" stop-color="rgb(32.563782%, 50.863647%, 69.17572%)" offset="0.753906"/><stop stop-opacity="1" stop-color="rgb(32.65686%, 50.990295%, 69.311523%)" offset="0.757812"/><stop stop-opacity="1" stop-color="rgb(32.749939%, 51.118469%, 69.445801%)" offset="0.761719"/><stop stop-opacity="1" stop-color="rgb(32.843018%, 51.245117%, 69.580078%)" offset="0.765625"/><stop stop-opacity="1" stop-color="rgb(32.937622%, 51.371765%, 69.715881%)" offset="0.769531"/><stop stop-opacity="1" stop-color="rgb(33.030701%, 51.498413%, 69.850159%)" offset="0.773438"/><stop stop-opacity="1" stop-color="rgb(33.123779%, 51.625061%, 69.984436%)" offset="0.777344"/><stop stop-opacity="1" stop-color="rgb(33.216858%, 51.753235%, 70.120239%)" offset="0.78125"/><stop stop-opacity="1" stop-color="rgb(33.309937%, 51.879883%, 70.254517%)" offset="0.785156"/><stop stop-opacity="1" stop-color="rgb(33.404541%, 52.006531%, 70.388794%)" offset="0.789062"/><stop stop-opacity="1" stop-color="rgb(33.49762%, 52.133179%, 70.523071%)" offset="0.792969"/><stop stop-opacity="1" stop-color="rgb(33.590698%, 52.259827%, 70.658875%)" offset="0.796875"/><stop stop-opacity="1" stop-color="rgb(33.683777%, 52.388%, 70.793152%)" offset="0.800781"/><stop stop-opacity="1" stop-color="rgb(33.776855%, 52.514648%, 70.927429%)" offset="0.804688"/><stop stop-opacity="1" stop-color="rgb(33.869934%, 52.641296%, 71.063232%)" offset="0.808594"/><stop stop-opacity="1" stop-color="rgb(33.964539%, 52.767944%, 71.19751%)" offset="0.8125"/><stop stop-opacity="1" stop-color="rgb(34.104919%, 52.958679%, 71.398926%)" offset="0.816406"/><stop stop-opacity="1" stop-color="rgb(34.291077%, 53.213501%, 71.669006%)" offset="0.824219"/><stop stop-opacity="1" stop-color="rgb(34.477234%, 53.466797%, 71.939087%)" offset="0.832031"/><stop stop-opacity="1" stop-color="rgb(34.664917%, 53.720093%, 72.207642%)" offset="0.839844"/><stop stop-opacity="1" stop-color="rgb(34.851074%, 53.974915%, 72.477722%)" offset="0.847656"/><stop stop-opacity="1" stop-color="rgb(35.038757%, 54.22821%, 72.747803%)" offset="0.855469"/><stop stop-opacity="1" stop-color="rgb(35.224915%, 54.483032%, 73.016357%)" offset="0.863281"/><stop stop-opacity="1" stop-color="rgb(35.411072%, 54.736328%, 73.286438%)" offset="0.871094"/><stop stop-opacity="1" stop-color="rgb(35.551453%, 54.927063%, 73.48938%)" offset="0.878906"/><stop stop-opacity="1" stop-color="rgb(35.644531%, 55.053711%, 73.623657%)" offset="0.882812"/><stop stop-opacity="1" stop-color="rgb(35.73761%, 55.180359%, 73.757935%)" offset="0.886719"/><stop stop-opacity="1" stop-color="rgb(35.830688%, 55.307007%, 73.892212%)" offset="0.890625"/><stop stop-opacity="1" stop-color="rgb(35.925293%, 55.433655%, 74.028015%)" offset="0.894531"/><stop stop-opacity="1" stop-color="rgb(36.018372%, 55.561829%, 74.162292%)" offset="0.898438"/><stop stop-opacity="1" stop-color="rgb(36.11145%, 55.688477%, 74.29657%)" offset="0.902344"/><stop stop-opacity="1" stop-color="rgb(36.204529%, 55.815125%, 74.432373%)" offset="0.90625"/><stop stop-opacity="1" stop-color="rgb(36.34491%, 56.005859%, 74.633789%)" offset="0.910156"/><stop stop-opacity="1" stop-color="rgb(36.531067%, 56.259155%, 74.90387%)" offset="0.917969"/><stop stop-opacity="1" stop-color="rgb(36.71875%, 56.513977%, 75.172424%)" offset="0.925781"/><stop stop-opacity="1" stop-color="rgb(36.904907%, 56.767273%, 75.442505%)" offset="0.933594"/><stop stop-opacity="1" stop-color="rgb(37.045288%, 56.958008%, 75.645447%)" offset="0.941406"/><stop stop-opacity="1" stop-color="rgb(37.138367%, 57.084656%, 75.779724%)" offset="0.945312"/><stop stop-opacity="1" stop-color="rgb(37.231445%, 57.211304%, 75.914001%)" offset="0.949219"/><stop stop-opacity="1" stop-color="rgb(37.324524%, 57.337952%, 76.049805%)" offset="0.953125"/><stop stop-opacity="1" stop-color="rgb(37.464905%, 57.528687%, 76.251221%)" offset="0.957031"/><stop stop-opacity="1" stop-color="rgb(37.652588%, 57.783508%, 76.521301%)" offset="0.964844"/><stop stop-opacity="1" stop-color="rgb(37.791443%, 57.972717%, 76.722717%)" offset="0.972656"/><stop stop-opacity="1" stop-color="rgb(37.884521%, 58.100891%, 76.858521%)" offset="0.976562"/><stop stop-opacity="1" stop-color="rgb(38.024902%, 58.291626%, 77.059937%)" offset="0.980469"/><stop stop-opacity="1" stop-color="rgb(38.165283%, 58.480835%, 77.261353%)" offset="0.988281"/><stop stop-opacity="1" stop-color="rgb(38.305664%, 58.67157%, 77.464294%)" offset="0.992188"/><stop stop-opacity="1" stop-color="rgb(38.398743%, 58.799744%, 77.598572%)" offset="1"/></radialGradient><clipPath id="9b15e82f04"><path d="M 464 210 L 608.910156 210 L 608.910156 355 L 464 355 Z M 464 210 " clip-rule="nonzero"/></clipPath><clipPath id="d3387ddea0"><path d="M 413 260 L 488 260 L 488 377.300781 L 413 377.300781 Z M 413 260 " clip-rule="nonzero"/></clipPath></defs><g clip-path="url(#c7788ae7ab)"><path fill="#ffffff" d="M 0.886719 0 L 959.113281 0 L 959.113281 539 L 0.886719 539 Z M 0.886719 0 " fill-opacity="1" fill-rule="nonzero"/><path fill="url(#8c5baba641)" d="M 0.886719 0 L 0.886719 539 L 959.113281 539 L 959.113281 0 Z M 0.886719 0 " fill-rule="nonzero"/></g><path fill="#96a5d4" d="M 504.265625 321.152344 L 470.230469 164.757812 C 470.03125 163.847656 469.488281 163.070312 468.703125 162.566406 C 467.917969 162.0625 466.984375 161.890625 466.074219 162.089844 L 354.777344 186.253906 C 352.894531 186.664062 351.695312 188.527344 352.105469 190.40625 L 386.140625 346.800781 C 386.339844 347.710938 386.878906 348.488281 387.664062 348.992188 C 388.234375 349.359375 388.886719 349.546875 389.546875 349.546875 C 389.796875 349.546875 390.046875 349.523438 390.296875 349.46875 L 501.59375 325.304688 C 503.476562 324.894531 504.675781 323.03125 504.265625 321.152344 Z M 504.265625 321.152344 " fill-opacity="1" fill-rule="nonzero"/><path fill="#f5faf4" d="M 463.261719 171.347656 L 463.210938 171.101562 L 361.375 193.210938 L 361.125 193.265625 L 393.105469 340.210938 L 393.160156 340.457031 L 495.242188 318.292969 Z M 463.261719 171.347656 " fill-opacity="1" fill-rule="nonzero"/><path fill="#96a5d4" d="M 389.402344 208.351562 C 392.023438 204.925781 395.011719 201.832031 398.296875 199.164062 C 398.566406 198.945312 398.609375 198.546875 398.390625 198.277344 C 398.167969 198.007812 397.769531 197.964844 397.5 198.183594 C 394.410156 200.695312 391.578125 203.578125 389.054688 206.75 L 388.890625 205.996094 L 372.800781 209.492188 L 376.296875 225.558594 L 392.386719 222.066406 Z M 373.402344 209.878906 L 388.503906 206.597656 L 388.644531 207.261719 C 386.019531 210.636719 383.746094 214.335938 381.890625 218.269531 L 378.960938 214.214844 C 378.757812 213.929688 378.363281 213.867188 378.078125 214.070312 C 377.796875 214.273438 377.730469 214.667969 377.9375 214.949219 L 382.136719 220.773438 L 382.585938 219.777344 C 384.332031 215.894531 386.496094 212.238281 389 208.886719 L 391.785156 221.679688 L 376.6875 224.957031 Z M 373.402344 209.878906 " fill-opacity="1" fill-rule="nonzero"/><path fill="#96a5d4" d="M 393.980469 229.398438 C 396.605469 225.972656 399.59375 222.878906 402.878906 220.210938 C 403.148438 219.992188 403.1875 219.59375 402.96875 219.324219 C 402.75 219.054688 402.351562 219.011719 402.082031 219.230469 C 398.988281 221.742188 396.15625 224.625 393.632812 227.796875 L 393.433594 226.875 L 377.34375 230.367188 L 380.84375 246.4375 L 396.929688 242.945312 Z M 377.945312 230.753906 L 393.046875 227.476562 L 393.226562 228.308594 C 390.601562 231.683594 388.328125 235.386719 386.46875 239.320312 L 383.542969 235.261719 C 383.335938 234.976562 382.941406 234.914062 382.660156 235.117188 C 382.375 235.320312 382.3125 235.714844 382.515625 236 L 386.71875 241.820312 L 387.167969 240.824219 C 388.914062 236.941406 391.074219 233.285156 393.582031 229.933594 L 396.328125 242.558594 L 381.230469 245.835938 Z M 377.945312 230.753906 " fill-opacity="1" fill-rule="nonzero"/><path fill="#96a5d4" d="M 398.503906 250.175781 C 401.128906 246.75 404.117188 243.65625 407.398438 240.988281 C 407.671875 240.769531 407.710938 240.371094 407.492188 240.101562 C 407.269531 239.832031 406.875 239.789062 406.601562 240.007812 C 403.511719 242.519531 400.679688 245.402344 398.15625 248.574219 L 397.976562 247.753906 L 381.886719 251.246094 L 385.386719 267.316406 L 401.472656 263.820312 Z M 382.492188 251.632812 L 397.589844 248.355469 L 397.75 249.085938 C 395.125 252.460938 392.847656 256.164062 390.992188 260.097656 L 388.0625 256.039062 C 387.859375 255.753906 387.464844 255.691406 387.183594 255.894531 C 386.898438 256.097656 386.835938 256.492188 387.039062 256.777344 L 391.242188 262.597656 L 391.6875 261.601562 C 393.433594 257.71875 395.597656 254.0625 398.101562 250.710938 L 400.871094 263.433594 L 385.773438 266.714844 Z M 382.492188 251.632812 " fill-opacity="1" fill-rule="nonzero"/><path fill="#96a5d4" d="M 402.519531 268.628906 L 386.433594 272.125 L 389.929688 288.191406 L 406.019531 284.699219 Z M 387.035156 272.511719 L 402.132812 269.230469 L 405.414062 284.3125 L 390.316406 287.589844 Z M 387.035156 272.511719 " fill-opacity="1" fill-rule="nonzero"/><path fill="#96a5d4" d="M 407.0625 289.507812 L 390.976562 293 L 394.472656 309.070312 L 410.5625 305.578125 Z M 391.578125 293.386719 L 406.675781 290.109375 L 409.960938 305.191406 L 394.859375 308.46875 Z M 391.578125 293.386719 " fill-opacity="1" fill-rule="nonzero"/><path fill="#96a5d4" d="M 395.519531 313.878906 L 399.015625 329.949219 L 415.105469 326.453125 L 411.609375 310.386719 Z M 399.402344 329.347656 L 396.121094 314.265625 L 411.222656 310.988281 L 414.503906 326.066406 Z M 399.402344 329.347656 " fill-opacity="1" fill-rule="nonzero"/><path fill="#96a5d4" d="M 395.085938 207.539062 C 395.105469 207.621094 395.175781 207.675781 395.257812 207.675781 C 395.269531 207.675781 395.285156 207.675781 395.296875 207.671875 L 457.085938 194.257812 C 457.179688 194.234375 457.242188 194.140625 457.21875 194.046875 C 457.199219 193.953125 457.105469 193.894531 457.011719 193.914062 L 395.222656 207.328125 C 395.125 207.351562 395.066406 207.445312 395.085938 207.539062 Z M 395.085938 207.539062 " fill-opacity="1" fill-rule="nonzero"/><path fill="#96a5d4" d="M 448.363281 201.355469 C 448.34375 201.261719 448.246094 201.203125 448.15625 201.222656 L 396.160156 212.511719 C 396.0625 212.53125 396.003906 212.625 396.023438 212.71875 C 396.042969 212.804688 396.113281 212.859375 396.195312 212.859375 C 396.207031 212.859375 396.222656 212.859375 396.234375 212.855469 L 448.230469 201.566406 C 448.324219 201.542969 448.386719 201.449219 448.363281 201.355469 Z M 448.363281 201.355469 " fill-opacity="1" fill-rule="nonzero"/><path fill="#96a5d4" d="M 397.421875 218.089844 C 397.441406 218.171875 397.511719 218.226562 397.59375 218.226562 C 397.605469 218.226562 397.621094 218.226562 397.632812 218.222656 L 458.023438 205.109375 C 458.121094 205.089844 458.179688 204.996094 458.160156 204.898438 C 458.140625 204.804688 458.046875 204.746094 457.949219 204.765625 L 397.558594 217.878906 C 397.460938 217.898438 397.402344 217.992188 397.421875 218.089844 Z M 397.421875 218.089844 " fill-opacity="1" fill-rule="nonzero"/><path fill="#96a5d4" d="M 451.074219 217.246094 C 451.054688 217.152344 450.957031 217.089844 450.867188 217.113281 L 399.589844 228.246094 C 399.492188 228.265625 399.433594 228.359375 399.453125 228.453125 C 399.472656 228.535156 399.542969 228.59375 399.625 228.59375 C 399.636719 228.59375 399.648438 228.589844 399.664062 228.589844 L 450.941406 217.453125 C 451.035156 217.433594 451.097656 217.339844 451.074219 217.246094 Z M 451.074219 217.246094 " fill-opacity="1" fill-rule="nonzero"/><path fill="#96a5d4" d="M 400.59375 233.769531 C 400.605469 233.769531 400.617188 233.765625 400.628906 233.765625 L 443.78125 224.394531 C 443.875 224.375 443.9375 224.28125 443.917969 224.1875 C 443.894531 224.089844 443.800781 224.03125 443.707031 224.050781 L 400.554688 233.421875 C 400.460938 233.441406 400.402344 233.535156 400.421875 233.628906 C 400.441406 233.710938 400.511719 233.769531 400.59375 233.769531 Z M 400.59375 233.769531 " fill-opacity="1" fill-rule="nonzero"/><path fill="#96a5d4" d="M 401.953125 239.144531 C 401.964844 239.144531 401.980469 239.140625 401.992188 239.140625 L 452.109375 228.257812 C 452.207031 228.238281 452.265625 228.144531 452.246094 228.046875 C 452.226562 227.953125 452.132812 227.894531 452.035156 227.914062 L 401.917969 238.796875 C 401.824219 238.816406 401.761719 238.910156 401.78125 239.003906 C 401.800781 239.085938 401.875 239.144531 401.953125 239.144531 Z M 401.953125 239.144531 " fill-opacity="1" fill-rule="nonzero"/><path fill="#96a5d4" d="M 403.804688 249.375 C 403.820312 249.457031 403.894531 249.511719 403.976562 249.511719 C 403.988281 249.511719 404 249.511719 404.011719 249.507812 L 443.859375 240.855469 C 443.953125 240.835938 444.015625 240.742188 443.992188 240.648438 C 443.972656 240.554688 443.878906 240.496094 443.785156 240.511719 L 403.9375 249.164062 C 403.84375 249.183594 403.785156 249.277344 403.804688 249.375 Z M 403.804688 249.375 " fill-opacity="1" fill-rule="nonzero"/><path fill="#96a5d4" d="M 404.976562 254.679688 C 404.992188 254.679688 405.003906 254.679688 405.015625 254.675781 L 438.546875 247.394531 C 438.640625 247.375 438.699219 247.28125 438.679688 247.1875 C 438.660156 247.09375 438.5625 247.03125 438.472656 247.054688 L 404.941406 254.332031 C 404.847656 254.351562 404.785156 254.445312 404.804688 254.542969 C 404.824219 254.625 404.898438 254.679688 404.976562 254.679688 Z M 404.976562 254.679688 " fill-opacity="1" fill-rule="nonzero"/><path fill="#96a5d4" d="M 406.296875 260.0625 C 406.308594 260.0625 406.324219 260.0625 406.335938 260.058594 L 445.28125 251.605469 C 445.375 251.585938 445.433594 251.492188 445.414062 251.394531 C 445.394531 251.300781 445.300781 251.242188 445.207031 251.261719 L 406.261719 259.714844 C 406.167969 259.738281 406.105469 259.832031 406.125 259.925781 C 406.144531 260.007812 406.21875 260.0625 406.296875 260.0625 Z M 406.296875 260.0625 " fill-opacity="1" fill-rule="nonzero"/><path fill="#96a5d4" d="M 408.46875 269.949219 C 408.484375 269.949219 408.496094 269.949219 408.507812 269.945312 L 446.898438 261.609375 C 446.992188 261.589844 447.054688 261.496094 447.035156 261.402344 C 447.011719 261.308594 446.917969 261.25 446.824219 261.269531 L 408.433594 269.601562 C 408.339844 269.625 408.277344 269.71875 408.296875 269.8125 C 408.316406 269.894531 408.390625 269.949219 408.46875 269.949219 Z M 408.46875 269.949219 " fill-opacity="1" fill-rule="nonzero"/><path fill="#96a5d4" d="M 409.734375 275.335938 C 409.753906 275.417969 409.824219 275.472656 409.90625 275.472656 C 409.917969 275.472656 409.933594 275.472656 409.945312 275.46875 L 469.714844 262.492188 C 469.808594 262.46875 469.867188 262.375 469.847656 262.28125 C 469.828125 262.1875 469.734375 262.125 469.640625 262.148438 L 409.871094 275.125 C 409.773438 275.144531 409.714844 275.238281 409.734375 275.335938 Z M 409.734375 275.335938 " fill-opacity="1" fill-rule="nonzero"/><path fill="#96a5d4" d="M 453.429688 270.808594 C 453.410156 270.714844 453.316406 270.65625 453.222656 270.675781 L 410.785156 279.890625 C 410.691406 279.910156 410.628906 280.003906 410.652344 280.097656 C 410.667969 280.179688 410.742188 280.238281 410.824219 280.238281 C 410.835938 280.238281 410.847656 280.238281 410.859375 280.234375 L 453.296875 271.019531 C 453.390625 271 453.453125 270.90625 453.429688 270.808594 Z M 453.429688 270.808594 " fill-opacity="1" fill-rule="nonzero"/><path fill="#96a5d4" d="M 413.152344 291.09375 C 413.164062 291.09375 413.179688 291.089844 413.191406 291.085938 L 457.148438 281.542969 C 457.242188 281.523438 457.300781 281.429688 457.28125 281.335938 C 457.261719 281.238281 457.167969 281.179688 457.074219 281.199219 L 413.117188 290.746094 C 413.019531 290.765625 412.960938 290.859375 412.980469 290.953125 C 413 291.035156 413.070312 291.09375 413.152344 291.09375 Z M 413.152344 291.09375 " fill-opacity="1" fill-rule="nonzero"/><path fill="#96a5d4" d="M 414.386719 296.378906 C 414.398438 296.378906 414.410156 296.378906 414.421875 296.375 L 467.171875 284.921875 C 467.265625 284.902344 467.328125 284.808594 467.304688 284.710938 C 467.285156 284.617188 467.191406 284.554688 467.097656 284.578125 L 414.347656 296.03125 C 414.253906 296.050781 414.195312 296.144531 414.214844 296.238281 C 414.230469 296.324219 414.304688 296.378906 414.386719 296.378906 Z M 414.386719 296.378906 " fill-opacity="1" fill-rule="nonzero"/><path fill="#96a5d4" d="M 460.988281 291.292969 C 460.964844 291.199219 460.875 291.136719 460.777344 291.160156 L 415.425781 301.007812 C 415.328125 301.027344 415.269531 301.121094 415.289062 301.214844 C 415.308594 301.296875 415.378906 301.351562 415.460938 301.351562 C 415.472656 301.351562 415.488281 301.351562 415.5 301.347656 L 460.851562 291.5 C 460.945312 291.480469 461.007812 291.386719 460.988281 291.292969 Z M 460.988281 291.292969 " fill-opacity="1" fill-rule="nonzero"/><path fill="#96a5d4" d="M 465.230469 301.5625 C 465.210938 301.464844 465.113281 301.40625 465.019531 301.425781 L 417.722656 311.695312 C 417.628906 311.71875 417.570312 311.8125 417.589844 311.90625 C 417.605469 311.988281 417.679688 312.042969 417.761719 312.042969 C 417.773438 312.042969 417.785156 312.042969 417.796875 312.039062 L 465.097656 301.769531 C 465.191406 301.75 465.25 301.65625 465.230469 301.5625 Z M 465.230469 301.5625 " fill-opacity="1" fill-rule="nonzero"/><path fill="#96a5d4" d="M 482.167969 303.59375 L 419.152344 317.277344 C 419.054688 317.296875 418.996094 317.390625 419.015625 317.488281 C 419.035156 317.570312 419.105469 317.625 419.1875 317.625 C 419.199219 317.625 419.210938 317.625 419.226562 317.621094 L 482.242188 303.9375 C 482.335938 303.917969 482.398438 303.824219 482.378906 303.730469 C 482.355469 303.632812 482.265625 303.570312 482.167969 303.59375 Z M 482.167969 303.59375 " fill-opacity="1" fill-rule="nonzero"/><path fill="#96a5d4" d="M 468.070312 311.4375 L 420.007812 321.875 C 419.910156 321.894531 419.851562 321.988281 419.871094 322.085938 C 419.890625 322.167969 419.964844 322.222656 420.042969 322.222656 C 420.054688 322.222656 420.070312 322.222656 420.082031 322.21875 L 468.144531 311.78125 C 468.242188 311.761719 468.300781 311.667969 468.28125 311.574219 C 468.261719 311.476562 468.167969 311.417969 468.070312 311.4375 Z M 468.070312 311.4375 " fill-opacity="1" fill-rule="nonzero"/><path fill="#abc8e9" d="M 442.238281 177.507812 L 440.304688 168.621094 C 439.988281 167.171875 439.125 165.929688 437.875 165.125 C 436.625 164.320312 435.132812 164.050781 433.679688 164.367188 L 418.265625 167.714844 C 416.441406 163.839844 412.121094 161.699219 407.910156 162.617188 C 403.699219 163.53125 400.65625 167.269531 400.605469 171.550781 L 385.191406 174.894531 C 382.191406 175.546875 380.28125 178.515625 380.933594 181.511719 L 382.867188 190.398438 C 383.433594 193 385.746094 194.78125 388.308594 194.78125 C 388.699219 194.78125 389.09375 194.738281 389.492188 194.652344 L 437.980469 184.125 C 440.980469 183.472656 442.890625 180.503906 442.238281 177.507812 Z M 442.238281 177.507812 " fill-opacity="1" fill-rule="nonzero"/><path fill="#f5faf4" d="M 413.453125 169.566406 C 413.453125 169.832031 413.429688 170.09375 413.375 170.351562 C 413.324219 170.613281 413.25 170.863281 413.148438 171.109375 C 413.046875 171.351562 412.921875 171.585938 412.773438 171.804688 C 412.628906 172.023438 412.460938 172.226562 412.273438 172.414062 C 412.085938 172.601562 411.882812 172.769531 411.660156 172.914062 C 411.441406 173.0625 411.210938 173.1875 410.964844 173.289062 C 410.71875 173.386719 410.46875 173.464844 410.207031 173.515625 C 409.949219 173.566406 409.6875 173.59375 409.421875 173.59375 C 409.15625 173.59375 408.894531 173.566406 408.636719 173.515625 C 408.375 173.464844 408.125 173.386719 407.878906 173.289062 C 407.632812 173.1875 407.402344 173.0625 407.183594 172.914062 C 406.960938 172.769531 406.757812 172.601562 406.570312 172.414062 C 406.382812 172.226562 406.214844 172.023438 406.070312 171.804688 C 405.921875 171.585938 405.796875 171.351562 405.695312 171.109375 C 405.59375 170.863281 405.519531 170.613281 405.46875 170.351562 C 405.414062 170.09375 405.390625 169.832031 405.390625 169.566406 C 405.390625 169.300781 405.414062 169.039062 405.46875 168.78125 C 405.519531 168.519531 405.59375 168.269531 405.695312 168.023438 C 405.796875 167.78125 405.921875 167.550781 406.070312 167.328125 C 406.214844 167.109375 406.382812 166.90625 406.570312 166.71875 C 406.757812 166.53125 406.960938 166.363281 407.183594 166.21875 C 407.402344 166.070312 407.632812 165.945312 407.878906 165.847656 C 408.125 165.746094 408.375 165.667969 408.636719 165.617188 C 408.894531 165.566406 409.15625 165.539062 409.421875 165.539062 C 409.6875 165.539062 409.949219 165.566406 410.207031 165.617188 C 410.46875 165.667969 410.71875 165.746094 410.964844 165.847656 C 411.210938 165.945312 411.441406 166.070312 411.660156 166.21875 C 411.882812 166.363281 412.085938 166.53125 412.273438 166.71875 C 412.460938 166.90625 412.628906 167.109375 412.773438 167.328125 C 412.921875 167.550781 413.046875 167.78125 413.148438 168.023438 C 413.25 168.269531 413.324219 168.519531 413.375 168.78125 C 413.429688 169.039062 413.453125 169.300781 413.453125 169.566406 Z M 413.453125 169.566406 " fill-opacity="1" fill-rule="nonzero"/><g clip-path="url(#9b15e82f04)"><path fill="#abc8e9" d="M 608.574219 282.566406 C 608.574219 283.746094 608.542969 284.921875 608.484375 286.101562 C 608.429688 287.277344 608.339844 288.453125 608.226562 289.625 C 608.109375 290.796875 607.964844 291.964844 607.792969 293.132812 C 607.621094 294.296875 607.417969 295.457031 607.1875 296.613281 C 606.957031 297.769531 606.699219 298.917969 606.414062 300.0625 C 606.125 301.203125 605.8125 302.339844 605.46875 303.46875 C 605.125 304.59375 604.757812 305.714844 604.359375 306.824219 C 603.960938 307.933594 603.539062 309.03125 603.085938 310.121094 C 602.632812 311.210938 602.15625 312.285156 601.652344 313.351562 C 601.148438 314.417969 600.617188 315.46875 600.0625 316.507812 C 599.503906 317.546875 598.921875 318.570312 598.316406 319.582031 C 597.710938 320.59375 597.078125 321.589844 596.425781 322.570312 C 595.769531 323.546875 595.089844 324.511719 594.386719 325.457031 C 593.683594 326.40625 592.957031 327.332031 592.210938 328.242188 C 591.460938 329.15625 590.691406 330.046875 589.898438 330.917969 C 589.105469 331.792969 588.292969 332.644531 587.460938 333.480469 C 586.625 334.3125 585.769531 335.125 584.898438 335.917969 C 584.023438 336.707031 583.128906 337.476562 582.21875 338.222656 C 581.304688 338.972656 580.375 339.695312 579.429688 340.398438 C 578.480469 341.101562 577.515625 341.777344 576.535156 342.433594 C 575.554688 343.089844 574.558594 343.71875 573.546875 344.324219 C 572.535156 344.929688 571.507812 345.511719 570.46875 346.066406 C 569.425781 346.621094 568.375 347.152344 567.308594 347.65625 C 566.242188 348.160156 565.164062 348.636719 564.074219 349.085938 C 562.984375 349.539062 561.882812 349.960938 560.773438 350.359375 C 559.660156 350.757812 558.542969 351.125 557.414062 351.46875 C 556.285156 351.808594 555.148438 352.125 554.003906 352.410156 C 552.859375 352.695312 551.707031 352.953125 550.550781 353.183594 C 549.394531 353.414062 548.230469 353.617188 547.0625 353.789062 C 545.898438 353.960938 544.726562 354.105469 543.550781 354.222656 C 542.378906 354.335938 541.203125 354.421875 540.023438 354.480469 C 538.84375 354.539062 537.667969 354.566406 536.488281 354.566406 C 535.308594 354.566406 534.128906 354.539062 532.949219 354.480469 C 531.769531 354.421875 530.59375 354.335938 529.421875 354.222656 C 528.246094 354.105469 527.078125 353.960938 525.910156 353.789062 C 524.742188 353.617188 523.582031 353.414062 522.421875 353.183594 C 521.265625 352.953125 520.117188 352.695312 518.972656 352.410156 C 517.828125 352.125 516.691406 351.808594 515.5625 351.46875 C 514.433594 351.125 513.3125 350.757812 512.203125 350.359375 C 511.089844 349.960938 509.992188 349.539062 508.902344 349.085938 C 507.8125 348.636719 506.734375 348.160156 505.667969 347.65625 C 504.597656 347.152344 503.546875 346.621094 502.503906 346.066406 C 501.464844 345.511719 500.4375 344.929688 499.425781 344.324219 C 498.414062 343.71875 497.417969 343.089844 496.4375 342.433594 C 495.457031 341.777344 494.492188 341.101562 493.546875 340.398438 C 492.597656 339.695312 491.667969 338.972656 490.757812 338.222656 C 489.84375 337.476562 488.949219 336.707031 488.078125 335.917969 C 487.203125 335.125 486.347656 334.3125 485.515625 333.480469 C 484.679688 332.644531 483.867188 331.792969 483.074219 330.917969 C 482.28125 330.046875 481.511719 329.15625 480.761719 328.242188 C 480.015625 327.332031 479.289062 326.40625 478.585938 325.457031 C 477.882812 324.511719 477.203125 323.546875 476.550781 322.570312 C 475.894531 321.589844 475.261719 320.59375 474.65625 319.582031 C 474.050781 318.570312 473.46875 317.546875 472.914062 316.507812 C 472.355469 315.46875 471.824219 314.417969 471.320312 313.351562 C 470.816406 312.285156 470.339844 311.210938 469.886719 310.121094 C 469.4375 309.03125 469.011719 307.933594 468.613281 306.824219 C 468.21875 305.714844 467.847656 304.59375 467.503906 303.46875 C 467.164062 302.339844 466.847656 301.203125 466.5625 300.0625 C 466.273438 298.917969 466.015625 297.769531 465.785156 296.613281 C 465.554688 295.457031 465.355469 294.296875 465.179688 293.132812 C 465.007812 291.964844 464.863281 290.796875 464.746094 289.625 C 464.632812 288.453125 464.546875 287.277344 464.488281 286.101562 C 464.429688 284.921875 464.402344 283.746094 464.402344 282.566406 C 464.402344 281.386719 464.429688 280.210938 464.488281 279.035156 C 464.546875 277.855469 464.632812 276.683594 464.746094 275.507812 C 464.863281 274.335938 465.007812 273.167969 465.179688 272.003906 C 465.355469 270.835938 465.554688 269.675781 465.785156 268.519531 C 466.015625 267.363281 466.273438 266.214844 466.5625 265.070312 C 466.847656 263.929688 467.164062 262.792969 467.503906 261.667969 C 467.847656 260.539062 468.21875 259.421875 468.613281 258.308594 C 469.011719 257.199219 469.4375 256.101562 469.886719 255.011719 C 470.339844 253.925781 470.816406 252.847656 471.320312 251.78125 C 471.824219 250.71875 472.355469 249.664062 472.914062 248.625 C 473.46875 247.585938 474.050781 246.5625 474.65625 245.550781 C 475.261719 244.539062 475.894531 243.546875 476.550781 242.566406 C 477.203125 241.585938 477.882812 240.621094 478.585938 239.675781 C 479.289062 238.730469 480.015625 237.800781 480.761719 236.890625 C 481.511719 235.980469 482.28125 235.085938 483.074219 234.214844 C 483.867188 233.339844 484.679688 232.488281 485.515625 231.65625 C 486.347656 230.820312 487.203125 230.007812 488.078125 229.21875 C 488.949219 228.425781 489.84375 227.65625 490.757812 226.910156 C 491.667969 226.160156 492.597656 225.4375 493.546875 224.734375 C 494.492188 224.035156 495.457031 223.355469 496.4375 222.699219 C 497.417969 222.046875 498.414062 221.414062 499.425781 220.808594 C 500.4375 220.203125 501.464844 219.625 502.503906 219.066406 C 503.546875 218.511719 504.597656 217.984375 505.667969 217.480469 C 506.734375 216.976562 507.8125 216.496094 508.902344 216.046875 C 509.992188 215.597656 511.089844 215.171875 512.203125 214.773438 C 513.3125 214.378906 514.433594 214.007812 515.5625 213.667969 C 516.691406 213.324219 517.828125 213.011719 518.972656 212.722656 C 520.117188 212.4375 521.265625 212.179688 522.421875 211.949219 C 523.582031 211.71875 524.742188 211.519531 525.910156 211.34375 C 527.078125 211.171875 528.246094 211.027344 529.421875 210.914062 C 530.59375 210.796875 531.769531 210.710938 532.949219 210.652344 C 534.128906 210.59375 535.308594 210.566406 536.488281 210.566406 C 537.667969 210.566406 538.84375 210.59375 540.023438 210.652344 C 541.203125 210.710938 542.378906 210.796875 543.550781 210.914062 C 544.726562 211.027344 545.898438 211.171875 547.0625 211.34375 C 548.230469 211.519531 549.394531 211.71875 550.550781 211.949219 C 551.707031 212.179688 552.859375 212.4375 554.003906 212.722656 C 555.148438 213.011719 556.285156 213.324219 557.414062 213.667969 C 558.542969 214.007812 559.660156 214.378906 560.773438 214.773438 C 561.882812 215.171875 562.984375 215.597656 564.074219 216.046875 C 565.164062 216.496094 566.242188 216.976562 567.308594 217.480469 C 568.375 217.984375 569.425781 218.511719 570.46875 219.066406 C 571.507812 219.625 572.535156 220.203125 573.546875 220.808594 C 574.558594 221.414062 575.554688 222.046875 576.535156 222.699219 C 577.515625 223.355469 578.480469 224.035156 579.429688 224.734375 C 580.375 225.4375 581.304688 226.160156 582.21875 226.910156 C 583.128906 227.65625 584.023438 228.425781 584.898438 229.21875 C 585.769531 230.007812 586.625 230.820312 587.460938 231.65625 C 588.292969 232.488281 589.105469 233.339844 589.898438 234.214844 C 590.691406 235.085938 591.460938 235.980469 592.210938 236.890625 C 592.957031 237.800781 593.683594 238.730469 594.386719 239.675781 C 595.089844 240.621094 595.769531 241.585938 596.425781 242.566406 C 597.078125 243.546875 597.710938 244.539062 598.316406 245.550781 C 598.921875 246.5625 599.503906 247.585938 600.0625 248.625 C 600.617188 249.664062 601.148438 250.71875 601.652344 251.78125 C 602.15625 252.847656 602.632812 253.925781 603.085938 255.011719 C 603.539062 256.101562 603.960938 257.199219 604.359375 258.308594 C 604.757812 259.421875 605.125 260.539062 605.46875 261.667969 C 605.8125 262.792969 606.125 263.929688 606.414062 265.070312 C 606.699219 266.214844 606.957031 267.363281 607.1875 268.519531 C 607.417969 269.675781 607.621094 270.835938 607.792969 272.003906 C 607.964844 273.167969 608.109375 274.335938 608.226562 275.507812 C 608.339844 276.683594 608.429688 277.855469 608.484375 279.035156 C 608.542969 280.210938 608.574219 281.386719 608.574219 282.566406 Z M 608.574219 282.566406 " fill-opacity="1" fill-rule="nonzero"/></g><path fill="#f5faf4" d="M 597.84375 272.984375 C 598.160156 274.992188 598.375 277.007812 598.488281 279.039062 C 598.605469 281.066406 598.621094 283.09375 598.539062 285.125 C 598.453125 287.15625 598.269531 289.175781 597.988281 291.1875 C 597.707031 293.199219 597.324219 295.191406 596.847656 297.167969 C 596.367188 299.140625 595.792969 301.085938 595.121094 303.007812 C 594.453125 304.925781 593.691406 306.804688 592.835938 308.648438 C 591.980469 310.492188 591.035156 312.289062 590.003906 314.039062 C 588.972656 315.789062 587.855469 317.484375 586.660156 319.125 C 585.460938 320.769531 584.183594 322.347656 582.828125 323.863281 C 581.476562 325.378906 580.050781 326.824219 578.554688 328.199219 C 577.058594 329.578125 575.496094 330.875 573.871094 332.097656 C 572.25 333.324219 570.570312 334.464844 568.832031 335.519531 C 567.097656 336.578125 565.3125 337.550781 563.480469 338.433594 C 561.648438 339.316406 559.777344 340.105469 557.867188 340.808594 C 555.957031 341.507812 554.019531 342.109375 552.050781 342.621094 C 550.082031 343.128906 548.089844 343.539062 546.082031 343.855469 C 544.070312 344.167969 542.050781 344.382812 540.019531 344.5 C 537.992188 344.613281 535.960938 344.628906 533.925781 344.546875 C 531.894531 344.460938 529.871094 344.28125 527.855469 343.996094 C 525.84375 343.714844 523.847656 343.335938 521.871094 342.855469 C 519.894531 342.378906 517.945312 341.804688 516.023438 341.136719 C 514.105469 340.464844 512.222656 339.703125 510.375 338.851562 C 508.53125 337.996094 506.730469 337.054688 504.976562 336.023438 C 503.226562 334.992188 501.527344 333.878906 499.882812 332.679688 C 498.242188 331.484375 496.660156 330.207031 495.144531 328.855469 C 493.625 327.503906 492.175781 326.082031 490.800781 324.585938 C 489.421875 323.089844 488.121094 321.53125 486.894531 319.910156 C 485.671875 318.289062 484.53125 316.609375 483.46875 314.875 C 482.410156 313.140625 481.4375 311.359375 480.554688 309.53125 C 479.671875 307.699219 478.878906 305.832031 478.179688 303.925781 C 477.476562 302.015625 476.875 300.078125 476.363281 298.113281 C 475.855469 296.148438 475.441406 294.160156 475.128906 292.152344 C 474.8125 290.144531 474.597656 288.128906 474.484375 286.097656 C 474.367188 284.070312 474.351562 282.042969 474.433594 280.011719 C 474.519531 277.980469 474.703125 275.960938 474.984375 273.949219 C 475.265625 271.9375 475.648438 269.945312 476.125 267.96875 C 476.605469 265.996094 477.179688 264.050781 477.851562 262.132812 C 478.519531 260.210938 479.28125 258.332031 480.136719 256.488281 C 480.992188 254.644531 481.9375 252.847656 482.96875 251.097656 C 484 249.347656 485.117188 247.652344 486.3125 246.011719 C 487.511719 244.367188 488.789062 242.789062 490.144531 241.273438 C 491.496094 239.757812 492.921875 238.3125 494.417969 236.9375 C 495.914062 235.558594 497.476562 234.261719 499.101562 233.039062 C 500.722656 231.8125 502.402344 230.671875 504.140625 229.617188 C 505.875 228.558594 507.660156 227.585938 509.492188 226.703125 C 511.324219 225.820312 513.195312 225.03125 515.105469 224.332031 C 517.015625 223.628906 518.953125 223.027344 520.921875 222.515625 C 522.890625 222.007812 524.882812 221.597656 526.890625 221.28125 C 528.902344 220.96875 530.921875 220.753906 532.953125 220.636719 C 534.980469 220.523438 537.015625 220.507812 539.046875 220.589844 C 541.078125 220.675781 543.101562 220.859375 545.117188 221.140625 C 547.128906 221.421875 549.125 221.800781 551.101562 222.28125 C 553.078125 222.757812 555.027344 223.332031 556.949219 224 C 558.867188 224.671875 560.75 225.433594 562.597656 226.285156 C 564.441406 227.140625 566.242188 228.082031 567.996094 229.113281 C 569.746094 230.144531 571.445312 231.257812 573.089844 232.457031 C 574.730469 233.652344 576.3125 234.929688 577.832031 236.28125 C 579.347656 237.632812 580.796875 239.058594 582.171875 240.550781 C 583.550781 242.046875 584.851562 243.605469 586.078125 245.226562 C 587.300781 246.847656 588.441406 248.527344 589.503906 250.261719 C 590.5625 251.996094 591.535156 253.777344 592.417969 255.605469 C 593.300781 257.4375 594.09375 259.304688 594.792969 261.210938 C 595.496094 263.121094 596.097656 265.058594 596.609375 267.023438 C 597.117188 268.992188 597.53125 270.976562 597.84375 272.984375 Z M 597.84375 272.984375 " fill-opacity="1" fill-rule="nonzero"/><path fill="#96a5d4" d="M 538.230469 233.535156 C 538.230469 233.878906 538.164062 234.210938 538.03125 234.53125 C 537.898438 234.851562 537.710938 235.136719 537.464844 235.378906 C 537.21875 235.625 536.9375 235.8125 536.617188 235.945312 C 536.296875 236.078125 535.960938 236.144531 535.613281 236.144531 C 535.269531 236.144531 534.933594 236.078125 534.613281 235.945312 C 534.292969 235.8125 534.011719 235.625 533.765625 235.378906 C 533.519531 235.136719 533.332031 234.851562 533.199219 234.53125 C 533.066406 234.210938 533 233.878906 533 233.535156 C 533 233.1875 533.066406 232.855469 533.199219 232.535156 C 533.332031 232.214844 533.519531 231.929688 533.765625 231.6875 C 534.011719 231.441406 534.292969 231.253906 534.613281 231.121094 C 534.933594 230.988281 535.269531 230.921875 535.613281 230.921875 C 535.960938 230.921875 536.296875 230.988281 536.617188 231.121094 C 536.9375 231.253906 537.21875 231.441406 537.464844 231.6875 C 537.710938 231.929688 537.898438 232.214844 538.03125 232.535156 C 538.164062 232.855469 538.230469 233.1875 538.230469 233.535156 Z M 538.230469 233.535156 " fill-opacity="1" fill-rule="nonzero"/><path fill="#96a5d4" d="M 538.230469 233.535156 C 538.230469 233.878906 538.164062 234.210938 538.03125 234.53125 C 537.898438 234.851562 537.710938 235.136719 537.464844 235.378906 C 537.21875 235.625 536.9375 235.8125 536.617188 235.945312 C 536.296875 236.078125 535.960938 236.144531 535.613281 236.144531 C 535.269531 236.144531 534.933594 236.078125 534.613281 235.945312 C 534.292969 235.8125 534.011719 235.625 533.765625 235.378906 C 533.519531 235.136719 533.332031 234.851562 533.199219 234.53125 C 533.066406 234.210938 533 233.878906 533 233.535156 C 533 233.1875 533.066406 232.855469 533.199219 232.535156 C 533.332031 232.214844 533.519531 231.929688 533.765625 231.6875 C 534.011719 231.441406 534.292969 231.253906 534.613281 231.121094 C 534.933594 230.988281 535.269531 230.921875 535.613281 230.921875 C 535.960938 230.921875 536.296875 230.988281 536.617188 231.121094 C 536.9375 231.253906 537.21875 231.441406 537.464844 231.6875 C 537.710938 231.929688 537.898438 232.214844 538.03125 232.535156 C 538.164062 232.855469 538.230469 233.1875 538.230469 233.535156 Z M 538.230469 233.535156 " fill-opacity="1" fill-rule="nonzero"/><path fill="#96a5d4" d="M 513.800781 240.539062 C 513.800781 240.882812 513.734375 241.21875 513.601562 241.539062 C 513.46875 241.855469 513.28125 242.140625 513.035156 242.382812 C 512.789062 242.628906 512.507812 242.816406 512.1875 242.949219 C 511.867188 243.082031 511.53125 243.148438 511.1875 243.148438 C 510.839844 243.148438 510.507812 243.082031 510.1875 242.949219 C 509.867188 242.816406 509.582031 242.628906 509.335938 242.382812 C 509.09375 242.140625 508.902344 241.855469 508.769531 241.539062 C 508.636719 241.21875 508.570312 240.882812 508.570312 240.539062 C 508.570312 240.191406 508.636719 239.859375 508.769531 239.539062 C 508.902344 239.21875 509.09375 238.9375 509.335938 238.691406 C 509.582031 238.445312 509.867188 238.257812 510.1875 238.125 C 510.507812 237.992188 510.839844 237.925781 511.1875 237.925781 C 511.53125 237.925781 511.867188 237.992188 512.1875 238.125 C 512.507812 238.257812 512.789062 238.445312 513.035156 238.691406 C 513.28125 238.9375 513.46875 239.21875 513.601562 239.539062 C 513.734375 239.859375 513.800781 240.191406 513.800781 240.539062 Z M 513.800781 240.539062 " fill-opacity="1" fill-rule="nonzero"/><path fill="#96a5d4" d="M 496.152344 258.804688 C 496.152344 259.148438 496.085938 259.484375 495.953125 259.804688 C 495.820312 260.125 495.628906 260.40625 495.386719 260.648438 C 495.140625 260.894531 494.855469 261.082031 494.535156 261.214844 C 494.214844 261.347656 493.882812 261.414062 493.535156 261.414062 C 493.191406 261.414062 492.855469 261.347656 492.535156 261.214844 C 492.214844 261.082031 491.933594 260.894531 491.6875 260.648438 C 491.441406 260.40625 491.253906 260.125 491.121094 259.804688 C 490.988281 259.484375 490.921875 259.148438 490.921875 258.804688 C 490.921875 258.457031 490.988281 258.125 491.121094 257.804688 C 491.253906 257.484375 491.441406 257.203125 491.6875 256.957031 C 491.933594 256.710938 492.214844 256.523438 492.535156 256.390625 C 492.855469 256.257812 493.191406 256.191406 493.535156 256.191406 C 493.882812 256.191406 494.214844 256.257812 494.535156 256.390625 C 494.855469 256.523438 495.140625 256.710938 495.386719 256.957031 C 495.628906 257.203125 495.820312 257.484375 495.953125 257.804688 C 496.085938 258.125 496.152344 258.457031 496.152344 258.804688 Z M 496.152344 258.804688 " fill-opacity="1" fill-rule="nonzero"/><path fill="#96a5d4" d="M 490.007812 283.4375 C 490.007812 283.785156 489.941406 284.117188 489.8125 284.4375 C 489.679688 284.757812 489.488281 285.039062 489.242188 285.285156 C 489 285.527344 488.714844 285.71875 488.394531 285.851562 C 488.074219 285.984375 487.742188 286.050781 487.394531 286.050781 C 487.046875 286.050781 486.714844 285.984375 486.394531 285.851562 C 486.074219 285.71875 485.792969 285.527344 485.546875 285.285156 C 485.300781 285.039062 485.113281 284.757812 484.980469 284.4375 C 484.847656 284.117188 484.78125 283.785156 484.78125 283.4375 C 484.78125 283.089844 484.847656 282.757812 484.980469 282.4375 C 485.113281 282.117188 485.300781 281.835938 485.546875 281.589844 C 485.792969 281.347656 486.074219 281.15625 486.394531 281.023438 C 486.714844 280.890625 487.046875 280.824219 487.394531 280.824219 C 487.742188 280.824219 488.074219 280.890625 488.394531 281.023438 C 488.714844 281.15625 489 281.347656 489.242188 281.589844 C 489.488281 281.835938 489.679688 282.117188 489.8125 282.4375 C 489.941406 282.757812 490.007812 283.089844 490.007812 283.4375 Z M 490.007812 283.4375 " fill-opacity="1" fill-rule="nonzero"/><path fill="#96a5d4" d="M 497.023438 307.835938 C 497.023438 308.183594 496.957031 308.515625 496.824219 308.835938 C 496.691406 309.15625 496.5 309.4375 496.257812 309.683594 C 496.011719 309.929688 495.730469 310.117188 495.410156 310.25 C 495.089844 310.382812 494.753906 310.449219 494.40625 310.449219 C 494.0625 310.449219 493.726562 310.382812 493.40625 310.25 C 493.085938 310.117188 492.804688 309.929688 492.558594 309.683594 C 492.3125 309.4375 492.125 309.15625 491.992188 308.835938 C 491.859375 308.515625 491.792969 308.183594 491.792969 307.835938 C 491.792969 307.492188 491.859375 307.15625 491.992188 306.839844 C 492.125 306.519531 492.3125 306.234375 492.558594 305.992188 C 492.804688 305.746094 493.085938 305.558594 493.40625 305.425781 C 493.726562 305.292969 494.0625 305.226562 494.40625 305.226562 C 494.753906 305.226562 495.089844 305.292969 495.410156 305.425781 C 495.730469 305.558594 496.011719 305.746094 496.257812 305.992188 C 496.5 306.234375 496.691406 306.519531 496.824219 306.839844 C 496.957031 307.15625 497.023438 307.492188 497.023438 307.835938 Z M 497.023438 307.835938 " fill-opacity="1" fill-rule="nonzero"/><path fill="#96a5d4" d="M 515.308594 325.464844 C 515.308594 325.8125 515.242188 326.144531 515.109375 326.464844 C 514.976562 326.785156 514.789062 327.070312 514.542969 327.3125 C 514.300781 327.558594 514.015625 327.746094 513.695312 327.878906 C 513.375 328.011719 513.042969 328.078125 512.695312 328.078125 C 512.347656 328.078125 512.015625 328.011719 511.695312 327.878906 C 511.375 327.746094 511.09375 327.558594 510.847656 327.3125 C 510.601562 327.070312 510.414062 326.785156 510.28125 326.464844 C 510.148438 326.144531 510.082031 325.8125 510.082031 325.464844 C 510.082031 325.121094 510.148438 324.789062 510.28125 324.46875 C 510.414062 324.148438 510.601562 323.863281 510.847656 323.621094 C 511.09375 323.375 511.375 323.1875 511.695312 323.054688 C 512.015625 322.921875 512.347656 322.855469 512.695312 322.855469 C 513.042969 322.855469 513.375 322.921875 513.695312 323.054688 C 514.015625 323.1875 514.300781 323.375 514.542969 323.621094 C 514.789062 323.863281 514.976562 324.148438 515.109375 324.46875 C 515.242188 324.789062 515.308594 325.121094 515.308594 325.464844 Z M 515.308594 325.464844 " fill-opacity="1" fill-rule="nonzero"/><path fill="#96a5d4" d="M 539.972656 331.601562 C 539.972656 331.945312 539.90625 332.28125 539.773438 332.601562 C 539.640625 332.917969 539.453125 333.203125 539.207031 333.445312 C 538.960938 333.691406 538.679688 333.878906 538.359375 334.011719 C 538.039062 334.144531 537.703125 334.210938 537.359375 334.210938 C 537.011719 334.210938 536.675781 334.144531 536.355469 334.011719 C 536.035156 333.878906 535.753906 333.691406 535.507812 333.445312 C 535.265625 333.203125 535.074219 332.917969 534.941406 332.601562 C 534.808594 332.28125 534.742188 331.945312 534.742188 331.601562 C 534.742188 331.253906 534.808594 330.921875 534.941406 330.601562 C 535.074219 330.28125 535.265625 330 535.507812 329.753906 C 535.753906 329.507812 536.035156 329.320312 536.355469 329.1875 C 536.675781 329.054688 537.011719 328.988281 537.359375 328.988281 C 537.703125 328.988281 538.039062 329.054688 538.359375 329.1875 C 538.679688 329.320312 538.960938 329.507812 539.207031 329.753906 C 539.453125 330 539.640625 330.28125 539.773438 330.601562 C 539.90625 330.921875 539.972656 331.253906 539.972656 331.601562 Z M 539.972656 331.601562 " fill-opacity="1" fill-rule="nonzero"/><path fill="#96a5d4" d="M 564.402344 324.597656 C 564.402344 324.941406 564.335938 325.277344 564.203125 325.59375 C 564.070312 325.914062 563.882812 326.199219 563.636719 326.441406 C 563.390625 326.6875 563.109375 326.875 562.789062 327.007812 C 562.46875 327.140625 562.132812 327.207031 561.789062 327.207031 C 561.441406 327.207031 561.105469 327.140625 560.785156 327.007812 C 560.464844 326.875 560.183594 326.6875 559.9375 326.441406 C 559.691406 326.199219 559.503906 325.914062 559.371094 325.59375 C 559.238281 325.277344 559.171875 324.941406 559.171875 324.597656 C 559.171875 324.25 559.238281 323.917969 559.371094 323.597656 C 559.503906 323.277344 559.691406 322.996094 559.9375 322.75 C 560.183594 322.503906 560.464844 322.316406 560.785156 322.183594 C 561.105469 322.050781 561.441406 321.984375 561.789062 321.984375 C 562.132812 321.984375 562.46875 322.050781 562.789062 322.183594 C 563.109375 322.316406 563.390625 322.503906 563.636719 322.75 C 563.882812 322.996094 564.070312 323.277344 564.203125 323.597656 C 564.335938 323.917969 564.402344 324.25 564.402344 324.597656 Z M 564.402344 324.597656 " fill-opacity="1" fill-rule="nonzero"/><path fill="#96a5d4" d="M 582.050781 306.328125 C 582.050781 306.675781 581.984375 307.007812 581.851562 307.328125 C 581.71875 307.648438 581.53125 307.933594 581.285156 308.175781 C 581.039062 308.421875 580.757812 308.609375 580.4375 308.742188 C 580.117188 308.875 579.785156 308.941406 579.4375 308.941406 C 579.089844 308.941406 578.757812 308.875 578.4375 308.742188 C 578.117188 308.609375 577.832031 308.421875 577.589844 308.175781 C 577.34375 307.933594 577.152344 307.648438 577.019531 307.328125 C 576.886719 307.007812 576.820312 306.675781 576.820312 306.328125 C 576.820312 305.984375 576.886719 305.652344 577.019531 305.332031 C 577.152344 305.011719 577.34375 304.726562 577.589844 304.484375 C 577.832031 304.238281 578.117188 304.050781 578.4375 303.917969 C 578.757812 303.785156 579.089844 303.71875 579.4375 303.71875 C 579.785156 303.71875 580.117188 303.785156 580.4375 303.917969 C 580.757812 304.050781 581.039062 304.238281 581.285156 304.484375 C 581.53125 304.726562 581.71875 305.011719 581.851562 305.332031 C 581.984375 305.652344 582.050781 305.984375 582.050781 306.328125 Z M 582.050781 306.328125 " fill-opacity="1" fill-rule="nonzero"/><path fill="#96a5d4" d="M 588.191406 281.695312 C 588.191406 282.042969 588.125 282.375 587.992188 282.695312 C 587.863281 283.015625 587.671875 283.296875 587.425781 283.542969 C 587.183594 283.789062 586.898438 283.976562 586.578125 284.109375 C 586.257812 284.242188 585.925781 284.308594 585.578125 284.308594 C 585.230469 284.308594 584.898438 284.242188 584.578125 284.109375 C 584.257812 283.976562 583.976562 283.789062 583.730469 283.542969 C 583.484375 283.296875 583.296875 283.015625 583.164062 282.695312 C 583.03125 282.375 582.964844 282.042969 582.964844 281.695312 C 582.964844 281.351562 583.03125 281.015625 583.164062 280.699219 C 583.296875 280.378906 583.484375 280.09375 583.730469 279.851562 C 583.976562 279.605469 584.257812 279.417969 584.578125 279.285156 C 584.898438 279.152344 585.230469 279.085938 585.578125 279.085938 C 585.925781 279.085938 586.257812 279.152344 586.578125 279.285156 C 586.898438 279.417969 587.183594 279.605469 587.425781 279.851562 C 587.671875 280.09375 587.863281 280.378906 587.992188 280.699219 C 588.125 281.015625 588.191406 281.351562 588.191406 281.695312 Z M 588.191406 281.695312 " fill-opacity="1" fill-rule="nonzero"/><path fill="#96a5d4" d="M 581.179688 257.296875 C 581.179688 257.644531 581.113281 257.976562 580.980469 258.296875 C 580.847656 258.617188 580.660156 258.898438 580.414062 259.144531 C 580.167969 259.386719 579.886719 259.578125 579.566406 259.710938 C 579.246094 259.839844 578.914062 259.90625 578.566406 259.90625 C 578.21875 259.90625 577.886719 259.839844 577.566406 259.710938 C 577.246094 259.578125 576.960938 259.386719 576.71875 259.144531 C 576.472656 258.898438 576.28125 258.617188 576.148438 258.296875 C 576.015625 257.976562 575.949219 257.644531 575.949219 257.296875 C 575.949219 256.949219 576.015625 256.617188 576.148438 256.296875 C 576.28125 255.976562 576.472656 255.695312 576.71875 255.449219 C 576.960938 255.203125 577.246094 255.015625 577.566406 254.882812 C 577.886719 254.75 578.21875 254.683594 578.566406 254.683594 C 578.914062 254.683594 579.246094 254.75 579.566406 254.882812 C 579.886719 255.015625 580.167969 255.203125 580.414062 255.449219 C 580.660156 255.695312 580.847656 255.976562 580.980469 256.296875 C 581.113281 256.617188 581.179688 256.949219 581.179688 257.296875 Z M 581.179688 257.296875 " fill-opacity="1" fill-rule="nonzero"/><path fill="#96a5d4" d="M 562.894531 239.667969 C 562.894531 240.015625 562.828125 240.347656 562.695312 240.667969 C 562.5625 240.988281 562.371094 241.269531 562.125 241.515625 C 561.882812 241.757812 561.597656 241.949219 561.277344 242.082031 C 560.957031 242.214844 560.625 242.277344 560.277344 242.277344 C 559.929688 242.277344 559.597656 242.214844 559.277344 242.082031 C 558.957031 241.949219 558.675781 241.757812 558.429688 241.515625 C 558.183594 241.269531 557.996094 240.988281 557.863281 240.667969 C 557.730469 240.347656 557.664062 240.015625 557.664062 239.667969 C 557.664062 239.320312 557.730469 238.988281 557.863281 238.667969 C 557.996094 238.347656 558.183594 238.066406 558.429688 237.820312 C 558.675781 237.578125 558.957031 237.386719 559.277344 237.253906 C 559.597656 237.121094 559.929688 237.054688 560.277344 237.054688 C 560.625 237.054688 560.957031 237.121094 561.277344 237.253906 C 561.597656 237.386719 561.882812 237.578125 562.125 237.820312 C 562.371094 238.066406 562.5625 238.347656 562.695312 238.667969 C 562.828125 238.988281 562.894531 239.320312 562.894531 239.667969 Z M 562.894531 239.667969 " fill-opacity="1" fill-rule="nonzero"/><path fill="#abc8e9" d="M 549.640625 282.238281 C 549.640625 283.015625 549.5625 283.785156 549.410156 284.550781 C 549.257812 285.3125 549.035156 286.054688 548.734375 286.773438 C 548.4375 287.492188 548.070312 288.175781 547.636719 288.824219 C 547.207031 289.46875 546.714844 290.070312 546.164062 290.621094 C 545.609375 291.171875 545.011719 291.660156 544.363281 292.09375 C 543.714844 292.527344 543.03125 292.890625 542.3125 293.191406 C 541.589844 293.488281 540.847656 293.710938 540.085938 293.863281 C 539.320312 294.015625 538.546875 294.09375 537.769531 294.09375 C 536.988281 294.09375 536.21875 294.015625 535.453125 293.863281 C 534.6875 293.710938 533.945312 293.488281 533.226562 293.191406 C 532.507812 292.890625 531.824219 292.527344 531.175781 292.09375 C 530.527344 291.660156 529.925781 291.171875 529.375 290.621094 C 528.824219 290.070312 528.332031 289.46875 527.898438 288.824219 C 527.46875 288.175781 527.101562 287.492188 526.804688 286.773438 C 526.503906 286.054688 526.28125 285.3125 526.128906 284.550781 C 525.976562 283.785156 525.898438 283.015625 525.898438 282.238281 C 525.898438 281.457031 525.976562 280.6875 526.128906 279.921875 C 526.28125 279.160156 526.503906 278.417969 526.804688 277.699219 C 527.101562 276.980469 527.46875 276.296875 527.898438 275.648438 C 528.332031 275.003906 528.824219 274.402344 529.375 273.851562 C 529.925781 273.304688 530.527344 272.8125 531.175781 272.378906 C 531.824219 271.945312 532.507812 271.582031 533.226562 271.285156 C 533.945312 270.984375 534.6875 270.761719 535.453125 270.609375 C 536.21875 270.457031 536.988281 270.382812 537.769531 270.382812 C 538.546875 270.382812 539.320312 270.457031 540.085938 270.609375 C 540.847656 270.761719 541.589844 270.984375 542.3125 271.285156 C 543.03125 271.582031 543.714844 271.945312 544.363281 272.378906 C 545.011719 272.8125 545.609375 273.304688 546.164062 273.851562 C 546.714844 274.402344 547.207031 275.003906 547.636719 275.648438 C 548.070312 276.296875 548.4375 276.980469 548.734375 277.699219 C 549.035156 278.417969 549.257812 279.160156 549.410156 279.921875 C 549.5625 280.6875 549.640625 281.457031 549.640625 282.238281 Z M 549.640625 282.238281 " fill-opacity="1" fill-rule="nonzero"/><path fill="#96a5d4" d="M 537.535156 287.492188 L 529.363281 279.328125 C 528.777344 278.746094 528.777344 277.796875 529.363281 277.214844 C 529.945312 276.628906 530.894531 276.628906 531.480469 277.214844 L 537.535156 283.261719 L 561.976562 258.851562 C 562.5625 258.265625 563.511719 258.265625 564.09375 258.851562 C 564.679688 259.433594 564.679688 260.382812 564.09375 260.964844 Z M 537.535156 287.492188 " fill-opacity="1" fill-rule="nonzero"/><path fill="#231f20" d="M 462.4375 221.914062 C 461.308594 221.914062 460.226562 222.136719 459.226562 222.546875 C 458.097656 223.007812 456.90625 223.320312 455.6875 223.289062 C 455.292969 223.28125 454.886719 223.316406 454.476562 223.398438 C 452.15625 223.875 450.351562 225.84375 450.121094 228.195312 C 449.871094 230.71875 451.34375 232.933594 453.5 233.808594 C 454.355469 238.3125 458.03125 241.699219 462.4375 241.699219 C 467.476562 241.699219 471.5625 237.269531 471.5625 231.804688 C 471.5625 226.34375 467.476562 221.914062 462.4375 221.914062 Z M 462.4375 221.914062 " fill-opacity="1" fill-rule="nonzero"/><path fill="#f8b6bf" d="M 467.355469 239.882812 C 466.167969 239.253906 465.773438 237.828125 466.316406 236.695312 C 467.382812 236.136719 468.113281 235.019531 468.113281 233.730469 C 468.113281 231.882812 466.613281 230.382812 464.761719 230.382812 C 462.90625 230.382812 461.40625 231.882812 461.40625 233.730469 C 461.40625 233.792969 461.414062 233.855469 461.417969 233.921875 L 461.304688 234.007812 C 459.714844 234.421875 458.285156 232.9375 458.765625 231.371094 L 459.0625 230.394531 C 458.777344 227.90625 457.242188 226.890625 454.433594 227.375 L 454.125 227.703125 C 453.128906 228.75 452.582031 230.144531 452.601562 231.589844 L 452.640625 234.058594 L 450.644531 236.445312 C 450.191406 236.980469 450.421875 237.800781 451.085938 238.027344 L 452.269531 238.429688 L 453.167969 242.851562 C 453.421875 244.117188 454.621094 244.960938 455.898438 244.773438 L 458.03125 244.464844 L 459.085938 246.632812 L 468.113281 242.492188 L 467.703125 241.300781 Z M 467.355469 239.882812 " fill-opacity="1" fill-rule="nonzero"/><path fill="#f8b6bf" d="M 435.09375 278.210938 L 423.683594 277.515625 C 423.40625 277.496094 423.128906 277.539062 422.867188 277.640625 L 411.777344 281.875 C 411.46875 281.992188 411.199219 282.210938 411.003906 282.5 L 409.210938 285.152344 C 409.140625 285.257812 409.207031 285.410156 409.332031 285.414062 C 409.960938 285.433594 410.566406 285.167969 411.003906 284.679688 L 412.832031 282.648438 L 411.460938 284.988281 C 411.226562 285.382812 411.480469 285.898438 411.914062 285.917969 L 414.007812 286.003906 C 414.5 286.023438 414.976562 285.796875 415.296875 285.390625 L 416.164062 284.289062 C 416.546875 283.804688 417.128906 283.5625 417.714844 283.648438 L 421.183594 284.148438 C 422.171875 284.289062 423.140625 283.792969 423.664062 282.878906 L 424.695312 281.074219 L 435.09375 283.515625 " fill-opacity="1" fill-rule="nonzero"/><path fill="#abc8e9" d="M 455.691406 256.574219 L 446.390625 272.6875 C 445.683594 273.910156 444.34375 274.71875 442.84375 274.828125 L 425.214844 276.09375 L 424.816406 284.574219 L 446.546875 285.347656 C 448.398438 285.414062 450.160156 284.578125 451.179688 283.148438 L 466.675781 261.476562 L 467.074219 256.417969 C 467.21875 254.550781 465.722656 252.925781 463.699219 252.757812 L 463.378906 252.734375 C 460.21875 252.46875 457.1875 253.984375 455.691406 256.574219 Z M 455.691406 256.574219 " fill-opacity="1" fill-rule="nonzero"/><g clip-path="url(#d3387ddea0)"><path fill="#f5faf4" d="M 487.726562 367.191406 L 475.972656 320.007812 C 480.242188 316.972656 483.183594 312.273438 483.78125 306.855469 L 487.332031 274.695312 C 488.070312 268.03125 482.980469 262.09375 476.097656 261.585938 L 466.277344 260.863281 L 453.914062 291.953125 L 424.875 308.226562 L 427.128906 321.902344 C 427.109375 321.898438 427.089844 321.886719 427.066406 321.882812 L 422.984375 321.117188 C 421.957031 320.925781 420.976562 321.621094 420.8125 322.648438 L 413.441406 369.171875 C 413.261719 370.296875 414.132812 371.3125 415.273438 371.3125 L 415.648438 371.3125 C 416.503906 371.3125 417.246094 370.726562 417.449219 369.894531 L 428.117188 325.824219 L 448.335938 324.628906 L 459.070312 375.65625 C 459.269531 376.613281 460.015625 377.285156 460.871094 377.285156 L 461.246094 377.285156 C 462.386719 377.285156 463.253906 376.117188 463.078125 374.820312 L 456.101562 324.167969 L 465.734375 323.597656 C 466.878906 323.527344 467.996094 323.363281 469.078125 323.109375 L 483.832031 368.449219 C 484.132812 369.378906 484.945312 369.96875 485.796875 369.878906 L 486.171875 369.839844 C 487.304688 369.71875 488.042969 368.460938 487.726562 367.191406 Z M 487.726562 367.191406 " fill-opacity="1" fill-rule="nonzero"/><path fill="#96a5d4" d="M 487.726562 367.191406 L 475.972656 320.007812 C 480.242188 316.972656 483.183594 312.273438 483.78125 306.855469 L 487.332031 274.695312 C 488.070312 268.03125 482.980469 262.09375 476.097656 261.585938 L 466.277344 260.863281 L 453.914062 291.953125 L 424.875 308.226562 L 427.128906 321.902344 C 427.109375 321.898438 427.089844 321.886719 427.066406 321.882812 L 422.984375 321.117188 C 421.957031 320.925781 420.976562 321.621094 420.8125 322.648438 L 413.441406 369.171875 C 413.261719 370.296875 414.132812 371.3125 415.273438 371.3125 L 415.648438 371.3125 C 416.503906 371.3125 417.246094 370.726562 417.449219 369.894531 L 428.117188 325.824219 L 448.335938 324.628906 L 459.070312 375.65625 C 459.269531 376.613281 460.015625 377.285156 460.871094 377.285156 L 461.246094 377.285156 C 462.386719 377.285156 463.253906 376.117188 463.078125 374.820312 L 456.101562 324.167969 L 465.734375 323.597656 C 466.878906 323.527344 467.996094 323.363281 469.078125 323.109375 L 483.832031 368.449219 C 484.132812 369.378906 484.945312 369.96875 485.796875 369.878906 L 486.171875 369.839844 C 487.304688 369.71875 488.042969 368.460938 487.726562 367.191406 Z M 487.726562 367.191406 " fill-opacity="1" fill-rule="nonzero"/><path fill="#231f20" d="M 487.726562 367.191406 L 475.972656 320.007812 C 480.242188 316.972656 483.183594 312.273438 483.78125 306.855469 L 487.332031 274.695312 C 488.070312 268.03125 482.980469 262.09375 476.097656 261.585938 L 466.277344 260.863281 L 453.914062 291.953125 L 424.875 308.226562 L 427.128906 321.902344 C 427.109375 321.898438 427.089844 321.886719 427.066406 321.882812 L 422.984375 321.117188 C 421.957031 320.925781 420.976562 321.621094 420.8125 322.648438 L 413.441406 369.171875 C 413.261719 370.296875 414.132812 371.3125 415.273438 371.3125 L 415.648438 371.3125 C 416.503906 371.3125 417.246094 370.726562 417.449219 369.894531 L 428.117188 325.824219 L 448.335938 324.628906 L 459.070312 375.65625 C 459.269531 376.613281 460.015625 377.285156 460.871094 377.285156 L 461.246094 377.285156 C 462.386719 377.285156 463.253906 376.117188 463.078125 374.820312 L 456.101562 324.167969 L 465.734375 323.597656 C 466.878906 323.527344 467.996094 323.363281 469.078125 323.109375 L 483.832031 368.449219 C 484.132812 369.378906 484.945312 369.96875 485.796875 369.878906 L 486.171875 369.839844 C 487.304688 369.71875 488.042969 368.460938 487.726562 367.191406 Z M 487.726562 367.191406 " fill-opacity="0.3" fill-rule="nonzero"/></g><path fill="#f8b6bf" d="M 436.765625 366.132812 L 436.140625 352.921875 L 427 352.46875 L 429.707031 368.859375 Z M 436.765625 366.132812 " fill-opacity="1" fill-rule="nonzero"/><path fill="#abc8e9" d="M 415.378906 370.105469 C 415.492188 370.03125 415.617188 369.96875 415.757812 369.917969 L 419.988281 368.34375 C 422.746094 367.320312 425.261719 365.789062 427.398438 363.824219 L 427.859375 363.398438 C 428.546875 362.773438 429.671875 363.007812 430.066406 363.851562 L 431.558594 367.070312 L 434.792969 363.800781 C 435.765625 362.824219 437.410156 362.898438 438.335938 363.960938 L 438.402344 364.039062 C 439.089844 364.832031 439.628906 365.730469 440 366.695312 L 440.703125 368.53125 L 441.367188 370.277344 C 441.96875 371.84375 440.933594 373.523438 439.242188 373.71875 L 429.859375 374.8125 C 426.28125 376.75 422.777344 376.84375 419.339844 375.382812 C 418.855469 375.179688 418.339844 375.078125 417.820312 374.992188 C 417.519531 374.949219 417.226562 374.871094 416.945312 374.765625 C 416.03125 374.425781 415.234375 373.789062 414.714844 372.9375 C 414.097656 371.9375 414.425781 370.691406 415.378906 370.105469 Z M 415.378906 370.105469 " fill-opacity="1" fill-rule="nonzero"/><path fill="#231f20" d="M 415.378906 370.105469 L 416.671875 371.292969 C 418.425781 372.910156 420.777344 373.714844 423.15625 373.523438 L 427.964844 373.132812 C 429.183594 373.03125 430.371094 372.6875 431.449219 372.117188 L 436.675781 369.371094 C 437.914062 368.722656 439.308594 368.429688 440.703125 368.53125 L 441.367188 370.277344 C 441.96875 371.84375 440.933594 373.523438 439.242188 373.71875 L 429.859375 374.8125 C 426.28125 376.75 422.777344 376.84375 419.339844 375.382812 C 418.855469 375.179688 418.339844 375.078125 417.820312 374.992188 C 417.519531 374.949219 417.226562 374.871094 416.945312 374.765625 C 416.03125 374.425781 415.234375 373.789062 414.714844 372.9375 C 414.097656 371.9375 414.425781 370.691406 415.378906 370.105469 Z M 415.378906 370.105469 " fill-opacity="1" fill-rule="nonzero"/><path fill="#abc8e9" d="M 467.03125 302.285156 L 464.738281 285.445312 L 454.03125 286.648438 L 442.089844 285.382812 L 440.765625 291.710938 L 413.097656 302.984375 C 407.6875 305.191406 403.46875 309.597656 401.503906 315.09375 L 391.128906 344.074219 C 390.199219 346.683594 391.359375 349.492188 393.679688 350.757812 L 391.417969 357.972656 C 391.132812 357.835938 390.800781 357.792969 390.46875 357.886719 L 389.863281 358.0625 C 387.070312 358.851562 384.136719 359.09375 381.210938 358.765625 L 376.722656 358.265625 C 376.578125 358.25 376.4375 358.25 376.300781 358.265625 C 375.1875 358.359375 374.332031 359.328125 374.429688 360.496094 C 374.511719 361.488281 374.933594 362.414062 375.597656 363.132812 C 375.800781 363.351562 376.03125 363.550781 376.277344 363.726562 C 376.703125 364.035156 377.121094 364.359375 377.460938 364.757812 C 379.871094 367.609375 383.039062 369.101562 387.109375 368.976562 L 395.980469 372.222656 C 397.582031 372.808594 399.261719 371.773438 399.429688 370.101562 L 399.621094 368.246094 L 399.820312 366.289062 C 399.925781 365.261719 399.847656 364.21875 399.59375 363.203125 L 399.566406 363.101562 C 399.398438 362.433594 398.96875 361.898438 398.417969 361.578125 L 402.195312 353.128906 L 402.746094 353.269531 C 405.320312 353.933594 407.996094 352.664062 409.128906 350.253906 C 412.671875 342.734375 414.65625 334.441406 415.09375 325.390625 L 421.605469 350.558594 C 422.019531 352.148438 423.453125 353.257812 425.097656 353.257812 L 436.277344 353.257812 C 438.453125 353.257812 440.144531 351.347656 439.859375 349.195312 C 438.601562 339.667969 435.714844 330.890625 430.367188 323.242188 C 429.46875 321.953125 430.429688 320.1875 432 320.21875 C 440.140625 320.402344 447.757812 320.035156 454.6875 318.949219 C 462.554688 317.710938 468.101562 310.167969 467.03125 302.285156 Z M 467.03125 302.285156 " fill-opacity="1" fill-rule="nonzero"/><path fill="#f8b6bf" d="M 397.191406 364.332031 L 402.582031 352.257812 L 394.625 347.738281 L 389.65625 363.597656 Z M 397.191406 364.332031 " fill-opacity="1" fill-rule="nonzero"/><path fill="#abc8e9" d="M 376.300781 358.265625 C 376.4375 358.25 376.578125 358.25 376.722656 358.265625 L 381.210938 358.765625 C 384.136719 359.09375 387.070312 358.851562 389.863281 358.0625 L 390.46875 357.886719 C 391.363281 357.636719 392.261719 358.351562 392.234375 359.285156 L 392.117188 362.828125 L 396.476562 361.367188 C 397.785156 360.929688 399.222656 361.734375 399.566406 363.101562 L 399.59375 363.203125 C 399.847656 364.21875 399.925781 365.261719 399.820312 366.289062 L 399.621094 368.246094 L 399.429688 370.101562 C 399.261719 371.773438 397.582031 372.808594 395.980469 372.222656 L 387.109375 368.976562 C 383.039062 369.101562 379.871094 367.609375 377.460938 364.757812 C 377.121094 364.359375 376.703125 364.035156 376.277344 363.726562 C 376.03125 363.550781 375.800781 363.351562 375.597656 363.132812 C 374.933594 362.414062 374.511719 361.488281 374.429688 360.496094 C 374.332031 359.328125 375.1875 358.359375 376.300781 358.265625 Z M 376.300781 358.265625 " fill-opacity="1" fill-rule="nonzero"/><path fill="#231f20" d="M 376.300781 358.265625 L 376.917969 359.90625 C 377.757812 362.140625 379.496094 363.917969 381.707031 364.8125 L 386.175781 366.628906 C 387.308594 367.085938 388.523438 367.3125 389.746094 367.289062 L 395.648438 367.183594 C 397.046875 367.160156 398.421875 367.527344 399.621094 368.246094 L 399.429688 370.101562 C 399.261719 371.773438 397.582031 372.808594 395.980469 372.222656 L 387.109375 368.976562 C 383.039062 369.101562 379.871094 367.609375 377.460938 364.757812 C 377.121094 364.359375 376.703125 364.035156 376.277344 363.726562 C 376.03125 363.550781 375.800781 363.351562 375.597656 363.132812 C 374.933594 362.414062 374.511719 361.488281 374.429688 360.496094 C 374.332031 359.328125 375.1875 358.359375 376.300781 358.265625 Z M 376.300781 358.265625 " fill-opacity="1" fill-rule="nonzero"/><path fill="#96a5d4" d="M 472.214844 250.105469 L 469.671875 243.203125 C 469.351562 242.332031 468.378906 241.894531 467.511719 242.230469 L 459.296875 245.730469 C 458.015625 246.277344 457.179688 247.539062 457.179688 248.933594 L 457.179688 249.929688 C 452.929688 250.542969 449.308594 253.257812 448.207031 256.875 L 444.007812 274.589844 C 443.636719 274.714844 443.25 274.796875 442.84375 274.828125 L 425.214844 276.09375 L 424.816406 284.574219 L 440.839844 285.144531 L 440.792969 285.820312 L 441.335938 285.863281 L 440.433594 289.675781 C 439.746094 292.589844 440.679688 295.535156 442.96875 297.667969 L 445.550781 300.070312 C 450.257812 304.445312 456.347656 307.542969 463.105469 309.097656 C 468.398438 310.316406 473.601562 306.71875 474.402344 301.351562 L 480.648438 259.414062 C 481.34375 254.75 477.578125 250.722656 472.214844 250.105469 Z M 472.214844 250.105469 " fill-opacity="1" fill-rule="nonzero"/><path fill="#231f20" d="M 444.011719 274.589844 L 443.546875 276.546875 L 441.425781 276.636719 L 440.84375 285.140625 L 424.816406 284.578125 L 425.214844 276.09375 L 442.847656 274.824219 C 443.25 274.800781 443.640625 274.71875 444.011719 274.589844 Z M 444.011719 274.589844 " fill-opacity="0.3" fill-rule="nonzero"/><path fill="#231f20" d="M 469.773438 256.636719 L 460.796875 273.753906 C 460.113281 275.054688 458.871094 275.878906 457.503906 275.9375 L 441.429688 276.640625 L 440.792969 285.820312 L 460.53125 287.484375 C 462.214844 287.628906 463.84375 286.789062 464.820312 285.277344 L 472.535156 275.28125 C 476.660156 269.941406 479.28125 263.597656 480.132812 256.90625 C 480.324219 254.886719 479.015625 253.070312 477.179688 252.808594 L 476.890625 252.769531 C 474.023438 252.363281 471.214844 253.890625 469.773438 256.636719 Z M 469.773438 256.636719 " fill-opacity="0.3" fill-rule="nonzero"/><path fill="#f5faf4" d="M 515.625 289.679688 L 358.339844 289.679688 C 357.304688 289.679688 356.460938 290.515625 356.460938 291.554688 L 356.460938 293.492188 C 356.460938 294.527344 357.304688 295.367188 358.339844 295.367188 L 365.007812 295.367188 L 365.007812 374.605469 L 368.675781 374.605469 L 368.675781 295.367188 L 504.523438 295.367188 L 504.523438 374.605469 L 508.1875 374.605469 L 508.1875 295.367188 L 515.625 295.367188 C 516.660156 295.367188 517.5 294.527344 517.5 293.492188 L 517.5 291.554688 C 517.5 290.515625 516.660156 289.679688 515.625 289.679688 Z M 515.625 289.679688 " fill-opacity="1" fill-rule="nonzero"/><path fill="#231f20" d="M 515.625 289.679688 L 358.339844 289.679688 C 357.304688 289.679688 356.460938 290.515625 356.460938 291.554688 L 356.460938 293.492188 C 356.460938 294.527344 357.304688 295.367188 358.339844 295.367188 L 365.007812 295.367188 L 365.007812 374.605469 L 368.675781 374.605469 L 368.675781 295.367188 L 504.523438 295.367188 L 504.523438 374.605469 L 508.1875 374.605469 L 508.1875 295.367188 L 515.625 295.367188 C 516.660156 295.367188 517.5 294.527344 517.5 293.492188 L 517.5 291.554688 C 517.5 290.515625 516.660156 289.679688 515.625 289.679688 Z M 515.625 289.679688 " fill-opacity="0.3" fill-rule="nonzero"/><path fill="#231f20" d="M 443.871094 287.199219 L 420.796875 287.199219 L 413.394531 266.804688 C 412.925781 265.515625 411.503906 264.472656 410.214844 264.472656 L 380.964844 264.472656 C 379.675781 264.472656 379.011719 265.515625 379.476562 266.804688 L 386.933594 287.347656 C 387.398438 288.632812 388.824219 289.679688 390.113281 289.679688 L 445.59375 289.679688 C 445.789062 289.679688 445.949219 289.519531 445.949219 289.324219 L 445.949219 289.273438 C 445.949219 288.128906 445.019531 287.199219 443.871094 287.199219 Z M 443.871094 287.199219 " fill-opacity="1" fill-rule="nonzero"/><path fill="#f5faf4" d="M 401.980469 274.902344 C 402.394531 275.25 402.746094 275.636719 403.035156 276.0625 C 403.324219 276.492188 403.53125 276.929688 403.652344 277.378906 C 403.773438 277.828125 403.804688 278.25 403.738281 278.648438 C 403.675781 279.046875 403.523438 279.386719 403.28125 279.675781 C 403.042969 279.964844 402.730469 280.175781 402.351562 280.308594 C 401.96875 280.445312 401.546875 280.492188 401.085938 280.449219 C 400.621094 280.410156 400.152344 280.285156 399.679688 280.078125 C 399.207031 279.867188 398.761719 279.59375 398.347656 279.246094 C 397.933594 278.902344 397.582031 278.515625 397.292969 278.085938 C 397.003906 277.65625 396.796875 277.21875 396.675781 276.773438 C 396.554688 276.324219 396.523438 275.902344 396.589844 275.503906 C 396.652344 275.105469 396.804688 274.761719 397.046875 274.476562 C 397.285156 274.1875 397.597656 273.976562 397.976562 273.839844 C 398.359375 273.707031 398.78125 273.660156 399.242188 273.699219 C 399.707031 273.742188 400.171875 273.867188 400.648438 274.074219 C 401.121094 274.28125 401.566406 274.558594 401.980469 274.902344 Z M 401.980469 274.902344 " fill-opacity="1" fill-rule="nonzero"/><path fill="#231f20" d="M 444.816406 295.363281 C 444.109375 296.472656 443.074219 297.34375 441.84375 297.84375 L 420.683594 306.445312 C 419.125 306.984375 417.761719 307.839844 416.640625 308.917969 C 416.539062 309.007812 416.441406 309.109375 416.339844 309.214844 C 416.335938 309.21875 416.335938 309.21875 416.335938 309.21875 C 416.144531 309.417969 415.957031 309.628906 415.777344 309.84375 C 415.144531 310.605469 414.625 311.449219 414.222656 312.339844 C 414.105469 312.59375 414 312.851562 413.914062 313.113281 C 413.863281 313.242188 413.8125 313.378906 413.777344 313.507812 C 413.644531 313.886719 413.546875 314.273438 413.472656 314.664062 C 413.460938 314.714844 413.449219 314.765625 413.441406 314.808594 C 413.269531 315.699219 413.207031 316.613281 413.269531 317.542969 C 413.269531 317.550781 413.269531 317.550781 413.269531 317.550781 C 413.3125 318.242188 413.421875 318.929688 413.597656 319.621094 L 414.929688 324.757812 L 415.097656 325.390625 C 414.65625 334.441406 412.671875 342.734375 409.128906 350.253906 C 407.996094 352.660156 405.320312 353.9375 402.742188 353.269531 L 402.195312 353.125 L 398.417969 361.578125 C 398.96875 361.902344 399.394531 362.433594 399.570312 363.101562 L 399.59375 363.199219 C 399.847656 364.222656 399.921875 365.261719 399.824219 366.289062 L 399.621094 368.242188 L 399.425781 370.101562 C 399.261719 371.777344 397.582031 372.804688 395.984375 372.222656 L 387.109375 368.980469 C 383.039062 369.097656 379.867188 367.613281 377.457031 364.757812 C 377.117188 364.355469 376.703125 364.035156 376.28125 363.726562 C 376.027344 363.554688 375.804688 363.347656 375.597656 363.132812 C 374.9375 362.414062 374.515625 361.484375 374.429688 360.496094 C 374.328125 359.328125 375.183594 358.359375 376.300781 358.261719 C 376.433594 358.25 376.578125 358.25 376.71875 358.269531 L 381.210938 358.761719 C 384.136719 359.089844 387.074219 358.851562 389.859375 358.0625 L 390.46875 357.882812 C 390.804688 357.796875 391.132812 357.835938 391.417969 357.972656 L 393.679688 350.753906 C 391.359375 349.492188 390.195312 346.683594 391.132812 344.070312 L 401.503906 315.09375 C 403.46875 309.597656 407.6875 305.191406 413.101562 302.980469 L 431.800781 295.363281 Z M 444.816406 295.363281 " fill-opacity="0.3" fill-rule="nonzero"/><path fill="#f8b6bf" d="M 441.328125 278.097656 L 441.050781 282.121094 L 439.773438 281.824219 L 438.644531 283.792969 C 438.074219 284.789062 437.015625 285.328125 435.9375 285.171875 L 432.152344 284.628906 C 431.515625 284.539062 430.882812 284.800781 430.460938 285.332031 L 429.519531 286.527344 C 429.167969 286.972656 428.652344 287.21875 428.105469 287.195312 L 425.828125 287.109375 C 425.351562 287.082031 425.078125 286.519531 425.332031 286.09375 L 426.832031 283.539062 L 424.828125 285.757812 C 424.351562 286.285156 423.695312 286.578125 423.007812 286.558594 C 422.871094 286.550781 422.796875 286.382812 422.878906 286.265625 L 424.828125 283.378906 C 425.046875 283.0625 425.335938 282.828125 425.679688 282.695312 L 437.777344 278.074219 C 438.0625 277.96875 438.367188 277.917969 438.671875 277.9375 Z M 441.328125 278.097656 " fill-opacity="1" fill-rule="nonzero"/></svg>