<svg xmlns="http://www.w3.org/2000/svg" xmlns:xlink="http://www.w3.org/1999/xlink" width="1280" zoomAndPan="magnify" viewBox="0 0 960 540.000001" height="720" preserveAspectRatio="xMidYMid meet" version="1.0"><defs><g/><clipPath id="47b3ac25ff"><path d="M 0.886719 0 L 959.113281 0 L 959.113281 539 L 0.886719 539 Z M 0.886719 0 " clip-rule="nonzero"/></clipPath><radialGradient gradientTransform="matrix(1, 0, 0, 1, 0.887245, 0.000019963)" gradientUnits="userSpaceOnUse" r="1099.417599" cx="0" id="8ce82dd244" cy="0" fx="0" fy="0"><stop stop-opacity="1" stop-color="rgb(100%, 48.712158%, 34.919739%)" offset="0"/><stop stop-opacity="1" stop-color="rgb(100%, 48.994446%, 34.968567%)" offset="0.0078125"/><stop stop-opacity="1" stop-color="rgb(100%, 49.334717%, 35.028076%)" offset="0.0195312"/><stop stop-opacity="1" stop-color="rgb(100%, 49.674988%, 35.087585%)" offset="0.03125"/><stop stop-opacity="1" stop-color="rgb(100%, 50.015259%, 35.147095%)" offset="0.0429688"/><stop stop-opacity="1" stop-color="rgb(100%, 50.354004%, 35.20813%)" offset="0.0546875"/><stop stop-opacity="1" stop-color="rgb(100%, 50.694275%, 35.267639%)" offset="0.0664062"/><stop stop-opacity="1" stop-color="rgb(100%, 51.034546%, 35.327148%)" offset="0.078125"/><stop stop-opacity="1" stop-color="rgb(100%, 51.374817%, 35.386658%)" offset="0.0898438"/><stop stop-opacity="1" stop-color="rgb(100%, 51.713562%, 35.446167%)" offset="0.101562"/><stop stop-opacity="1" stop-color="rgb(100%, 52.053833%, 35.505676%)" offset="0.113281"/><stop stop-opacity="1" stop-color="rgb(100%, 52.394104%, 35.566711%)" offset="0.125"/><stop stop-opacity="1" stop-color="rgb(100%, 52.732849%, 35.626221%)" offset="0.136719"/><stop stop-opacity="1" stop-color="rgb(100%, 53.07312%, 35.68573%)" offset="0.148438"/><stop stop-opacity="1" stop-color="rgb(100%, 53.413391%, 35.745239%)" offset="0.160156"/><stop stop-opacity="1" stop-color="rgb(100%, 53.753662%, 35.804749%)" offset="0.171875"/><stop stop-opacity="1" stop-color="rgb(100%, 54.092407%, 35.864258%)" offset="0.183594"/><stop stop-opacity="1" stop-color="rgb(100%, 54.432678%, 35.925293%)" offset="0.195312"/><stop stop-opacity="1" stop-color="rgb(100%, 54.772949%, 35.984802%)" offset="0.207031"/><stop stop-opacity="1" stop-color="rgb(100%, 55.111694%, 36.044312%)" offset="0.21875"/><stop stop-opacity="1" stop-color="rgb(100%, 55.451965%, 36.103821%)" offset="0.230469"/><stop stop-opacity="1" stop-color="rgb(100%, 55.792236%, 36.16333%)" offset="0.242188"/><stop stop-opacity="1" stop-color="rgb(100%, 56.07605%, 36.213684%)" offset="0.253906"/><stop stop-opacity="1" stop-color="rgb(100%, 56.30188%, 36.253357%)" offset="0.261719"/><stop stop-opacity="1" stop-color="rgb(100%, 56.529236%, 36.29303%)" offset="0.269531"/><stop stop-opacity="1" stop-color="rgb(100%, 56.755066%, 36.334229%)" offset="0.277344"/><stop stop-opacity="1" stop-color="rgb(100%, 56.982422%, 36.373901%)" offset="0.285156"/><stop stop-opacity="1" stop-color="rgb(100%, 57.208252%, 36.413574%)" offset="0.292969"/><stop stop-opacity="1" stop-color="rgb(100%, 57.434082%, 36.453247%)" offset="0.300781"/><stop stop-opacity="1" stop-color="rgb(100%, 57.661438%, 36.49292%)" offset="0.308594"/><stop stop-opacity="1" stop-color="rgb(100%, 57.887268%, 36.532593%)" offset="0.316406"/><stop stop-opacity="1" stop-color="rgb(100%, 58.114624%, 36.572266%)" offset="0.324219"/><stop stop-opacity="1" stop-color="rgb(100%, 58.340454%, 36.611938%)" offset="0.332031"/><stop stop-opacity="1" stop-color="rgb(100%, 58.56781%, 36.651611%)" offset="0.339844"/><stop stop-opacity="1" stop-color="rgb(100%, 58.79364%, 36.69281%)" offset="0.347656"/><stop stop-opacity="1" stop-color="rgb(100%, 59.020996%, 36.732483%)" offset="0.355469"/><stop stop-opacity="1" stop-color="rgb(100%, 59.246826%, 36.772156%)" offset="0.363281"/><stop stop-opacity="1" stop-color="rgb(100%, 59.474182%, 36.811829%)" offset="0.371094"/><stop stop-opacity="1" stop-color="rgb(100%, 59.700012%, 36.851501%)" offset="0.378906"/><stop stop-opacity="1" stop-color="rgb(100%, 59.927368%, 36.891174%)" offset="0.386719"/><stop stop-opacity="1" stop-color="rgb(100%, 60.153198%, 36.930847%)" offset="0.394531"/><stop stop-opacity="1" stop-color="rgb(100%, 60.380554%, 36.97052%)" offset="0.402344"/><stop stop-opacity="1" stop-color="rgb(100%, 60.606384%, 37.010193%)" offset="0.410156"/><stop stop-opacity="1" stop-color="rgb(100%, 60.83374%, 37.051392%)" offset="0.417969"/><stop stop-opacity="1" stop-color="rgb(100%, 61.05957%, 37.091064%)" offset="0.425781"/><stop stop-opacity="1" stop-color="rgb(100%, 61.286926%, 37.130737%)" offset="0.433594"/><stop stop-opacity="1" stop-color="rgb(100%, 61.512756%, 37.17041%)" offset="0.441406"/><stop stop-opacity="1" stop-color="rgb(100%, 61.740112%, 37.210083%)" offset="0.449219"/><stop stop-opacity="1" stop-color="rgb(100%, 61.965942%, 37.249756%)" offset="0.457031"/><stop stop-opacity="1" stop-color="rgb(100%, 62.193298%, 37.289429%)" offset="0.464844"/><stop stop-opacity="1" stop-color="rgb(100%, 62.419128%, 37.329102%)" offset="0.472656"/><stop stop-opacity="1" stop-color="rgb(100%, 62.646484%, 37.368774%)" offset="0.480469"/><stop stop-opacity="1" stop-color="rgb(100%, 62.872314%, 37.409973%)" offset="0.488281"/><stop stop-opacity="1" stop-color="rgb(100%, 63.098145%, 37.449646%)" offset="0.496094"/><stop stop-opacity="1" stop-color="rgb(100%, 63.381958%, 37.498474%)" offset="0.503906"/><stop stop-opacity="1" stop-color="rgb(100%, 63.722229%, 37.557983%)" offset="0.515625"/><stop stop-opacity="1" stop-color="rgb(100%, 64.060974%, 37.617493%)" offset="0.527344"/><stop stop-opacity="1" stop-color="rgb(100%, 64.401245%, 37.677002%)" offset="0.539062"/><stop stop-opacity="1" stop-color="rgb(100%, 64.741516%, 37.738037%)" offset="0.550781"/><stop stop-opacity="1" stop-color="rgb(100%, 65.081787%, 37.797546%)" offset="0.5625"/><stop stop-opacity="1" stop-color="rgb(100%, 65.420532%, 37.857056%)" offset="0.574219"/><stop stop-opacity="1" stop-color="rgb(100%, 65.760803%, 37.916565%)" offset="0.585938"/><stop stop-opacity="1" stop-color="rgb(100%, 66.101074%, 37.976074%)" offset="0.597656"/><stop stop-opacity="1" stop-color="rgb(100%, 66.439819%, 38.035583%)" offset="0.609375"/><stop stop-opacity="1" stop-color="rgb(100%, 66.78009%, 38.096619%)" offset="0.621094"/><stop stop-opacity="1" stop-color="rgb(100%, 67.063904%, 38.146973%)" offset="0.632812"/><stop stop-opacity="1" stop-color="rgb(100%, 67.289734%, 38.186646%)" offset="0.640625"/><stop stop-opacity="1" stop-color="rgb(100%, 67.51709%, 38.226318%)" offset="0.648438"/><stop stop-opacity="1" stop-color="rgb(100%, 67.74292%, 38.265991%)" offset="0.65625"/><stop stop-opacity="1" stop-color="rgb(100%, 67.970276%, 38.305664%)" offset="0.664062"/><stop stop-opacity="1" stop-color="rgb(100%, 68.196106%, 38.345337%)" offset="0.671875"/><stop stop-opacity="1" stop-color="rgb(100%, 68.423462%, 38.38501%)" offset="0.679688"/><stop stop-opacity="1" stop-color="rgb(100%, 68.649292%, 38.424683%)" offset="0.6875"/><stop stop-opacity="1" stop-color="rgb(100%, 68.876648%, 38.465881%)" offset="0.695312"/><stop stop-opacity="1" stop-color="rgb(100%, 69.102478%, 38.505554%)" offset="0.703125"/><stop stop-opacity="1" stop-color="rgb(100%, 69.329834%, 38.545227%)" offset="0.710938"/><stop stop-opacity="1" stop-color="rgb(100%, 69.555664%, 38.5849%)" offset="0.71875"/><stop stop-opacity="1" stop-color="rgb(100%, 69.78302%, 38.624573%)" offset="0.726562"/><stop stop-opacity="1" stop-color="rgb(100%, 70.00885%, 38.664246%)" offset="0.734375"/><stop stop-opacity="1" stop-color="rgb(100%, 70.236206%, 38.703918%)" offset="0.742188"/><stop stop-opacity="1" stop-color="rgb(100%, 70.462036%, 38.743591%)" offset="0.75"/><stop stop-opacity="1" stop-color="rgb(100%, 70.74585%, 38.793945%)" offset="0.757812"/><stop stop-opacity="1" stop-color="rgb(100%, 71.084595%, 38.853455%)" offset="0.769531"/><stop stop-opacity="1" stop-color="rgb(100%, 71.424866%, 38.912964%)" offset="0.78125"/><stop stop-opacity="1" stop-color="rgb(100%, 71.765137%, 38.972473%)" offset="0.792969"/><stop stop-opacity="1" stop-color="rgb(100%, 72.103882%, 39.031982%)" offset="0.804688"/><stop stop-opacity="1" stop-color="rgb(100%, 72.387695%, 39.082336%)" offset="0.816406"/><stop stop-opacity="1" stop-color="rgb(100%, 72.615051%, 39.122009%)" offset="0.824219"/><stop stop-opacity="1" stop-color="rgb(100%, 72.840881%, 39.161682%)" offset="0.832031"/><stop stop-opacity="1" stop-color="rgb(100%, 73.068237%, 39.202881%)" offset="0.839844"/><stop stop-opacity="1" stop-color="rgb(100%, 73.294067%, 39.242554%)" offset="0.847656"/><stop stop-opacity="1" stop-color="rgb(100%, 73.521423%, 39.282227%)" offset="0.855469"/><stop stop-opacity="1" stop-color="rgb(100%, 73.747253%, 39.321899%)" offset="0.863281"/><stop stop-opacity="1" stop-color="rgb(100%, 73.974609%, 39.361572%)" offset="0.871094"/><stop stop-opacity="1" stop-color="rgb(100%, 74.256897%, 39.4104%)" offset="0.878906"/><stop stop-opacity="1" stop-color="rgb(100%, 74.597168%, 39.471436%)" offset="0.890625"/><stop stop-opacity="1" stop-color="rgb(100%, 74.935913%, 39.530945%)" offset="0.902344"/><stop stop-opacity="1" stop-color="rgb(100%, 75.219727%, 39.581299%)" offset="0.914062"/><stop stop-opacity="1" stop-color="rgb(100%, 75.447083%, 39.620972%)" offset="0.921875"/><stop stop-opacity="1" stop-color="rgb(100%, 75.672913%, 39.660645%)" offset="0.929688"/><stop stop-opacity="1" stop-color="rgb(100%, 75.900269%, 39.700317%)" offset="0.9375"/><stop stop-opacity="1" stop-color="rgb(100%, 76.182556%, 39.749146%)" offset="0.945312"/><stop stop-opacity="1" stop-color="rgb(100%, 76.46637%, 39.7995%)" offset="0.957031"/><stop stop-opacity="1" stop-color="rgb(100%, 76.6922%, 39.839172%)" offset="0.964844"/><stop stop-opacity="1" stop-color="rgb(100%, 76.976013%, 39.889526%)" offset="0.972656"/><stop stop-opacity="1" stop-color="rgb(100%, 77.258301%, 39.93988%)" offset="0.984375"/><stop stop-opacity="1" stop-color="rgb(100%, 77.485657%, 39.979553%)" offset="0.992188"/><stop stop-opacity="1" stop-color="rgb(100%, 77.598572%, 39.99939%)" offset="1"/></radialGradient><clipPath id="2151bf1240"><path d="M 174.152344 149.847656 L 421 149.847656 L 421 411.113281 L 174.152344 411.113281 Z M 174.152344 149.847656 " clip-rule="nonzero"/></clipPath><clipPath id="c6d62ed75f"><path d="M 296 149.847656 L 421 149.847656 L 421 411.113281 L 296 411.113281 Z M 296 149.847656 " clip-rule="nonzero"/></clipPath><clipPath id="b4a2536eb1"><path d="M 605 354 L 768 354 L 768 411.324219 L 605 411.324219 Z M 605 354 " clip-rule="nonzero"/></clipPath><clipPath id="b7077646a3"><path d="M 639.054688 373.441406 L 733 373.441406 L 733 411.324219 L 639.054688 411.324219 Z M 639.054688 373.441406 " clip-rule="nonzero"/></clipPath><clipPath id="11059050a0"><path d="M 707.792969 382.007812 C 708.34375 380.21875 708.433594 377.464844 702.902344 378.710938 C 702.902344 378.710938 687.785156 380.863281 687.066406 398.445312 L 686.722656 432.128906 L 683.089844 432.128906 L 682.746094 398.445312 C 682.023438 380.867188 666.910156 378.710938 666.910156 378.710938 C 661.394531 377.464844 661.464844 380.214844 662.019531 382.003906 C 656.597656 372.800781 642.074219 373.988281 642.074219 373.988281 C 637.035156 375.78125 641.714844 379.011719 641.714844 379.011719 C 649.632812 381.878906 650.355469 390.492188 650.355469 390.492188 L 650.355469 414.824219 L 651.191406 433.632812 C 652.988281 442.011719 657.425781 446.964844 661.777344 449.882812 L 708.121094 449.828125 C 713.726562 446.035156 719.460938 438.847656 719.460938 425.277344 L 719.460938 390.492188 C 719.460938 390.492188 720.179688 381.878906 728.101562 379.011719 C 736.023438 376.140625 732.777344 375.78125 727.738281 373.988281 C 727.738281 373.988281 727.125 373.941406 726.101562 373.9375 C 722.152344 373.9375 712.105469 374.691406 707.792969 382.007812 M 664.03125 416.683594 L 664.03125 390.136719 C 664.03125 387.542969 663.570312 385.359375 662.785156 383.527344 C 668 387.578125 668.347656 397.730469 668.347656 397.730469 L 668.347656 430.867188 C 663.160156 427.207031 664.03125 416.679688 664.03125 416.679688 M 701.472656 397.726562 C 701.472656 397.726562 701.820312 387.570312 707.03125 383.523438 C 706.25 385.355469 705.789062 387.535156 705.789062 390.128906 L 705.789062 416.679688 C 705.789062 416.679688 706.660156 426.464844 701.472656 430.492188 Z M 701.472656 397.726562 " clip-rule="nonzero"/></clipPath></defs><g clip-path="url(#47b3ac25ff)"><path fill="#ffffff" d="M 0.886719 0 L 959.113281 0 L 959.113281 539 L 0.886719 539 Z M 0.886719 0 " fill-opacity="1" fill-rule="nonzero"/><path fill="url(#8ce82dd244)" d="M 0.886719 0 L 0.886719 539 L 959.113281 539 L 959.113281 0 Z M 0.886719 0 " fill-rule="nonzero"/></g><g clip-path="url(#2151bf1240)"><path fill="#e23237" d="M 174.464844 193.15625 L 296.042969 149.84375 L 420.882812 192.386719 L 400.675781 353.222656 L 296.042969 411.15625 L 193.046875 353.984375 L 174.464844 193.160156 Z M 174.464844 193.15625 " fill-opacity="1" fill-rule="nonzero"/></g><g clip-path="url(#c6d62ed75f)"><path fill="#b52e31" d="M 420.882812 192.386719 L 296.042969 149.84375 L 296.042969 411.148438 L 400.679688 353.300781 L 420.882812 192.386719 L 420.882812 192.382812 Z M 420.882812 192.386719 " fill-opacity="1" fill-rule="nonzero"/></g><path fill="#ffffff" d="M 296.234375 180.355469 L 220.476562 348.882812 L 248.777344 348.398438 L 263.988281 310.390625 L 331.941406 310.390625 L 348.601562 348.882812 L 375.648438 349.367188 L 296.234375 180.355469 L 296.234375 180.359375 Z M 296.429688 234.347656 L 322.027344 287.863281 L 273.902344 287.863281 Z M 296.429688 234.347656 " fill-opacity="1" fill-rule="nonzero"/><g clip-path="url(#b4a2536eb1)"><path fill="#a0dcf2" d="M 767.035156 383.070312 C 767.035156 398.679688 730.773438 411.328125 686.039062 411.328125 C 641.304688 411.328125 605.039062 398.679688 605.039062 383.070312 C 605.039062 367.464844 641.300781 354.808594 686.039062 354.808594 C 730.773438 354.808594 767.035156 367.480469 767.035156 383.070312 " fill-opacity="1" fill-rule="nonzero"/></g><g clip-path="url(#b7077646a3)"><g clip-path="url(#11059050a0)"><path fill="#82bde7" d="M 767.035156 383.070312 C 767.035156 398.679688 730.773438 411.328125 686.039062 411.328125 C 641.304688 411.328125 605.039062 398.679688 605.039062 383.070312 C 605.039062 367.464844 641.300781 354.808594 686.039062 354.808594 C 730.773438 354.808594 767.035156 367.480469 767.035156 383.070312 " fill-opacity="1" fill-rule="nonzero"/></g></g><path fill="#a0dcf2" d="M 593.519531 299.980469 L 591.179688 308.101562 C 591.179688 308.101562 590.574219 311.035156 593.347656 311.554688 C 596.242188 311.5 596.007812 308.796875 595.804688 307.921875 Z M 593.519531 299.980469 " fill-opacity="1" fill-rule="nonzero"/><path fill="#292929" d="M 828.984375 265.929688 L 829.199219 264.875 C 805.433594 260.136719 781.050781 260.089844 766.285156 260.699219 C 768.707031 251.996094 769.4375 241.980469 769.4375 230.8125 C 769.4375 214.796875 763.402344 201.984375 753.601562 192.230469 C 755.3125 186.722656 757.601562 174.484375 751.316406 158.816406 C 751.316406 158.816406 740.214844 155.308594 715.152344 172.039062 C 705.328125 169.589844 694.871094 168.382812 684.398438 168.382812 C 672.878906 168.382812 661.238281 169.84375 650.378906 172.8125 C 624.496094 155.210938 613.074219 158.816406 613.074219 158.816406 C 605.613281 177.421875 610.226562 191.167969 611.625 194.585938 C 602.859375 204.019531 597.507812 216.054688 597.507812 230.8125 C 597.507812 241.953125 598.78125 251.949219 601.890625 260.636719 C 587.011719 260.097656 563.515625 260.304688 540.585938 264.871094 L 540.800781 265.925781 C 563.847656 261.332031 587.488281 261.167969 602.265625 261.726562 C 602.949219 263.523438 603.710938 265.257812 604.566406 266.957031 C 589.941406 267.425781 564.976562 269.28125 541.046875 276.011719 L 541.339844 277.046875 C 565.457031 270.265625 590.640625 268.457031 605.125 268.015625 C 613.859375 284.25 631.085938 294.734375 661.730469 298.011719 C 657.378906 300.921875 652.941406 305.875 651.140625 314.257812 C 645.214844 317.082031 626.453125 323.980469 615.195312 304.683594 C 615.195312 304.683594 608.894531 293.199219 596.832031 292.300781 C 596.832031 292.300781 585.136719 292.140625 596.023438 299.566406 C 596.023438 299.566406 603.855469 303.246094 609.253906 317.050781 C 609.253906 317.050781 616.300781 340.621094 650.304688 333.058594 L 650.304688 357.40625 C 650.304688 357.40625 649.585938 366.019531 641.664062 368.886719 C 633.742188 371.753906 636.984375 372.117188 642.023438 373.90625 C 642.023438 373.90625 663.980469 375.703125 663.980469 357.761719 L 663.980469 331.214844 C 663.980469 331.214844 663.109375 320.683594 668.296875 317.027344 L 668.296875 360.671875 C 668.296875 360.671875 667.9375 371.078125 662.539062 375.023438 C 657.140625 378.972656 658.941406 381.480469 666.859375 379.6875 C 666.859375 379.6875 681.972656 377.535156 682.695312 359.957031 L 683.039062 315.824219 L 686.671875 315.824219 L 687.015625 359.957031 C 687.734375 377.535156 702.851562 379.6875 702.851562 379.6875 C 710.769531 381.480469 707.167969 375.023438 707.167969 375.023438 C 701.769531 371.078125 701.410156 360.671875 701.410156 360.671875 L 701.410156 317.441406 C 706.597656 321.449219 705.730469 331.253906 705.730469 331.253906 L 705.730469 357.804688 C 705.730469 375.742188 727.683594 373.945312 727.683594 373.945312 C 732.71875 372.15625 728.046875 368.925781 728.046875 368.925781 C 720.125 366.039062 719.40625 357.445312 719.40625 357.445312 L 719.40625 322.644531 C 719.40625 309.074219 713.671875 301.886719 708.066406 298.09375 C 740.730469 294.863281 756.429688 284.34375 763.65625 268 C 777.96875 268.390625 803.730469 270.128906 828.371094 277.0625 L 828.664062 276.027344 C 804.164062 269.136719 778.574219 267.355469 764.113281 266.9375 C 764.800781 265.285156 765.394531 263.566406 765.925781 261.804688 C 780.578125 261.160156 805.070312 261.1875 828.925781 265.941406 " fill-opacity="1" fill-rule="nonzero"/><path fill="#f5cdb5" d="M 737.496094 230.046875 C 744.535156 236.40625 748.652344 244.082031 748.652344 252.351562 C 748.652344 290.964844 719.773438 292.015625 684.152344 292.015625 C 648.535156 292.015625 619.648438 286.6875 619.648438 252.378906 C 619.648438 244.164062 623.707031 236.535156 630.660156 230.207031 C 642.257812 219.65625 661.882812 225.242188 684.144531 225.242188 C 706.320312 225.242188 725.875 219.597656 737.484375 230.078125 " fill-opacity="1" fill-rule="nonzero"/><path fill="#ffffff" d="M 662.703125 254.332031 C 662.703125 264.964844 656.695312 273.589844 649.28125 273.589844 C 641.871094 273.589844 635.859375 264.96875 635.859375 254.332031 C 635.859375 243.695312 641.871094 235.078125 649.28125 235.078125 C 656.695312 235.078125 662.703125 243.695312 662.703125 254.332031 " fill-opacity="1" fill-rule="nonzero"/><path fill="#b1645a" d="M 658.394531 254.574219 C 658.394531 261.664062 654.371094 267.40625 649.449219 267.40625 C 644.523438 267.40625 640.503906 261.664062 640.503906 254.574219 C 640.503906 247.484375 644.503906 241.730469 649.449219 241.730469 C 654.390625 241.730469 658.394531 247.480469 658.394531 254.574219 " fill-opacity="1" fill-rule="nonzero"/><path fill="#ffffff" d="M 734.695312 254.332031 C 734.695312 264.964844 728.6875 273.589844 721.273438 273.589844 C 713.859375 273.589844 707.851562 264.96875 707.851562 254.332031 C 707.851562 243.695312 713.863281 235.078125 721.273438 235.078125 C 728.683594 235.078125 734.695312 243.695312 734.695312 254.332031 " fill-opacity="1" fill-rule="nonzero"/><path fill="#b1645a" d="M 730.398438 254.574219 C 730.398438 261.664062 726.375 267.40625 721.453125 267.40625 C 716.527344 267.40625 712.507812 261.664062 712.507812 254.574219 C 712.507812 247.484375 716.527344 241.730469 721.453125 241.730469 C 726.375 241.730469 730.398438 247.480469 730.398438 254.574219 M 687.703125 271.414062 C 687.703125 273.261719 686.199219 274.761719 684.34375 274.761719 C 682.492188 274.761719 680.988281 273.261719 680.988281 271.414062 C 680.988281 269.566406 682.488281 268.070312 684.34375 268.070312 C 686.199219 268.070312 687.703125 269.566406 687.703125 271.414062 M 676.527344 279.875 C 676.480469 279.742188 676.457031 279.601562 676.464844 279.460938 C 676.472656 279.316406 676.507812 279.179688 676.570312 279.050781 C 676.632812 278.921875 676.714844 278.8125 676.820312 278.714844 C 676.929688 278.621094 677.050781 278.546875 677.183594 278.5 C 677.320312 278.453125 677.457031 278.433594 677.601562 278.441406 C 677.746094 278.449219 677.878906 278.484375 678.011719 278.542969 C 678.140625 278.605469 678.25 278.691406 678.347656 278.796875 C 678.441406 278.902344 678.515625 279.023438 678.5625 279.15625 C 679.425781 281.589844 681.738281 283.222656 684.316406 283.222656 C 686.898438 283.222656 689.210938 281.589844 690.074219 279.15625 C 690.121094 279.023438 690.195312 278.902344 690.289062 278.796875 C 690.386719 278.691406 690.496094 278.609375 690.625 278.546875 C 690.757812 278.484375 690.890625 278.449219 691.035156 278.441406 C 691.175781 278.433594 691.316406 278.457031 691.453125 278.503906 C 691.585938 278.550781 691.707031 278.621094 691.8125 278.71875 C 691.917969 278.8125 692.003906 278.925781 692.066406 279.054688 C 692.125 279.183594 692.160156 279.316406 692.167969 279.460938 C 692.175781 279.601562 692.15625 279.742188 692.109375 279.875 C 691.820312 280.671875 691.414062 281.410156 690.898438 282.082031 C 690.378906 282.757812 689.773438 283.335938 689.074219 283.824219 C 688.378906 284.3125 687.625 284.683594 686.8125 284.9375 C 686 285.195312 685.167969 285.320312 684.316406 285.320312 C 683.464844 285.320312 682.636719 285.195312 681.824219 284.9375 C 681.011719 284.683594 680.257812 284.3125 679.558594 283.824219 C 678.863281 283.335938 678.253906 282.757812 677.738281 282.082031 C 677.21875 281.410156 676.816406 280.671875 676.527344 279.875 " fill-opacity="1" fill-rule="nonzero"/><path fill="#c5e6da" d="M 602.109375 295.199219 C 602.109375 296.09375 601.0625 296.8125 599.769531 296.8125 C 598.476562 296.8125 597.429688 296.09375 597.429688 295.199219 C 597.429688 294.308594 598.476562 293.585938 599.769531 293.585938 C 601.0625 293.585938 602.109375 294.304688 602.109375 295.199219 M 608.59375 298.785156 C 608.59375 299.679688 607.542969 300.402344 606.25 300.402344 C 604.957031 300.402344 603.910156 299.679688 603.910156 298.785156 C 603.910156 297.890625 604.957031 297.171875 606.25 297.171875 C 607.542969 297.171875 608.59375 297.894531 608.59375 298.785156 M 612.554688 303.4375 C 612.554688 304.328125 611.507812 305.050781 610.210938 305.050781 C 608.917969 305.050781 607.875 304.328125 607.875 303.4375 C 607.875 302.546875 608.921875 301.820312 610.210938 301.820312 C 611.503906 301.820312 612.554688 302.542969 612.554688 303.4375 M 616.148438 308.820312 C 616.148438 309.714844 615.105469 310.4375 613.8125 310.4375 C 612.519531 310.4375 611.46875 309.714844 611.46875 308.820312 C 611.46875 307.925781 612.515625 307.203125 613.8125 307.203125 C 615.105469 307.203125 616.148438 307.925781 616.148438 308.820312 M 620.109375 313.863281 C 620.109375 314.753906 619.066406 315.476562 617.773438 315.476562 C 616.476562 315.476562 615.429688 314.753906 615.429688 313.863281 C 615.429688 312.972656 616.480469 312.246094 617.773438 312.246094 C 619.0625 312.246094 620.109375 312.96875 620.109375 313.863281 M 625.511719 318.167969 C 625.511719 319.058594 624.464844 319.78125 623.171875 319.78125 C 621.875 319.78125 620.832031 319.0625 620.832031 318.167969 C 620.832031 317.269531 621.878906 316.550781 623.171875 316.550781 C 624.464844 316.550781 625.511719 317.273438 625.511719 318.167969 " fill-opacity="1" fill-rule="nonzero"/><path fill="#c5e6da" d="M 633.070312 321.03125 C 633.070312 321.921875 632.027344 322.644531 630.730469 322.644531 C 629.4375 322.644531 628.390625 321.921875 628.390625 321.03125 C 628.390625 320.140625 629.4375 319.414062 630.730469 319.414062 C 632.027344 319.414062 633.070312 320.136719 633.070312 321.03125 " fill-opacity="1" fill-rule="nonzero"/><path fill="#c5e6da" d="M 640.59375 321.03125 C 640.59375 321.921875 639.550781 322.644531 638.257812 322.644531 C 636.960938 322.644531 635.914062 321.921875 635.914062 321.03125 C 635.914062 320.140625 636.960938 319.414062 638.257812 319.414062 C 639.550781 319.414062 640.59375 320.136719 640.59375 321.03125 " fill-opacity="1" fill-rule="nonzero"/><path fill="#c5e6da" d="M 648.230469 319.78125 C 648.230469 320.675781 647.1875 321.398438 645.890625 321.398438 C 644.597656 321.398438 643.550781 320.675781 643.550781 319.78125 C 643.550781 318.886719 644.597656 318.164062 645.890625 318.164062 C 647.1875 318.164062 648.230469 318.886719 648.230469 319.78125 " fill-opacity="1" fill-rule="nonzero"/><g fill="#ffffff" fill-opacity="1"><g transform="translate(421.508692, 337.999082)"><g><path d="M 51.265625 -100.78125 L 65.890625 -100.78125 L 65.890625 -57.703125 L 108.96875 -57.703125 L 108.96875 -43.078125 L 65.890625 -43.078125 L 65.890625 0 L 51.265625 0 L 51.265625 -43.078125 L 8 -43.078125 L 8 -57.703125 L 51.265625 -57.703125 Z M 51.265625 -100.78125 "/></g></g></g></svg>