<svg xmlns="http://www.w3.org/2000/svg" xmlns:xlink="http://www.w3.org/1999/xlink" width="1280" zoomAndPan="magnify" viewBox="0 0 960 540.000001" height="720" preserveAspectRatio="xMidYMid meet" version="1.0"><defs><g/><clipPath id="e8a2d8961e"><path d="M 0.886719 0 L 959.113281 0 L 959.113281 539 L 0.886719 539 Z M 0.886719 0 " clip-rule="nonzero"/></clipPath><radialGradient gradientTransform="matrix(1, 0, 0, 1, 0.887245, 0.000019963)" gradientUnits="userSpaceOnUse" r="1099.417599" cx="0" id="5406dfe051" cy="0" fx="0" fy="0"><stop stop-opacity="1" stop-color="rgb(24.092102%, 55.445862%, 26.020813%)" offset="0"/><stop stop-opacity="1" stop-color="rgb(24.429321%, 55.702209%, 26.235962%)" offset="0.015625"/><stop stop-opacity="1" stop-color="rgb(24.719238%, 55.923462%, 26.420593%)" offset="0.0273438"/><stop stop-opacity="1" stop-color="rgb(25.009155%, 56.143188%, 26.603699%)" offset="0.0390625"/><stop stop-opacity="1" stop-color="rgb(25.297546%, 56.364441%, 26.78833%)" offset="0.0507812"/><stop stop-opacity="1" stop-color="rgb(25.587463%, 56.584167%, 26.971436%)" offset="0.0625"/><stop stop-opacity="1" stop-color="rgb(25.87738%, 56.803894%, 27.156067%)" offset="0.0742188"/><stop stop-opacity="1" stop-color="rgb(26.165771%, 57.025146%, 27.340698%)" offset="0.0859375"/><stop stop-opacity="1" stop-color="rgb(26.455688%, 57.244873%, 27.523804%)" offset="0.0976562"/><stop stop-opacity="1" stop-color="rgb(26.745605%, 57.4646%, 27.708435%)" offset="0.109375"/><stop stop-opacity="1" stop-color="rgb(27.033997%, 57.685852%, 27.891541%)" offset="0.121094"/><stop stop-opacity="1" stop-color="rgb(27.323914%, 57.905579%, 28.076172%)" offset="0.132812"/><stop stop-opacity="1" stop-color="rgb(27.613831%, 58.126831%, 28.259277%)" offset="0.144531"/><stop stop-opacity="1" stop-color="rgb(27.903748%, 58.346558%, 28.443909%)" offset="0.15625"/><stop stop-opacity="1" stop-color="rgb(28.192139%, 58.566284%, 28.62854%)" offset="0.167969"/><stop stop-opacity="1" stop-color="rgb(28.482056%, 58.787537%, 28.811646%)" offset="0.179688"/><stop stop-opacity="1" stop-color="rgb(28.771973%, 59.007263%, 28.996277%)" offset="0.191406"/><stop stop-opacity="1" stop-color="rgb(29.060364%, 59.228516%, 29.179382%)" offset="0.203125"/><stop stop-opacity="1" stop-color="rgb(29.350281%, 59.448242%, 29.364014%)" offset="0.214844"/><stop stop-opacity="1" stop-color="rgb(29.640198%, 59.667969%, 29.547119%)" offset="0.226562"/><stop stop-opacity="1" stop-color="rgb(29.928589%, 59.889221%, 29.73175%)" offset="0.238281"/><stop stop-opacity="1" stop-color="rgb(30.218506%, 60.108948%, 29.916382%)" offset="0.25"/><stop stop-opacity="1" stop-color="rgb(30.459595%, 60.292053%, 30.06897%)" offset="0.261719"/><stop stop-opacity="1" stop-color="rgb(30.653381%, 60.440063%, 30.192566%)" offset="0.269531"/><stop stop-opacity="1" stop-color="rgb(30.845642%, 60.586548%, 30.314636%)" offset="0.277344"/><stop stop-opacity="1" stop-color="rgb(31.039429%, 60.733032%, 30.436707%)" offset="0.285156"/><stop stop-opacity="1" stop-color="rgb(31.231689%, 60.881042%, 30.560303%)" offset="0.292969"/><stop stop-opacity="1" stop-color="rgb(31.42395%, 61.027527%, 30.682373%)" offset="0.300781"/><stop stop-opacity="1" stop-color="rgb(31.617737%, 61.174011%, 30.804443%)" offset="0.308594"/><stop stop-opacity="1" stop-color="rgb(31.809998%, 61.320496%, 30.92804%)" offset="0.316406"/><stop stop-opacity="1" stop-color="rgb(32.003784%, 61.468506%, 31.05011%)" offset="0.324219"/><stop stop-opacity="1" stop-color="rgb(32.196045%, 61.61499%, 31.173706%)" offset="0.332031"/><stop stop-opacity="1" stop-color="rgb(32.389832%, 61.761475%, 31.295776%)" offset="0.339844"/><stop stop-opacity="1" stop-color="rgb(32.582092%, 61.907959%, 31.417847%)" offset="0.347656"/><stop stop-opacity="1" stop-color="rgb(32.775879%, 62.055969%, 31.541443%)" offset="0.355469"/><stop stop-opacity="1" stop-color="rgb(32.96814%, 62.202454%, 31.663513%)" offset="0.363281"/><stop stop-opacity="1" stop-color="rgb(33.161926%, 62.348938%, 31.787109%)" offset="0.371094"/><stop stop-opacity="1" stop-color="rgb(33.450317%, 62.568665%, 31.970215%)" offset="0.378906"/><stop stop-opacity="1" stop-color="rgb(33.836365%, 62.863159%, 32.215881%)" offset="0.394531"/><stop stop-opacity="1" stop-color="rgb(34.222412%, 63.156128%, 32.460022%)" offset="0.410156"/><stop stop-opacity="1" stop-color="rgb(34.608459%, 63.450623%, 32.705688%)" offset="0.425781"/><stop stop-opacity="1" stop-color="rgb(34.994507%, 63.743591%, 32.951355%)" offset="0.441406"/><stop stop-opacity="1" stop-color="rgb(35.380554%, 64.038086%, 33.197021%)" offset="0.457031"/><stop stop-opacity="1" stop-color="rgb(35.766602%, 64.331055%, 33.442688%)" offset="0.472656"/><stop stop-opacity="1" stop-color="rgb(36.152649%, 64.625549%, 33.686829%)" offset="0.488281"/><stop stop-opacity="1" stop-color="rgb(36.489868%, 64.881897%, 33.901978%)" offset="0.503906"/><stop stop-opacity="1" stop-color="rgb(36.779785%, 65.103149%, 34.086609%)" offset="0.515625"/><stop stop-opacity="1" stop-color="rgb(37.069702%, 65.322876%, 34.269714%)" offset="0.527344"/><stop stop-opacity="1" stop-color="rgb(37.358093%, 65.544128%, 34.454346%)" offset="0.539062"/><stop stop-opacity="1" stop-color="rgb(37.64801%, 65.763855%, 34.637451%)" offset="0.550781"/><stop stop-opacity="1" stop-color="rgb(37.937927%, 65.983582%, 34.822083%)" offset="0.5625"/><stop stop-opacity="1" stop-color="rgb(38.226318%, 66.204834%, 35.006714%)" offset="0.574219"/><stop stop-opacity="1" stop-color="rgb(38.516235%, 66.424561%, 35.189819%)" offset="0.585938"/><stop stop-opacity="1" stop-color="rgb(38.806152%, 66.644287%, 35.374451%)" offset="0.597656"/><stop stop-opacity="1" stop-color="rgb(39.094543%, 66.86554%, 35.557556%)" offset="0.609375"/><stop stop-opacity="1" stop-color="rgb(39.38446%, 67.085266%, 35.742188%)" offset="0.621094"/><stop stop-opacity="1" stop-color="rgb(39.625549%, 67.269897%, 35.894775%)" offset="0.632812"/><stop stop-opacity="1" stop-color="rgb(39.819336%, 67.416382%, 36.018372%)" offset="0.640625"/><stop stop-opacity="1" stop-color="rgb(40.011597%, 67.562866%, 36.140442%)" offset="0.648438"/><stop stop-opacity="1" stop-color="rgb(40.205383%, 67.709351%, 36.264038%)" offset="0.65625"/><stop stop-opacity="1" stop-color="rgb(40.397644%, 67.857361%, 36.386108%)" offset="0.664062"/><stop stop-opacity="1" stop-color="rgb(40.591431%, 68.003845%, 36.508179%)" offset="0.671875"/><stop stop-opacity="1" stop-color="rgb(40.783691%, 68.15033%, 36.631775%)" offset="0.679688"/><stop stop-opacity="1" stop-color="rgb(40.975952%, 68.296814%, 36.753845%)" offset="0.6875"/><stop stop-opacity="1" stop-color="rgb(41.265869%, 68.518066%, 36.938477%)" offset="0.695312"/><stop stop-opacity="1" stop-color="rgb(41.651917%, 68.811035%, 37.182617%)" offset="0.710938"/><stop stop-opacity="1" stop-color="rgb(42.037964%, 69.10553%, 37.428284%)" offset="0.726562"/><stop stop-opacity="1" stop-color="rgb(42.424011%, 69.398499%, 37.67395%)" offset="0.742188"/><stop stop-opacity="1" stop-color="rgb(42.76123%, 69.656372%, 37.889099%)" offset="0.757812"/><stop stop-opacity="1" stop-color="rgb(43.051147%, 69.876099%, 38.072205%)" offset="0.769531"/><stop stop-opacity="1" stop-color="rgb(43.341064%, 70.097351%, 38.256836%)" offset="0.78125"/><stop stop-opacity="1" stop-color="rgb(43.629456%, 70.317078%, 38.439941%)" offset="0.792969"/><stop stop-opacity="1" stop-color="rgb(43.919373%, 70.536804%, 38.624573%)" offset="0.804688"/><stop stop-opacity="1" stop-color="rgb(44.160461%, 70.721436%, 38.777161%)" offset="0.816406"/><stop stop-opacity="1" stop-color="rgb(44.354248%, 70.86792%, 38.900757%)" offset="0.824219"/><stop stop-opacity="1" stop-color="rgb(44.546509%, 71.014404%, 39.022827%)" offset="0.832031"/><stop stop-opacity="1" stop-color="rgb(44.73877%, 71.160889%, 39.146423%)" offset="0.839844"/><stop stop-opacity="1" stop-color="rgb(45.028687%, 71.382141%, 39.329529%)" offset="0.847656"/><stop stop-opacity="1" stop-color="rgb(45.414734%, 71.67511%, 39.575195%)" offset="0.863281"/><stop stop-opacity="1" stop-color="rgb(45.753479%, 71.932983%, 39.790344%)" offset="0.878906"/><stop stop-opacity="1" stop-color="rgb(46.04187%, 72.15271%, 39.97345%)" offset="0.890625"/><stop stop-opacity="1" stop-color="rgb(46.331787%, 72.372437%, 40.158081%)" offset="0.902344"/><stop stop-opacity="1" stop-color="rgb(46.572876%, 72.557068%, 40.310669%)" offset="0.914062"/><stop stop-opacity="1" stop-color="rgb(46.765137%, 72.703552%, 40.434265%)" offset="0.921875"/><stop stop-opacity="1" stop-color="rgb(47.055054%, 72.923279%, 40.617371%)" offset="0.929688"/><stop stop-opacity="1" stop-color="rgb(47.392273%, 73.181152%, 40.83252%)" offset="0.945312"/><stop stop-opacity="1" stop-color="rgb(47.633362%, 73.364258%, 40.985107%)" offset="0.957031"/><stop stop-opacity="1" stop-color="rgb(47.923279%, 73.58551%, 41.169739%)" offset="0.964844"/><stop stop-opacity="1" stop-color="rgb(48.213196%, 73.805237%, 41.35437%)" offset="0.980469"/><stop stop-opacity="1" stop-color="rgb(48.454285%, 73.988342%, 41.506958%)" offset="0.988281"/><stop stop-opacity="1" stop-color="rgb(48.599243%, 74.099731%, 41.598511%)" offset="1"/></radialGradient><clipPath id="aa60cea367"><path d="M 110 165 L 432.925781 165 L 432.925781 375 L 110 375 Z M 110 165 " clip-rule="nonzero"/></clipPath><clipPath id="4b9e09f5cc"><path d="M 556 174 L 754 174 L 754 377.300781 L 556 377.300781 Z M 556 174 " clip-rule="nonzero"/></clipPath></defs><g clip-path="url(#e8a2d8961e)"><path fill="#ffffff" d="M 0.886719 0 L 959.113281 0 L 959.113281 539 L 0.886719 539 Z M 0.886719 0 " fill-opacity="1" fill-rule="nonzero"/><path fill="url(#5406dfe051)" d="M 0.886719 0 L 0.886719 539 L 959.113281 539 L 959.113281 0 Z M 0.886719 0 " fill-rule="nonzero"/></g><g clip-path="url(#aa60cea367)"><path fill="#364548" d="M 278.136719 231.757812 L 311.039062 231.757812 L 311.039062 265.417969 L 327.679688 265.417969 C 335.367188 265.417969 343.257812 264.050781 350.546875 261.578125 C 354.117188 260.371094 358.128906 258.679688 361.65625 256.558594 C 357.015625 250.488281 354.636719 242.835938 353.941406 235.273438 C 352.988281 225.003906 355.066406 211.628906 362.003906 203.585938 L 365.46875 199.585938 L 369.585938 202.902344 C 379.960938 211.238281 388.695312 222.894531 390.226562 236.1875 C 402.71875 232.507812 417.386719 233.382812 428.402344 239.746094 L 432.925781 242.351562 L 430.550781 246.996094 C 421.238281 265.191406 401.765625 270.816406 382.726562 269.824219 C 354.234375 340.828125 292.210938 374.4375 217.011719 374.4375 C 178.164062 374.4375 142.507812 359.90625 122.21875 325.414062 L 121.882812 324.847656 L 118.917969 318.832031 C 112.0625 303.648438 109.78125 287.023438 111.324219 270.402344 L 111.792969 265.417969 L 139.933594 265.417969 L 139.933594 231.757812 L 172.835938 231.757812 L 172.835938 198.832031 L 238.644531 198.832031 L 238.644531 165.910156 L 278.136719 165.910156 Z M 278.136719 231.757812 " fill-opacity="1" fill-rule="nonzero"/></g><path fill="#22a0c8" d="M 384.738281 244.21875 C 386.9375 227.058594 374.109375 213.589844 366.152344 207.183594 C 356.988281 217.792969 355.550781 245.601562 369.949219 257.308594 C 361.925781 264.4375 345.003906 270.910156 327.679688 270.910156 L 116.796875 270.910156 C 115.121094 289.011719 118.289062 305.675781 125.535156 319.933594 L 127.9375 324.324219 C 129.453125 326.902344 131.117188 329.402344 132.902344 331.789062 C 141.570312 332.355469 149.566406 332.542969 156.882812 332.382812 C 171.253906 332.058594 182.980469 330.367188 191.863281 327.277344 C 193.207031 326.863281 194.617188 327.613281 195.03125 328.945312 C 195.433594 330.21875 194.761719 331.589844 193.515625 332.058594 C 192.335938 332.476562 191.101562 332.851562 189.824219 333.214844 C 182.832031 335.214844 175.320312 336.558594 165.644531 337.160156 C 166.21875 337.175781 165.039062 337.242188 165.039062 337.242188 C 164.703125 337.269531 164.300781 337.308594 163.964844 337.324219 C 160.15625 337.539062 156.050781 337.578125 151.835938 337.578125 C 147.234375 337.578125 142.710938 337.496094 137.636719 337.230469 L 137.503906 337.308594 C 155.070312 357.074219 182.550781 368.917969 216.984375 368.917969 C 289.863281 368.917969 351.6875 336.585938 379.0625 264.007812 C 398.480469 266.011719 417.144531 261.042969 425.640625 244.457031 C 412.140625 236.683594 394.75 239.167969 384.738281 244.21875 Z M 384.738281 244.21875 " fill-opacity="1" fill-rule="nonzero"/><path fill="#37b1d9" d="M 384.738281 244.21875 C 386.9375 227.058594 374.109375 213.589844 366.152344 207.183594 C 356.988281 217.792969 355.550781 245.601562 369.949219 257.308594 C 361.925781 264.4375 345.003906 270.910156 327.679688 270.910156 L 129.277344 270.910156 C 128.417969 298.625 138.699219 319.652344 156.882812 332.382812 C 171.253906 332.058594 182.980469 330.367188 191.863281 327.277344 C 193.207031 326.863281 194.617188 327.613281 195.03125 328.945312 C 195.433594 330.21875 194.761719 331.589844 193.515625 332.058594 C 192.335938 332.476562 191.101562 332.851562 189.824219 333.214844 C 182.832031 335.214844 174.675781 336.730469 165 337.324219 C 165 337.324219 164.769531 337.09375 164.757812 337.09375 C 189.554688 349.824219 225.53125 349.785156 266.757812 333.925781 C 312.984375 316.148438 356.019531 282.296875 386.039062 243.558594 C 385.609375 243.789062 385.167969 244.003906 384.738281 244.21875 Z M 384.738281 244.21875 " fill-opacity="1" fill-rule="nonzero"/><path fill="#1b81a5" d="M 117.1875 292.890625 C 118.503906 302.585938 121.332031 311.664062 125.535156 319.921875 L 127.9375 324.3125 C 129.453125 326.890625 131.117188 329.386719 132.902344 331.777344 C 141.570312 332.339844 149.566406 332.527344 156.882812 332.367188 C 171.253906 332.046875 182.980469 330.355469 191.863281 327.265625 C 193.207031 326.847656 194.617188 327.601562 195.03125 328.929688 C 195.433594 330.207031 194.761719 331.574219 193.515625 332.046875 C 192.335938 332.460938 191.101562 332.839844 189.824219 333.199219 C 182.832031 335.199219 174.714844 336.636719 165.039062 337.230469 C 164.703125 337.253906 164.128906 337.253906 163.792969 337.269531 C 159.980469 337.484375 155.914062 337.617188 151.699219 337.617188 C 147.097656 337.617188 142.402344 337.523438 137.34375 337.269531 C 154.910156 357.035156 182.550781 368.929688 217 368.929688 C 279.398438 368.929688 333.679688 345.230469 365.1875 292.878906 L 117.1875 292.878906 Z M 117.1875 292.890625 " fill-opacity="1" fill-rule="nonzero"/><path fill="#1d91b4" d="M 131.183594 292.890625 C 134.914062 309.917969 143.878906 323.277344 156.894531 332.367188 C 171.265625 332.046875 182.996094 330.355469 191.878906 327.265625 C 193.21875 326.847656 194.628906 327.601562 195.046875 328.929688 C 195.449219 330.207031 194.777344 331.574219 193.527344 332.046875 C 192.347656 332.460938 191.113281 332.839844 189.839844 333.199219 C 182.847656 335.199219 174.566406 336.636719 164.878906 337.230469 C 189.675781 349.957031 225.546875 349.769531 266.769531 333.925781 C 291.714844 324.339844 315.722656 310.066406 337.261719 292.863281 L 131.183594 292.863281 Z M 131.183594 292.890625 " fill-opacity="1" fill-rule="nonzero"/><path fill="#23a3c2" d="M 145.421875 237.25 L 173.9375 237.25 L 173.9375 265.78125 L 145.421875 265.78125 Z M 147.796875 239.625 L 150.050781 239.625 L 150.050781 263.40625 L 147.796875 263.40625 Z M 152.023438 239.625 L 154.359375 239.625 L 154.359375 263.40625 L 152.023438 263.40625 Z M 156.34375 239.625 L 158.679688 239.625 L 158.679688 263.40625 L 156.34375 263.40625 Z M 160.664062 239.625 L 163 239.625 L 163 263.40625 L 160.664062 263.40625 Z M 164.984375 239.625 L 167.320312 239.625 L 167.320312 263.40625 L 164.984375 263.40625 Z M 169.308594 239.625 L 171.5625 239.625 L 171.5625 263.40625 L 169.308594 263.40625 Z M 178.324219 204.324219 L 206.839844 204.324219 L 206.839844 232.859375 L 178.3125 232.859375 Z M 180.699219 206.699219 L 182.953125 206.699219 L 182.953125 230.480469 L 180.699219 230.480469 Z M 184.925781 206.699219 L 187.261719 206.699219 L 187.261719 230.480469 L 184.925781 230.480469 Z M 189.246094 206.699219 L 191.582031 206.699219 L 191.582031 230.480469 L 189.246094 230.480469 Z M 193.570312 206.699219 L 195.902344 206.699219 L 195.902344 230.480469 L 193.570312 230.480469 Z M 197.890625 206.699219 L 200.226562 206.699219 L 200.226562 230.480469 L 197.890625 230.480469 Z M 202.210938 206.699219 L 204.464844 206.699219 L 204.464844 230.480469 L 202.210938 230.480469 Z M 202.210938 206.699219 " fill-opacity="1" fill-rule="nonzero"/><path fill="#34bbde" d="M 178.324219 237.25 L 206.839844 237.25 L 206.839844 265.78125 L 178.3125 265.78125 Z M 180.699219 239.625 L 182.953125 239.625 L 182.953125 263.40625 L 180.699219 263.40625 Z M 184.925781 239.625 L 187.261719 239.625 L 187.261719 263.40625 L 184.925781 263.40625 Z M 189.246094 239.625 L 191.582031 239.625 L 191.582031 263.40625 L 189.246094 263.40625 Z M 193.570312 239.625 L 195.902344 239.625 L 195.902344 263.40625 L 193.570312 263.40625 Z M 197.890625 239.625 L 200.226562 239.625 L 200.226562 263.40625 L 197.890625 263.40625 Z M 202.210938 239.625 L 204.464844 239.625 L 204.464844 263.40625 L 202.210938 263.40625 Z M 202.210938 239.625 " fill-opacity="1" fill-rule="nonzero"/><path fill="#23a3c2" d="M 211.226562 237.25 L 239.742188 237.25 L 239.742188 265.78125 L 211.226562 265.78125 Z M 213.605469 239.625 L 215.859375 239.625 L 215.859375 263.40625 L 213.605469 263.40625 Z M 217.832031 239.625 L 220.164062 239.625 L 220.164062 263.40625 L 217.832031 263.40625 Z M 222.152344 239.625 L 224.488281 239.625 L 224.488281 263.40625 L 222.152344 263.40625 Z M 226.472656 239.625 L 228.808594 239.625 L 228.808594 263.40625 L 226.472656 263.40625 Z M 230.792969 239.625 L 233.140625 239.625 L 233.140625 263.40625 L 230.792969 263.40625 Z M 235.113281 239.625 L 237.367188 239.625 L 237.367188 263.40625 L 235.113281 263.40625 Z M 235.113281 239.625 " fill-opacity="1" fill-rule="nonzero"/><path fill="#34bbde" d="M 211.226562 204.324219 L 239.742188 204.324219 L 239.742188 232.859375 L 211.226562 232.859375 Z M 213.605469 206.699219 L 215.859375 206.699219 L 215.859375 230.480469 L 213.605469 230.480469 Z M 217.832031 206.699219 L 220.164062 206.699219 L 220.164062 230.480469 L 217.832031 230.480469 Z M 222.152344 206.699219 L 224.488281 206.699219 L 224.488281 230.480469 L 222.152344 230.480469 Z M 226.472656 206.699219 L 228.808594 206.699219 L 228.808594 230.480469 L 226.472656 230.480469 Z M 230.792969 206.699219 L 233.140625 206.699219 L 233.140625 230.480469 L 230.792969 230.480469 Z M 235.113281 206.699219 L 237.367188 206.699219 L 237.367188 230.480469 L 235.113281 230.480469 Z M 244.132812 237.25 L 272.648438 237.25 L 272.648438 265.78125 L 244.132812 265.78125 Z M 246.507812 239.625 L 248.761719 239.625 L 248.761719 263.40625 L 246.507812 263.40625 Z M 250.734375 239.625 L 253.070312 239.625 L 253.070312 263.40625 L 250.734375 263.40625 Z M 255.054688 239.625 L 257.390625 239.625 L 257.390625 263.40625 L 255.054688 263.40625 Z M 259.375 239.625 L 261.710938 239.625 L 261.710938 263.40625 L 259.375 263.40625 Z M 263.695312 239.625 L 266.03125 239.625 L 266.03125 263.40625 L 263.695312 263.40625 Z M 268.019531 239.625 L 270.273438 239.625 L 270.273438 263.40625 L 268.019531 263.40625 Z M 268.019531 239.625 " fill-opacity="1" fill-rule="nonzero"/><path fill="#23a3c2" d="M 244.132812 204.324219 L 272.648438 204.324219 L 272.648438 232.859375 L 244.132812 232.859375 Z M 246.507812 206.699219 L 248.761719 206.699219 L 248.761719 230.480469 L 246.507812 230.480469 Z M 250.734375 206.699219 L 253.070312 206.699219 L 253.070312 230.480469 L 250.734375 230.480469 Z M 255.054688 206.699219 L 257.390625 206.699219 L 257.390625 230.480469 L 255.054688 230.480469 Z M 259.375 206.699219 L 261.710938 206.699219 L 261.710938 230.480469 L 259.375 230.480469 Z M 263.695312 206.699219 L 266.03125 206.699219 L 266.03125 230.480469 L 263.695312 230.480469 Z M 268.019531 206.699219 L 270.273438 206.699219 L 270.273438 230.480469 L 268.019531 230.480469 Z M 268.019531 206.699219 " fill-opacity="1" fill-rule="nonzero"/><path fill="#34bbde" d="M 244.132812 171.402344 L 272.648438 171.402344 L 272.648438 199.933594 L 244.132812 199.933594 Z M 246.507812 173.777344 L 248.761719 173.777344 L 248.761719 197.558594 L 246.507812 197.558594 Z M 250.734375 173.777344 L 253.070312 173.777344 L 253.070312 197.558594 L 250.734375 197.558594 Z M 255.054688 173.777344 L 257.390625 173.777344 L 257.390625 197.558594 L 255.054688 197.558594 Z M 259.375 173.777344 L 261.710938 173.777344 L 261.710938 197.558594 L 259.375 197.558594 Z M 263.695312 173.777344 L 266.03125 173.777344 L 266.03125 197.558594 L 263.695312 197.558594 Z M 268.019531 173.777344 L 270.273438 173.777344 L 270.273438 197.558594 L 268.019531 197.558594 Z M 268.019531 173.777344 " fill-opacity="1" fill-rule="nonzero"/><path fill="#23a3c2" d="M 277.035156 237.25 L 305.550781 237.25 L 305.550781 265.78125 L 277.035156 265.78125 Z M 279.410156 239.625 L 281.664062 239.625 L 281.664062 263.40625 L 279.410156 263.40625 Z M 283.636719 239.625 L 285.972656 239.625 L 285.972656 263.40625 L 283.636719 263.40625 Z M 287.960938 239.625 L 290.292969 239.625 L 290.292969 263.40625 L 287.960938 263.40625 Z M 292.28125 239.625 L 294.613281 239.625 L 294.613281 263.40625 L 292.28125 263.40625 Z M 296.601562 239.625 L 298.9375 239.625 L 298.9375 263.40625 L 296.601562 263.40625 Z M 300.921875 239.625 L 303.175781 239.625 L 303.175781 263.40625 L 300.921875 263.40625 Z M 300.921875 239.625 " fill-opacity="1" fill-rule="nonzero"/><path fill="#d3ecec" d="M 205.054688 312.050781 C 209.402344 312 212.972656 315.476562 213.027344 319.828125 C 213.082031 324.175781 209.605469 327.75 205.257812 327.800781 C 205.191406 327.800781 205.109375 327.800781 205.042969 327.800781 C 200.695312 327.75 197.21875 324.175781 197.285156 319.828125 C 197.351562 315.542969 200.789062 312.105469 205.054688 312.050781 Z M 205.054688 312.050781 " fill-opacity="1" fill-rule="nonzero"/><path fill="#364548" d="M 205.054688 314.28125 C 205.78125 314.28125 206.464844 314.414062 207.09375 314.65625 C 205.996094 315.300781 205.621094 316.699219 206.261719 317.800781 C 206.679688 318.511719 207.429688 318.941406 208.25 318.941406 C 209.121094 318.941406 209.875 318.457031 210.261719 317.746094 C 211.457031 320.617188 210.085938 323.921875 207.214844 325.117188 C 204.34375 326.3125 201.042969 324.941406 199.847656 322.070312 C 198.65625 319.195312 200.023438 315.890625 202.894531 314.699219 C 203.578125 314.429688 204.316406 314.28125 205.054688 314.28125 Z M 205.054688 314.28125 " fill-opacity="1" fill-rule="nonzero"/><path fill="#bdd9d7" d="M 225.960938 368.769531 C 206.476562 359.519531 195.78125 346.9375 189.839844 333.214844 C 182.605469 335.28125 173.894531 336.597656 163.792969 337.175781 C 159.980469 337.390625 155.980469 337.496094 151.78125 337.496094 C 146.9375 337.496094 141.824219 337.347656 136.46875 337.066406 C 154.34375 354.9375 176.324219 368.6875 217.027344 368.945312 C 220.019531 368.945312 222.996094 368.890625 225.960938 368.769531 Z M 225.960938 368.769531 " fill-opacity="1" fill-rule="nonzero"/><path fill="#d3ecec" d="M 197.070312 345.890625 C 194.375 342.222656 191.757812 337.632812 189.839844 333.214844 C 182.605469 335.28125 173.894531 336.609375 163.792969 337.175781 C 170.742188 340.949219 180.671875 344.4375 197.070312 345.890625 Z M 197.070312 345.890625 " fill-opacity="1" fill-rule="nonzero"/><g clip-path="url(#4b9e09f5cc)"><path fill="#000000" d="M 752.976562 295.855469 C 751.789062 292.265625 748.679688 289.765625 744.660156 289.160156 C 742.765625 288.882812 740.59375 289 738.027344 289.53125 C 733.550781 290.453125 730.230469 290.804688 727.800781 290.875 C 736.953125 275.445312 744.398438 257.851562 748.679688 241.292969 C 755.605469 214.515625 751.902344 202.316406 747.574219 196.796875 C 736.132812 182.195312 719.429688 174.347656 699.285156 174.105469 C 688.539062 173.976562 679.101562 176.09375 674.183594 177.617188 C 669.601562 176.8125 664.667969 176.359375 659.507812 176.277344 C 649.8125 176.121094 641.246094 178.230469 633.933594 182.566406 C 629.882812 181.199219 623.382812 179.273438 615.875 178.042969 C 598.21875 175.148438 583.984375 177.402344 573.578125 184.746094 C 560.972656 193.636719 555.128906 209.085938 556.210938 230.660156 C 556.550781 237.511719 560.390625 258.355469 566.429688 278.117188 C 569.902344 289.480469 573.605469 298.910156 577.4375 306.160156 C 582.867188 316.441406 588.679688 322.492188 595.207031 324.671875 C 598.863281 325.882812 605.507812 326.738281 612.496094 320.925781 C 613.382812 321.992188 614.566406 323.058594 616.132812 324.046875 C 618.125 325.304688 620.5625 326.332031 622.992188 326.933594 C 631.761719 329.125 639.972656 328.578125 646.976562 325.511719 C 647.023438 326.753906 647.050781 327.945312 647.082031 328.96875 C 647.128906 330.636719 647.175781 332.265625 647.238281 333.796875 C 647.648438 344.117188 648.351562 352.144531 650.4375 357.765625 C 650.554688 358.074219 650.710938 358.542969 650.871094 359.039062 C 651.90625 362.21875 653.644531 367.542969 658.066406 371.710938 C 662.652344 376.027344 668.195312 377.347656 673.265625 377.347656 C 675.808594 377.347656 678.234375 377.015625 680.371094 376.558594 C 687.960938 374.9375 696.578125 372.460938 702.816406 363.589844 C 708.714844 355.207031 711.574219 342.585938 712.09375 322.6875 C 712.164062 322.125 712.226562 321.589844 712.285156 321.074219 C 712.324219 320.734375 712.363281 320.378906 712.410156 320.023438 L 713.800781 320.148438 L 714.15625 320.171875 C 721.886719 320.527344 731.339844 318.890625 737.148438 316.195312 C 741.738281 314.066406 756.441406 306.3125 752.976562 295.855469 " fill-opacity="1" fill-rule="nonzero"/></g><path fill="#336791" d="M 739.761719 297.886719 C 716.769531 302.625 715.1875 294.851562 715.1875 294.851562 C 739.457031 258.878906 749.609375 213.226562 740.851562 202.058594 C 716.964844 171.574219 675.609375 185.988281 674.917969 186.363281 L 674.695312 186.402344 C 670.15625 185.460938 665.070312 184.902344 659.359375 184.808594 C 648.953125 184.636719 641.070312 187.53125 635.078125 192.066406 C 635.078125 192.066406 561.308594 161.71875 564.742188 230.234375 C 565.472656 244.808594 585.664062 340.519531 609.746094 311.609375 C 618.546875 301.042969 627.050781 292.105469 627.050781 292.105469 C 631.277344 294.90625 636.332031 296.335938 641.632812 295.824219 L 642.042969 295.46875 C 641.917969 296.78125 641.972656 298.070312 642.214844 299.589844 C 636.007812 306.507812 637.832031 307.726562 625.429688 310.273438 C 612.878906 312.859375 620.25 317.453125 625.0625 318.660156 C 630.898438 320.117188 644.402344 322.179688 653.523438 309.425781 L 653.160156 310.886719 C 655.585938 312.832031 657.296875 323.527344 657.007812 333.234375 C 656.722656 342.9375 656.53125 349.597656 658.445312 354.800781 C 660.363281 360.003906 662.273438 371.707031 678.574219 368.214844 C 692.195312 365.304688 699.261719 357.75 700.242188 345.144531 C 700.9375 336.1875 702.515625 337.507812 702.617188 329.503906 L 703.875 325.707031 C 705.335938 313.5625 704.109375 309.640625 712.503906 311.464844 L 714.542969 311.648438 C 720.71875 311.925781 728.804688 310.652344 733.550781 308.453125 C 743.773438 303.714844 749.832031 295.808594 739.753906 297.886719 L 739.761719 297.886719 " fill-opacity="1" fill-rule="nonzero"/><path fill="#ffffff" d="M 639.398438 236.75 C 637.328125 236.464844 635.449219 236.730469 634.5 237.449219 C 633.964844 237.851562 633.804688 238.320312 633.757812 238.640625 C 633.640625 239.496094 634.234375 240.4375 634.597656 240.925781 C 635.644531 242.300781 637.164062 243.246094 638.664062 243.457031 C 638.890625 243.484375 639.105469 243.5 639.316406 243.5 C 641.828125 243.5 644.109375 241.550781 644.308594 240.109375 C 644.5625 238.308594 641.933594 237.105469 639.398438 236.75 " fill-opacity="1" fill-rule="nonzero"/><path fill="#ffffff" d="M 708.027344 236.808594 C 707.828125 235.394531 705.316406 234.992188 702.917969 235.324219 C 700.539062 235.65625 698.21875 236.730469 698.410156 238.148438 C 698.566406 239.25 700.558594 241.132812 702.917969 241.132812 C 703.117188 241.132812 703.320312 241.117188 703.519531 241.089844 C 705.089844 240.871094 706.25 239.875 706.796875 239.296875 C 707.632812 238.421875 708.113281 237.445312 708.027344 236.808594 " fill-opacity="1" fill-rule="nonzero"/><path fill="#ffffff" d="M 747.40625 297.351562 C 746.53125 294.703125 743.710938 293.847656 739.019531 294.820312 C 725.105469 297.683594 720.117188 295.699219 718.480469 294.496094 C 729.300781 278.039062 738.199219 258.144531 743 239.582031 C 745.277344 230.789062 746.53125 222.625 746.632812 215.96875 C 746.746094 208.664062 745.503906 203.296875 742.929688 200.015625 C 732.570312 186.796875 717.367188 179.707031 698.960938 179.511719 C 686.304688 179.367188 675.617188 182.601562 673.542969 183.511719 C 669.183594 182.429688 664.421875 181.761719 659.242188 181.679688 C 649.742188 181.523438 641.535156 183.796875 634.738281 188.425781 C 631.78125 187.328125 624.152344 184.710938 614.820312 183.210938 C 598.683594 180.617188 585.863281 182.582031 576.714844 189.054688 C 565.796875 196.777344 560.757812 210.585938 561.734375 230.089844 C 562.0625 236.652344 565.804688 256.839844 571.714844 276.171875 C 579.492188 301.621094 587.949219 316.023438 596.84375 318.988281 C 597.886719 319.335938 599.085938 319.578125 600.410156 319.578125 C 603.65625 319.578125 607.632812 318.117188 611.773438 313.144531 C 618.648438 304.886719 625.070312 297.960938 627.433594 295.445312 C 630.933594 297.320312 634.777344 298.371094 638.703125 298.472656 C 638.710938 298.578125 638.71875 298.679688 638.726562 298.78125 C 637.9375 299.714844 637.296875 300.53125 636.742188 301.234375 C 634.019531 304.6875 633.457031 305.402344 624.691406 307.203125 C 622.199219 307.71875 615.578125 309.078125 615.480469 313.71875 C 615.375 318.78125 623.304688 320.902344 624.210938 321.128906 C 627.359375 321.914062 630.394531 322.308594 633.285156 322.308594 C 640.328125 322.308594 646.519531 320 651.464844 315.53125 C 651.3125 333.578125 652.070312 351.371094 654.234375 356.792969 C 656.011719 361.230469 660.355469 372.066406 674.078125 372.066406 C 676.085938 372.066406 678.304688 371.835938 680.742188 371.3125 C 695.054688 368.246094 701.273438 361.933594 703.683594 348 C 704.964844 340.558594 707.175781 322.773438 708.214844 313.238281 C 710.410156 313.917969 713.230469 314.234375 716.285156 314.234375 C 722.644531 314.234375 729.988281 312.882812 734.589844 310.746094 C 739.765625 308.351562 749.097656 302.460938 747.40625 297.351562 Z M 713.316406 232.90625 C 713.261719 235.722656 712.875 238.277344 712.464844 240.945312 C 712.023438 243.816406 711.566406 246.78125 711.453125 250.382812 C 711.335938 253.882812 711.777344 257.527344 712.203125 261.054688 C 713.050781 268.171875 713.933594 275.5 710.53125 282.730469 C 710 281.789062 709.488281 280.769531 709.023438 279.636719 C 708.601562 278.609375 707.679688 276.964844 706.414062 274.6875 C 701.464844 265.835938 689.886719 245.085938 695.8125 236.621094 C 697.578125 234.101562 702.058594 231.511719 713.316406 232.90625 Z M 699.671875 185.210938 C 716.167969 185.574219 729.207031 191.738281 738.445312 203.523438 C 745.527344 212.5625 737.726562 253.699219 715.148438 289.183594 C 714.921875 288.898438 714.699219 288.613281 714.460938 288.320312 C 714.367188 288.203125 714.273438 288.078125 714.171875 287.964844 C 720.007812 278.339844 718.875 268.820312 717.851562 260.375 C 717.433594 256.910156 717.042969 253.636719 717.140625 250.566406 C 717.25 247.304688 717.683594 244.511719 718.09375 241.8125 C 718.609375 238.480469 719.128906 235.035156 718.988281 230.976562 C 719.097656 230.550781 719.136719 230.046875 719.082031 229.449219 C 718.710938 225.554688 714.257812 213.898438 705.183594 203.347656 C 700.21875 197.578125 692.984375 191.121094 683.097656 186.765625 C 687.351562 185.886719 693.164062 185.066406 699.671875 185.210938 Z M 607.390625 309.507812 C 602.828125 314.980469 599.679688 313.933594 598.644531 313.59375 C 591.894531 311.339844 584.066406 297.097656 577.160156 274.507812 C 571.1875 254.964844 567.695312 235.3125 567.417969 229.804688 C 566.546875 212.375 570.777344 200.226562 579.996094 193.699219 C 594.996094 183.078125 619.65625 189.4375 629.5625 192.660156 C 629.421875 192.800781 629.273438 192.933594 629.132812 193.074219 C 612.871094 209.476562 613.257812 237.492188 613.296875 239.207031 C 613.296875 239.867188 613.351562 240.800781 613.425781 242.089844 C 613.707031 246.800781 614.226562 255.574219 612.835938 265.507812 C 611.542969 274.734375 614.394531 283.773438 620.652344 290.289062 C 621.300781 290.96875 621.976562 291.601562 622.675781 292.195312 C 619.890625 295.175781 613.835938 301.765625 607.390625 309.507812 Z M 624.765625 286.351562 C 619.722656 281.101562 617.429688 273.785156 618.480469 266.296875 C 619.949219 255.796875 619.40625 246.660156 619.113281 241.753906 C 619.074219 241.066406 619.039062 240.464844 619.015625 239.988281 C 621.390625 237.886719 632.398438 231.996094 640.246094 233.792969 C 643.832031 234.609375 646.015625 237.046875 646.925781 241.238281 C 651.617188 262.929688 647.542969 271.96875 644.273438 279.242188 C 643.59375 280.730469 642.960938 282.152344 642.410156 283.609375 L 641.992188 284.746094 C 640.917969 287.609375 639.929688 290.265625 639.3125 292.789062 C 633.945312 292.773438 628.734375 290.488281 624.765625 286.351562 Z M 625.589844 315.613281 C 624.023438 315.222656 622.613281 314.542969 621.789062 313.976562 C 622.480469 313.652344 623.707031 313.214844 625.835938 312.773438 C 636.148438 310.660156 637.742188 309.160156 641.214844 304.753906 C 642.015625 303.742188 642.914062 302.59375 644.167969 301.203125 L 644.167969 301.195312 C 646.035156 299.109375 646.886719 299.464844 648.433594 300.105469 C 649.6875 300.625 650.90625 302.191406 651.402344 303.917969 C 651.632812 304.730469 651.894531 306.28125 651.039062 307.484375 C 643.773438 317.636719 633.191406 317.511719 625.589844 315.613281 Z M 679.546875 365.75 C 666.929688 368.445312 662.464844 362.023438 659.527344 354.675781 C 657.625 349.933594 656.6875 328.542969 657.355469 304.921875 C 657.363281 304.613281 657.316406 304.304688 657.230469 304.019531 C 657.152344 303.472656 657.035156 302.917969 656.875 302.351562 C 655.894531 298.917969 653.496094 296.046875 650.613281 294.851562 C 649.46875 294.378906 647.367188 293.507812 644.847656 294.15625 C 645.386719 291.941406 646.316406 289.4375 647.328125 286.738281 L 647.753906 285.59375 C 648.230469 284.3125 648.828125 282.976562 649.46875 281.574219 C 652.894531 273.96875 657.585938 263.554688 652.492188 240.035156 C 650.582031 231.222656 644.210938 226.921875 634.558594 227.921875 C 628.765625 228.519531 623.46875 230.851562 620.824219 232.191406 C 620.257812 232.476562 619.738281 232.753906 619.253906 233.023438 C 619.988281 224.148438 622.777344 207.558594 633.199219 197.0625 C 639.761719 190.453125 648.496094 187.1875 659.148438 187.363281 C 680.125 187.707031 693.578125 198.460938 701.167969 207.417969 C 707.714844 215.140625 711.253906 222.917969 712.671875 227.109375 C 702.042969 226.03125 694.804688 228.125 691.140625 233.359375 C 683.164062 244.746094 695.5 266.84375 701.429688 277.457031 C 702.519531 279.402344 703.457031 281.085938 703.757812 281.804688 C 705.683594 286.472656 708.1875 289.59375 710.011719 291.878906 C 710.566406 292.574219 711.117188 293.25 711.527344 293.839844 C 708.304688 294.765625 702.519531 296.910156 703.046875 307.617188 C 702.621094 312.988281 699.597656 338.140625 698.0625 347.03125 C 696.035156 358.773438 691.707031 363.140625 679.546875 365.75 Z M 732.1875 305.585938 C 728.894531 307.117188 723.382812 308.257812 718.152344 308.503906 C 712.367188 308.773438 709.421875 307.855469 708.734375 307.292969 C 708.410156 300.625 710.890625 299.921875 713.527344 299.1875 C 713.9375 299.070312 714.347656 298.957031 714.734375 298.824219 C 714.972656 299.019531 715.246094 299.210938 715.53125 299.402344 C 720.175781 302.46875 728.472656 302.800781 740.167969 300.382812 C 740.210938 300.375 740.257812 300.367188 740.296875 300.359375 C 738.722656 301.835938 736.023438 303.8125 732.1875 305.585938 Z M 732.1875 305.585938 " fill-opacity="1" fill-rule="nonzero"/><g fill="#ffffff" fill-opacity="1"><g transform="translate(421.508692, 337.999082)"><g><path d="M 51.265625 -100.78125 L 65.890625 -100.78125 L 65.890625 -57.703125 L 108.96875 -57.703125 L 108.96875 -43.078125 L 65.890625 -43.078125 L 65.890625 0 L 51.265625 0 L 51.265625 -43.078125 L 8 -43.078125 L 8 -57.703125 L 51.265625 -57.703125 Z M 51.265625 -100.78125 "/></g></g></g></svg>