<svg xmlns="http://www.w3.org/2000/svg" xmlns:xlink="http://www.w3.org/1999/xlink" width="1280" zoomAndPan="magnify" viewBox="0 0 960 540.000001" height="720" preserveAspectRatio="xMidYMid meet" version="1.0"><defs><clipPath id="81eaae48a6"><path d="M 0.886719 0 L 959.113281 0 L 959.113281 539 L 0.886719 539 Z M 0.886719 0 " clip-rule="nonzero"/></clipPath><radialGradient gradientTransform="matrix(1, 0, 0, 1, 0.887245, 0.000019963)" gradientUnits="userSpaceOnUse" r="1099.417599" cx="0" id="57f270f572" cy="0" fx="0" fy="0"><stop stop-opacity="1" stop-color="rgb(24.092102%, 55.445862%, 26.020813%)" offset="0"/><stop stop-opacity="1" stop-color="rgb(24.429321%, 55.702209%, 26.235962%)" offset="0.015625"/><stop stop-opacity="1" stop-color="rgb(24.719238%, 55.923462%, 26.420593%)" offset="0.0273438"/><stop stop-opacity="1" stop-color="rgb(25.009155%, 56.143188%, 26.603699%)" offset="0.0390625"/><stop stop-opacity="1" stop-color="rgb(25.297546%, 56.364441%, 26.78833%)" offset="0.0507812"/><stop stop-opacity="1" stop-color="rgb(25.587463%, 56.584167%, 26.971436%)" offset="0.0625"/><stop stop-opacity="1" stop-color="rgb(25.87738%, 56.803894%, 27.156067%)" offset="0.0742188"/><stop stop-opacity="1" stop-color="rgb(26.165771%, 57.025146%, 27.340698%)" offset="0.0859375"/><stop stop-opacity="1" stop-color="rgb(26.455688%, 57.244873%, 27.523804%)" offset="0.0976562"/><stop stop-opacity="1" stop-color="rgb(26.745605%, 57.4646%, 27.708435%)" offset="0.109375"/><stop stop-opacity="1" stop-color="rgb(27.033997%, 57.685852%, 27.891541%)" offset="0.121094"/><stop stop-opacity="1" stop-color="rgb(27.323914%, 57.905579%, 28.076172%)" offset="0.132812"/><stop stop-opacity="1" stop-color="rgb(27.613831%, 58.126831%, 28.259277%)" offset="0.144531"/><stop stop-opacity="1" stop-color="rgb(27.903748%, 58.346558%, 28.443909%)" offset="0.15625"/><stop stop-opacity="1" stop-color="rgb(28.192139%, 58.566284%, 28.62854%)" offset="0.167969"/><stop stop-opacity="1" stop-color="rgb(28.482056%, 58.787537%, 28.811646%)" offset="0.179688"/><stop stop-opacity="1" stop-color="rgb(28.771973%, 59.007263%, 28.996277%)" offset="0.191406"/><stop stop-opacity="1" stop-color="rgb(29.060364%, 59.228516%, 29.179382%)" offset="0.203125"/><stop stop-opacity="1" stop-color="rgb(29.350281%, 59.448242%, 29.364014%)" offset="0.214844"/><stop stop-opacity="1" stop-color="rgb(29.640198%, 59.667969%, 29.547119%)" offset="0.226562"/><stop stop-opacity="1" stop-color="rgb(29.928589%, 59.889221%, 29.73175%)" offset="0.238281"/><stop stop-opacity="1" stop-color="rgb(30.218506%, 60.108948%, 29.916382%)" offset="0.25"/><stop stop-opacity="1" stop-color="rgb(30.459595%, 60.292053%, 30.06897%)" offset="0.261719"/><stop stop-opacity="1" stop-color="rgb(30.653381%, 60.440063%, 30.192566%)" offset="0.269531"/><stop stop-opacity="1" stop-color="rgb(30.845642%, 60.586548%, 30.314636%)" offset="0.277344"/><stop stop-opacity="1" stop-color="rgb(31.039429%, 60.733032%, 30.436707%)" offset="0.285156"/><stop stop-opacity="1" stop-color="rgb(31.231689%, 60.881042%, 30.560303%)" offset="0.292969"/><stop stop-opacity="1" stop-color="rgb(31.42395%, 61.027527%, 30.682373%)" offset="0.300781"/><stop stop-opacity="1" stop-color="rgb(31.617737%, 61.174011%, 30.804443%)" offset="0.308594"/><stop stop-opacity="1" stop-color="rgb(31.809998%, 61.320496%, 30.92804%)" offset="0.316406"/><stop stop-opacity="1" stop-color="rgb(32.003784%, 61.468506%, 31.05011%)" offset="0.324219"/><stop stop-opacity="1" stop-color="rgb(32.196045%, 61.61499%, 31.173706%)" offset="0.332031"/><stop stop-opacity="1" stop-color="rgb(32.389832%, 61.761475%, 31.295776%)" offset="0.339844"/><stop stop-opacity="1" stop-color="rgb(32.582092%, 61.907959%, 31.417847%)" offset="0.347656"/><stop stop-opacity="1" stop-color="rgb(32.775879%, 62.055969%, 31.541443%)" offset="0.355469"/><stop stop-opacity="1" stop-color="rgb(32.96814%, 62.202454%, 31.663513%)" offset="0.363281"/><stop stop-opacity="1" stop-color="rgb(33.161926%, 62.348938%, 31.787109%)" offset="0.371094"/><stop stop-opacity="1" stop-color="rgb(33.450317%, 62.568665%, 31.970215%)" offset="0.378906"/><stop stop-opacity="1" stop-color="rgb(33.836365%, 62.863159%, 32.215881%)" offset="0.394531"/><stop stop-opacity="1" stop-color="rgb(34.222412%, 63.156128%, 32.460022%)" offset="0.410156"/><stop stop-opacity="1" stop-color="rgb(34.608459%, 63.450623%, 32.705688%)" offset="0.425781"/><stop stop-opacity="1" stop-color="rgb(34.994507%, 63.743591%, 32.951355%)" offset="0.441406"/><stop stop-opacity="1" stop-color="rgb(35.380554%, 64.038086%, 33.197021%)" offset="0.457031"/><stop stop-opacity="1" stop-color="rgb(35.766602%, 64.331055%, 33.442688%)" offset="0.472656"/><stop stop-opacity="1" stop-color="rgb(36.152649%, 64.625549%, 33.686829%)" offset="0.488281"/><stop stop-opacity="1" stop-color="rgb(36.489868%, 64.881897%, 33.901978%)" offset="0.503906"/><stop stop-opacity="1" stop-color="rgb(36.779785%, 65.103149%, 34.086609%)" offset="0.515625"/><stop stop-opacity="1" stop-color="rgb(37.069702%, 65.322876%, 34.269714%)" offset="0.527344"/><stop stop-opacity="1" stop-color="rgb(37.358093%, 65.544128%, 34.454346%)" offset="0.539062"/><stop stop-opacity="1" stop-color="rgb(37.64801%, 65.763855%, 34.637451%)" offset="0.550781"/><stop stop-opacity="1" stop-color="rgb(37.937927%, 65.983582%, 34.822083%)" offset="0.5625"/><stop stop-opacity="1" stop-color="rgb(38.226318%, 66.204834%, 35.006714%)" offset="0.574219"/><stop stop-opacity="1" stop-color="rgb(38.516235%, 66.424561%, 35.189819%)" offset="0.585938"/><stop stop-opacity="1" stop-color="rgb(38.806152%, 66.644287%, 35.374451%)" offset="0.597656"/><stop stop-opacity="1" stop-color="rgb(39.094543%, 66.86554%, 35.557556%)" offset="0.609375"/><stop stop-opacity="1" stop-color="rgb(39.38446%, 67.085266%, 35.742188%)" offset="0.621094"/><stop stop-opacity="1" stop-color="rgb(39.625549%, 67.269897%, 35.894775%)" offset="0.632812"/><stop stop-opacity="1" stop-color="rgb(39.819336%, 67.416382%, 36.018372%)" offset="0.640625"/><stop stop-opacity="1" stop-color="rgb(40.011597%, 67.562866%, 36.140442%)" offset="0.648438"/><stop stop-opacity="1" stop-color="rgb(40.205383%, 67.709351%, 36.264038%)" offset="0.65625"/><stop stop-opacity="1" stop-color="rgb(40.397644%, 67.857361%, 36.386108%)" offset="0.664062"/><stop stop-opacity="1" stop-color="rgb(40.591431%, 68.003845%, 36.508179%)" offset="0.671875"/><stop stop-opacity="1" stop-color="rgb(40.783691%, 68.15033%, 36.631775%)" offset="0.679688"/><stop stop-opacity="1" stop-color="rgb(40.975952%, 68.296814%, 36.753845%)" offset="0.6875"/><stop stop-opacity="1" stop-color="rgb(41.265869%, 68.518066%, 36.938477%)" offset="0.695312"/><stop stop-opacity="1" stop-color="rgb(41.651917%, 68.811035%, 37.182617%)" offset="0.710938"/><stop stop-opacity="1" stop-color="rgb(42.037964%, 69.10553%, 37.428284%)" offset="0.726562"/><stop stop-opacity="1" stop-color="rgb(42.424011%, 69.398499%, 37.67395%)" offset="0.742188"/><stop stop-opacity="1" stop-color="rgb(42.76123%, 69.656372%, 37.889099%)" offset="0.757812"/><stop stop-opacity="1" stop-color="rgb(43.051147%, 69.876099%, 38.072205%)" offset="0.769531"/><stop stop-opacity="1" stop-color="rgb(43.341064%, 70.097351%, 38.256836%)" offset="0.78125"/><stop stop-opacity="1" stop-color="rgb(43.629456%, 70.317078%, 38.439941%)" offset="0.792969"/><stop stop-opacity="1" stop-color="rgb(43.919373%, 70.536804%, 38.624573%)" offset="0.804688"/><stop stop-opacity="1" stop-color="rgb(44.160461%, 70.721436%, 38.777161%)" offset="0.816406"/><stop stop-opacity="1" stop-color="rgb(44.354248%, 70.86792%, 38.900757%)" offset="0.824219"/><stop stop-opacity="1" stop-color="rgb(44.546509%, 71.014404%, 39.022827%)" offset="0.832031"/><stop stop-opacity="1" stop-color="rgb(44.73877%, 71.160889%, 39.146423%)" offset="0.839844"/><stop stop-opacity="1" stop-color="rgb(45.028687%, 71.382141%, 39.329529%)" offset="0.847656"/><stop stop-opacity="1" stop-color="rgb(45.414734%, 71.67511%, 39.575195%)" offset="0.863281"/><stop stop-opacity="1" stop-color="rgb(45.753479%, 71.932983%, 39.790344%)" offset="0.878906"/><stop stop-opacity="1" stop-color="rgb(46.04187%, 72.15271%, 39.97345%)" offset="0.890625"/><stop stop-opacity="1" stop-color="rgb(46.331787%, 72.372437%, 40.158081%)" offset="0.902344"/><stop stop-opacity="1" stop-color="rgb(46.572876%, 72.557068%, 40.310669%)" offset="0.914062"/><stop stop-opacity="1" stop-color="rgb(46.765137%, 72.703552%, 40.434265%)" offset="0.921875"/><stop stop-opacity="1" stop-color="rgb(47.055054%, 72.923279%, 40.617371%)" offset="0.929688"/><stop stop-opacity="1" stop-color="rgb(47.392273%, 73.181152%, 40.83252%)" offset="0.945312"/><stop stop-opacity="1" stop-color="rgb(47.633362%, 73.364258%, 40.985107%)" offset="0.957031"/><stop stop-opacity="1" stop-color="rgb(47.923279%, 73.58551%, 41.169739%)" offset="0.964844"/><stop stop-opacity="1" stop-color="rgb(48.213196%, 73.805237%, 41.35437%)" offset="0.980469"/><stop stop-opacity="1" stop-color="rgb(48.454285%, 73.988342%, 41.506958%)" offset="0.988281"/><stop stop-opacity="1" stop-color="rgb(48.599243%, 74.099731%, 41.598511%)" offset="1"/></radialGradient><clipPath id="8c64123ad7"><path d="M 291 140 L 692.875 140 L 692.875 401 L 291 401 Z M 291 140 " clip-rule="nonzero"/></clipPath></defs><g clip-path="url(#81eaae48a6)"><path fill="#ffffff" d="M 0.886719 0 L 959.113281 0 L 959.113281 539 L 0.886719 539 Z M 0.886719 0 " fill-opacity="1" fill-rule="nonzero"/><path fill="url(#57f270f572)" d="M 0.886719 0 L 0.886719 539 L 959.113281 539 L 959.113281 0 Z M 0.886719 0 " fill-rule="nonzero"/></g><g clip-path="url(#8c64123ad7)"><path fill="#364548" d="M 499.746094 222.367188 L 540.796875 222.367188 L 540.796875 264.332031 L 561.558594 264.332031 C 571.152344 264.332031 581 262.625 590.089844 259.542969 C 594.542969 258.039062 599.550781 255.929688 603.953125 253.285156 C 598.160156 245.71875 595.195312 236.179688 594.324219 226.753906 C 593.136719 213.949219 595.730469 197.277344 604.386719 187.253906 L 608.707031 182.265625 L 613.847656 186.398438 C 626.789062 196.792969 637.6875 211.320312 639.597656 227.894531 C 655.1875 223.304688 673.484375 224.394531 687.230469 232.328125 L 692.875 235.574219 L 689.910156 241.367188 C 678.289062 264.046875 653.996094 271.0625 630.238281 269.820312 C 594.695312 358.332031 517.308594 400.230469 423.480469 400.230469 C 375.011719 400.230469 330.523438 382.117188 305.210938 339.117188 L 304.792969 338.414062 L 301.089844 330.917969 C 292.535156 311.984375 289.6875 291.261719 291.613281 270.542969 L 292.199219 264.332031 L 327.308594 264.332031 L 327.308594 222.367188 L 368.363281 222.367188 L 368.363281 181.328125 L 450.472656 181.328125 L 450.472656 140.285156 L 499.746094 140.285156 Z M 499.746094 222.367188 " fill-opacity="1" fill-rule="nonzero"/></g><path fill="#22a0c8" d="M 632.75 237.902344 C 635.496094 216.511719 619.488281 199.722656 609.5625 191.738281 C 598.125 204.960938 596.335938 239.625 614.300781 254.222656 C 604.289062 263.109375 583.175781 271.179688 561.558594 271.179688 L 298.445312 271.179688 C 296.351562 293.742188 300.304688 314.511719 309.34375 332.289062 L 312.34375 337.761719 C 314.234375 340.976562 316.308594 344.089844 318.539062 347.070312 C 329.351562 347.773438 339.332031 348.007812 348.457031 347.804688 C 366.386719 347.402344 381.019531 345.292969 392.105469 341.445312 C 393.78125 340.925781 395.539062 341.863281 396.054688 343.519531 C 396.558594 345.109375 395.722656 346.816406 394.164062 347.402344 C 392.691406 347.921875 391.152344 348.390625 389.558594 348.84375 C 380.835938 351.335938 371.460938 353.011719 359.390625 353.765625 C 360.109375 353.78125 358.636719 353.863281 358.636719 353.863281 C 358.21875 353.898438 357.714844 353.949219 357.296875 353.964844 C 352.542969 354.234375 347.417969 354.28125 342.160156 354.28125 C 336.417969 354.28125 330.777344 354.183594 324.449219 353.847656 L 324.28125 353.949219 C 346.195312 378.585938 380.484375 393.351562 423.449219 393.351562 C 514.378906 393.351562 591.511719 353.042969 625.667969 262.574219 C 649.894531 265.070312 673.183594 258.875 683.78125 238.203125 C 666.9375 228.511719 645.242188 231.609375 632.75 237.902344 Z M 632.75 237.902344 " fill-opacity="1" fill-rule="nonzero"/><path fill="#37b1d9" d="M 632.75 237.902344 C 635.496094 216.511719 619.488281 199.722656 609.5625 191.738281 C 598.125 204.960938 596.335938 239.625 614.300781 254.222656 C 604.289062 263.109375 583.175781 271.179688 561.558594 271.179688 L 314.015625 271.179688 C 312.945312 305.726562 325.769531 331.9375 348.457031 347.804688 C 366.386719 347.402344 381.019531 345.292969 392.105469 341.445312 C 393.78125 340.925781 395.539062 341.863281 396.054688 343.519531 C 396.558594 345.109375 395.722656 346.816406 394.164062 347.402344 C 392.691406 347.921875 391.152344 348.390625 389.558594 348.84375 C 380.835938 351.335938 370.65625 353.230469 358.585938 353.964844 C 358.585938 353.964844 358.300781 353.679688 358.285156 353.679688 C 389.226562 369.546875 434.113281 369.5 485.546875 349.730469 C 543.226562 327.570312 596.921875 285.371094 634.375 237.082031 C 633.839844 237.367188 633.285156 237.632812 632.75 237.902344 Z M 632.75 237.902344 " fill-opacity="1" fill-rule="nonzero"/><path fill="#1b81a5" d="M 298.929688 298.578125 C 300.570312 310.664062 304.105469 321.976562 309.34375 332.273438 L 312.34375 337.746094 C 314.234375 340.960938 316.308594 344.074219 318.539062 347.050781 C 329.351562 347.753906 339.332031 347.988281 348.457031 347.789062 C 366.386719 347.386719 381.019531 345.277344 392.105469 341.429688 C 393.78125 340.910156 395.539062 341.847656 396.054688 343.503906 C 396.558594 345.09375 395.722656 346.800781 394.164062 347.386719 C 392.691406 347.90625 391.152344 348.375 389.558594 348.828125 C 380.835938 351.320312 370.707031 353.113281 358.636719 353.847656 C 358.21875 353.882812 357.496094 353.882812 357.078125 353.898438 C 352.324219 354.164062 347.25 354.332031 341.992188 354.332031 C 336.25 354.332031 330.390625 354.214844 324.078125 353.898438 C 345.996094 378.535156 380.484375 393.367188 423.464844 393.367188 C 501.320312 393.367188 569.042969 363.824219 608.355469 298.5625 L 298.929688 298.5625 Z M 298.929688 298.578125 " fill-opacity="1" fill-rule="nonzero"/><path fill="#1d91b4" d="M 316.394531 298.578125 C 321.046875 319.800781 332.234375 336.457031 348.472656 347.789062 C 366.40625 347.386719 381.039062 345.277344 392.121094 341.429688 C 393.796875 340.910156 395.554688 341.847656 396.074219 343.503906 C 396.574219 345.09375 395.738281 346.800781 394.179688 347.386719 C 392.707031 347.90625 391.167969 348.375 389.578125 348.828125 C 380.855469 351.320312 370.523438 353.113281 358.433594 353.847656 C 389.375 369.714844 434.128906 369.480469 485.5625 349.730469 C 516.6875 337.777344 546.640625 319.988281 573.515625 298.542969 L 316.394531 298.542969 Z M 316.394531 298.578125 " fill-opacity="1" fill-rule="nonzero"/><path fill="#23a3c2" d="M 334.160156 229.214844 L 369.738281 229.214844 L 369.738281 264.785156 L 334.160156 264.785156 Z M 337.121094 232.175781 L 339.933594 232.175781 L 339.933594 261.820312 L 337.121094 261.820312 Z M 342.394531 232.175781 L 345.308594 232.175781 L 345.308594 261.820312 L 342.394531 261.820312 Z M 347.785156 232.175781 L 350.699219 232.175781 L 350.699219 261.820312 L 347.785156 261.820312 Z M 353.179688 232.175781 L 356.089844 232.175781 L 356.089844 261.820312 L 353.179688 261.820312 Z M 358.570312 232.175781 L 361.484375 232.175781 L 361.484375 261.820312 L 358.570312 261.820312 Z M 363.960938 232.175781 L 366.773438 232.175781 L 366.773438 261.820312 L 363.960938 261.820312 Z M 375.210938 188.171875 L 410.789062 188.171875 L 410.789062 223.742188 L 375.195312 223.742188 Z M 378.175781 191.136719 L 380.988281 191.136719 L 380.988281 220.777344 L 378.175781 220.777344 Z M 383.449219 191.136719 L 386.363281 191.136719 L 386.363281 220.777344 L 383.449219 220.777344 Z M 388.839844 191.136719 L 391.753906 191.136719 L 391.753906 220.777344 L 388.839844 220.777344 Z M 394.230469 191.136719 L 397.144531 191.136719 L 397.144531 220.777344 L 394.230469 220.777344 Z M 399.621094 191.136719 L 402.535156 191.136719 L 402.535156 220.777344 L 399.621094 220.777344 Z M 405.015625 191.136719 L 407.828125 191.136719 L 407.828125 220.777344 L 405.015625 220.777344 Z M 405.015625 191.136719 " fill-opacity="1" fill-rule="nonzero"/><path fill="#34bbde" d="M 375.210938 229.214844 L 410.789062 229.214844 L 410.789062 264.785156 L 375.195312 264.785156 Z M 378.175781 232.175781 L 380.988281 232.175781 L 380.988281 261.820312 L 378.175781 261.820312 Z M 383.449219 232.175781 L 386.363281 232.175781 L 386.363281 261.820312 L 383.449219 261.820312 Z M 388.839844 232.175781 L 391.753906 232.175781 L 391.753906 261.820312 L 388.839844 261.820312 Z M 394.230469 232.175781 L 397.144531 232.175781 L 397.144531 261.820312 L 394.230469 261.820312 Z M 399.621094 232.175781 L 402.535156 232.175781 L 402.535156 261.820312 L 399.621094 261.820312 Z M 405.015625 232.175781 L 407.828125 232.175781 L 407.828125 261.820312 L 405.015625 261.820312 Z M 405.015625 232.175781 " fill-opacity="1" fill-rule="nonzero"/><path fill="#23a3c2" d="M 416.265625 229.214844 L 451.84375 229.214844 L 451.84375 264.785156 L 416.265625 264.785156 Z M 419.230469 232.175781 L 422.042969 232.175781 L 422.042969 261.820312 L 419.230469 261.820312 Z M 424.503906 232.175781 L 427.414062 232.175781 L 427.414062 261.820312 L 424.503906 261.820312 Z M 429.894531 232.175781 L 432.808594 232.175781 L 432.808594 261.820312 L 429.894531 261.820312 Z M 435.285156 232.175781 L 438.199219 232.175781 L 438.199219 261.820312 L 435.285156 261.820312 Z M 440.675781 232.175781 L 443.605469 232.175781 L 443.605469 261.820312 L 440.675781 261.820312 Z M 446.066406 232.175781 L 448.878906 232.175781 L 448.878906 261.820312 L 446.066406 261.820312 Z M 446.066406 232.175781 " fill-opacity="1" fill-rule="nonzero"/><path fill="#34bbde" d="M 416.265625 188.171875 L 451.84375 188.171875 L 451.84375 223.742188 L 416.265625 223.742188 Z M 419.230469 191.136719 L 422.042969 191.136719 L 422.042969 220.777344 L 419.230469 220.777344 Z M 424.503906 191.136719 L 427.414062 191.136719 L 427.414062 220.777344 L 424.503906 220.777344 Z M 429.894531 191.136719 L 432.808594 191.136719 L 432.808594 220.777344 L 429.894531 220.777344 Z M 435.285156 191.136719 L 438.199219 191.136719 L 438.199219 220.777344 L 435.285156 220.777344 Z M 440.675781 191.136719 L 443.605469 191.136719 L 443.605469 220.777344 L 440.675781 220.777344 Z M 446.066406 191.136719 L 448.878906 191.136719 L 448.878906 220.777344 L 446.066406 220.777344 Z M 457.320312 229.214844 L 492.898438 229.214844 L 492.898438 264.785156 L 457.320312 264.785156 Z M 460.28125 232.175781 L 463.09375 232.175781 L 463.09375 261.820312 L 460.28125 261.820312 Z M 465.554688 232.175781 L 468.46875 232.175781 L 468.46875 261.820312 L 465.554688 261.820312 Z M 470.949219 232.175781 L 473.859375 232.175781 L 473.859375 261.820312 L 470.949219 261.820312 Z M 476.339844 232.175781 L 479.25 232.175781 L 479.25 261.820312 L 476.339844 261.820312 Z M 481.730469 232.175781 L 484.644531 232.175781 L 484.644531 261.820312 L 481.730469 261.820312 Z M 487.121094 232.175781 L 489.933594 232.175781 L 489.933594 261.820312 L 487.121094 261.820312 Z M 487.121094 232.175781 " fill-opacity="1" fill-rule="nonzero"/><path fill="#23a3c2" d="M 457.320312 188.171875 L 492.898438 188.171875 L 492.898438 223.742188 L 457.320312 223.742188 Z M 460.28125 191.136719 L 463.09375 191.136719 L 463.09375 220.777344 L 460.28125 220.777344 Z M 465.554688 191.136719 L 468.46875 191.136719 L 468.46875 220.777344 L 465.554688 220.777344 Z M 470.949219 191.136719 L 473.859375 191.136719 L 473.859375 220.777344 L 470.949219 220.777344 Z M 476.339844 191.136719 L 479.25 191.136719 L 479.25 220.777344 L 476.339844 220.777344 Z M 481.730469 191.136719 L 484.644531 191.136719 L 484.644531 220.777344 L 481.730469 220.777344 Z M 487.121094 191.136719 L 489.933594 191.136719 L 489.933594 220.777344 L 487.121094 220.777344 Z M 487.121094 191.136719 " fill-opacity="1" fill-rule="nonzero"/><path fill="#34bbde" d="M 457.320312 147.128906 L 492.898438 147.128906 L 492.898438 182.699219 L 457.320312 182.699219 Z M 460.28125 150.09375 L 463.09375 150.09375 L 463.09375 179.738281 L 460.28125 179.738281 Z M 465.554688 150.09375 L 468.46875 150.09375 L 468.46875 179.738281 L 465.554688 179.738281 Z M 470.949219 150.09375 L 473.859375 150.09375 L 473.859375 179.738281 L 470.949219 179.738281 Z M 476.339844 150.09375 L 479.25 150.09375 L 479.25 179.738281 L 476.339844 179.738281 Z M 481.730469 150.09375 L 484.644531 150.09375 L 484.644531 179.738281 L 481.730469 179.738281 Z M 487.121094 150.09375 L 489.933594 150.09375 L 489.933594 179.738281 L 487.121094 179.738281 Z M 487.121094 150.09375 " fill-opacity="1" fill-rule="nonzero"/><path fill="#23a3c2" d="M 498.371094 229.214844 L 533.949219 229.214844 L 533.949219 264.785156 L 498.371094 264.785156 Z M 501.335938 232.175781 L 504.148438 232.175781 L 504.148438 261.820312 L 501.335938 261.820312 Z M 506.609375 232.175781 L 509.523438 232.175781 L 509.523438 261.820312 L 506.609375 261.820312 Z M 512 232.175781 L 514.914062 232.175781 L 514.914062 261.820312 L 512 261.820312 Z M 517.390625 232.175781 L 520.304688 232.175781 L 520.304688 261.820312 L 517.390625 261.820312 Z M 522.78125 232.175781 L 525.695312 232.175781 L 525.695312 261.820312 L 522.78125 261.820312 Z M 528.175781 232.175781 L 530.988281 232.175781 L 530.988281 261.820312 L 528.175781 261.820312 Z M 528.175781 232.175781 " fill-opacity="1" fill-rule="nonzero"/><path fill="#d3ecec" d="M 408.5625 322.464844 C 413.988281 322.398438 418.441406 326.730469 418.507812 332.15625 C 418.574219 337.578125 414.238281 342.03125 408.816406 342.097656 C 408.730469 342.097656 408.628906 342.097656 408.546875 342.097656 C 403.121094 342.03125 398.785156 337.578125 398.871094 332.15625 C 398.953125 326.816406 403.238281 322.53125 408.5625 322.464844 Z M 408.5625 322.464844 " fill-opacity="1" fill-rule="nonzero"/><path fill="#364548" d="M 408.5625 325.242188 C 409.46875 325.242188 410.320312 325.410156 411.109375 325.710938 C 409.734375 326.515625 409.265625 328.253906 410.070312 329.628906 C 410.589844 330.515625 411.527344 331.050781 412.546875 331.050781 C 413.636719 331.050781 414.574219 330.449219 415.058594 329.5625 C 416.550781 333.144531 414.84375 337.261719 411.257812 338.75 C 407.675781 340.238281 403.558594 338.53125 402.066406 334.949219 C 400.578125 331.367188 402.285156 327.25 405.867188 325.761719 C 406.722656 325.425781 407.644531 325.242188 408.5625 325.242188 Z M 408.5625 325.242188 " fill-opacity="1" fill-rule="nonzero"/><path fill="#bdd9d7" d="M 434.648438 393.167969 C 410.339844 381.632812 396.996094 365.949219 389.578125 348.84375 C 380.550781 351.421875 369.6875 353.0625 357.078125 353.78125 C 352.324219 354.046875 347.335938 354.183594 342.09375 354.183594 C 336.050781 354.183594 329.671875 354 322.992188 353.648438 C 345.292969 375.925781 372.71875 393.066406 423.5 393.382812 C 427.230469 393.382812 430.949219 393.316406 434.648438 393.167969 Z M 434.648438 393.167969 " fill-opacity="1" fill-rule="nonzero"/><path fill="#d3ecec" d="M 398.601562 364.644531 C 395.234375 360.074219 391.972656 354.351562 389.578125 348.84375 C 380.550781 351.421875 369.6875 353.078125 357.078125 353.78125 C 365.753906 358.484375 378.140625 362.835938 398.601562 364.644531 Z M 398.601562 364.644531 " fill-opacity="1" fill-rule="nonzero"/></svg>