<svg xmlns="http://www.w3.org/2000/svg" xmlns:xlink="http://www.w3.org/1999/xlink" width="1280" zoomAndPan="magnify" viewBox="0 0 960 540.000001" height="720" preserveAspectRatio="xMidYMid meet" version="1.0"><defs><clipPath id="051e91cff7"><path d="M 0.886719 0 L 959.113281 0 L 959.113281 539 L 0.886719 539 Z M 0.886719 0 " clip-rule="nonzero"/></clipPath><radialGradient gradientTransform="matrix(1, 0, 0, 1, 0.887245, 0.000019963)" gradientUnits="userSpaceOnUse" r="1099.417778" cx="0" id="c40bbf5690" cy="0" fx="0" fy="0"><stop stop-opacity="1" stop-color="rgb(14.59198%, 26.425171%, 43.234253%)" offset="0"/><stop stop-opacity="1" stop-color="rgb(14.732361%, 26.615906%, 43.435669%)" offset="0.0078125"/><stop stop-opacity="1" stop-color="rgb(14.825439%, 26.742554%, 43.569946%)" offset="0.0117188"/><stop stop-opacity="1" stop-color="rgb(14.918518%, 26.869202%, 43.70575%)" offset="0.015625"/><stop stop-opacity="1" stop-color="rgb(15.011597%, 26.997375%, 43.840027%)" offset="0.0195312"/><stop stop-opacity="1" stop-color="rgb(15.106201%, 27.124023%, 43.974304%)" offset="0.0234375"/><stop stop-opacity="1" stop-color="rgb(15.19928%, 27.250671%, 44.110107%)" offset="0.0273438"/><stop stop-opacity="1" stop-color="rgb(15.292358%, 27.377319%, 44.244385%)" offset="0.03125"/><stop stop-opacity="1" stop-color="rgb(15.385437%, 27.503967%, 44.378662%)" offset="0.0351562"/><stop stop-opacity="1" stop-color="rgb(15.478516%, 27.632141%, 44.514465%)" offset="0.0390625"/><stop stop-opacity="1" stop-color="rgb(15.571594%, 27.758789%, 44.648743%)" offset="0.0429688"/><stop stop-opacity="1" stop-color="rgb(15.666199%, 27.885437%, 44.78302%)" offset="0.046875"/><stop stop-opacity="1" stop-color="rgb(15.759277%, 28.012085%, 44.918823%)" offset="0.0507812"/><stop stop-opacity="1" stop-color="rgb(15.852356%, 28.138733%, 45.053101%)" offset="0.0546875"/><stop stop-opacity="1" stop-color="rgb(15.945435%, 28.266907%, 45.187378%)" offset="0.0585938"/><stop stop-opacity="1" stop-color="rgb(16.038513%, 28.393555%, 45.323181%)" offset="0.0625"/><stop stop-opacity="1" stop-color="rgb(16.133118%, 28.520203%, 45.457458%)" offset="0.0664062"/><stop stop-opacity="1" stop-color="rgb(16.226196%, 28.646851%, 45.591736%)" offset="0.0703125"/><stop stop-opacity="1" stop-color="rgb(16.319275%, 28.773499%, 45.727539%)" offset="0.0742188"/><stop stop-opacity="1" stop-color="rgb(16.412354%, 28.901672%, 45.861816%)" offset="0.078125"/><stop stop-opacity="1" stop-color="rgb(16.505432%, 29.02832%, 45.996094%)" offset="0.0820312"/><stop stop-opacity="1" stop-color="rgb(16.598511%, 29.154968%, 46.131897%)" offset="0.0859375"/><stop stop-opacity="1" stop-color="rgb(16.693115%, 29.281616%, 46.266174%)" offset="0.0898438"/><stop stop-opacity="1" stop-color="rgb(16.786194%, 29.408264%, 46.400452%)" offset="0.09375"/><stop stop-opacity="1" stop-color="rgb(16.879272%, 29.536438%, 46.536255%)" offset="0.0976562"/><stop stop-opacity="1" stop-color="rgb(16.972351%, 29.663086%, 46.670532%)" offset="0.101562"/><stop stop-opacity="1" stop-color="rgb(17.06543%, 29.789734%, 46.80481%)" offset="0.105469"/><stop stop-opacity="1" stop-color="rgb(17.160034%, 29.916382%, 46.939087%)" offset="0.109375"/><stop stop-opacity="1" stop-color="rgb(17.253113%, 30.04303%, 47.07489%)" offset="0.113281"/><stop stop-opacity="1" stop-color="rgb(17.346191%, 30.171204%, 47.209167%)" offset="0.117188"/><stop stop-opacity="1" stop-color="rgb(17.43927%, 30.297852%, 47.343445%)" offset="0.121094"/><stop stop-opacity="1" stop-color="rgb(17.532349%, 30.4245%, 47.479248%)" offset="0.125"/><stop stop-opacity="1" stop-color="rgb(17.625427%, 30.551147%, 47.613525%)" offset="0.128906"/><stop stop-opacity="1" stop-color="rgb(17.720032%, 30.677795%, 47.747803%)" offset="0.132812"/><stop stop-opacity="1" stop-color="rgb(17.81311%, 30.805969%, 47.883606%)" offset="0.136719"/><stop stop-opacity="1" stop-color="rgb(17.906189%, 30.932617%, 48.017883%)" offset="0.140625"/><stop stop-opacity="1" stop-color="rgb(17.999268%, 31.059265%, 48.152161%)" offset="0.144531"/><stop stop-opacity="1" stop-color="rgb(18.092346%, 31.185913%, 48.287964%)" offset="0.148438"/><stop stop-opacity="1" stop-color="rgb(18.186951%, 31.312561%, 48.422241%)" offset="0.152344"/><stop stop-opacity="1" stop-color="rgb(18.280029%, 31.440735%, 48.556519%)" offset="0.15625"/><stop stop-opacity="1" stop-color="rgb(18.373108%, 31.567383%, 48.692322%)" offset="0.160156"/><stop stop-opacity="1" stop-color="rgb(18.466187%, 31.694031%, 48.826599%)" offset="0.164062"/><stop stop-opacity="1" stop-color="rgb(18.559265%, 31.820679%, 48.960876%)" offset="0.167969"/><stop stop-opacity="1" stop-color="rgb(18.65387%, 31.947327%, 49.09668%)" offset="0.171875"/><stop stop-opacity="1" stop-color="rgb(18.746948%, 32.0755%, 49.230957%)" offset="0.175781"/><stop stop-opacity="1" stop-color="rgb(18.840027%, 32.202148%, 49.365234%)" offset="0.179688"/><stop stop-opacity="1" stop-color="rgb(18.933105%, 32.328796%, 49.501038%)" offset="0.183594"/><stop stop-opacity="1" stop-color="rgb(19.026184%, 32.455444%, 49.635315%)" offset="0.1875"/><stop stop-opacity="1" stop-color="rgb(19.119263%, 32.582092%, 49.769592%)" offset="0.191406"/><stop stop-opacity="1" stop-color="rgb(19.213867%, 32.710266%, 49.905396%)" offset="0.195312"/><stop stop-opacity="1" stop-color="rgb(19.306946%, 32.836914%, 50.039673%)" offset="0.199219"/><stop stop-opacity="1" stop-color="rgb(19.400024%, 32.963562%, 50.17395%)" offset="0.203125"/><stop stop-opacity="1" stop-color="rgb(19.493103%, 33.09021%, 50.308228%)" offset="0.207031"/><stop stop-opacity="1" stop-color="rgb(19.586182%, 33.216858%, 50.444031%)" offset="0.210938"/><stop stop-opacity="1" stop-color="rgb(19.680786%, 33.345032%, 50.578308%)" offset="0.214844"/><stop stop-opacity="1" stop-color="rgb(19.773865%, 33.47168%, 50.712585%)" offset="0.21875"/><stop stop-opacity="1" stop-color="rgb(19.866943%, 33.598328%, 50.848389%)" offset="0.222656"/><stop stop-opacity="1" stop-color="rgb(19.960022%, 33.724976%, 50.982666%)" offset="0.226562"/><stop stop-opacity="1" stop-color="rgb(20.053101%, 33.851624%, 51.116943%)" offset="0.230469"/><stop stop-opacity="1" stop-color="rgb(20.146179%, 33.979797%, 51.252747%)" offset="0.234375"/><stop stop-opacity="1" stop-color="rgb(20.240784%, 34.106445%, 51.387024%)" offset="0.238281"/><stop stop-opacity="1" stop-color="rgb(20.333862%, 34.233093%, 51.521301%)" offset="0.242188"/><stop stop-opacity="1" stop-color="rgb(20.426941%, 34.359741%, 51.657104%)" offset="0.246094"/><stop stop-opacity="1" stop-color="rgb(20.52002%, 34.486389%, 51.791382%)" offset="0.25"/><stop stop-opacity="1" stop-color="rgb(20.6604%, 34.677124%, 51.992798%)" offset="0.253906"/><stop stop-opacity="1" stop-color="rgb(20.848083%, 34.931946%, 52.262878%)" offset="0.261719"/><stop stop-opacity="1" stop-color="rgb(21.034241%, 35.185242%, 52.532959%)" offset="0.269531"/><stop stop-opacity="1" stop-color="rgb(21.220398%, 35.440063%, 52.801514%)" offset="0.277344"/><stop stop-opacity="1" stop-color="rgb(21.408081%, 35.693359%, 53.071594%)" offset="0.285156"/><stop stop-opacity="1" stop-color="rgb(21.594238%, 35.946655%, 53.341675%)" offset="0.292969"/><stop stop-opacity="1" stop-color="rgb(21.780396%, 36.201477%, 53.610229%)" offset="0.300781"/><stop stop-opacity="1" stop-color="rgb(21.968079%, 36.454773%, 53.88031%)" offset="0.308594"/><stop stop-opacity="1" stop-color="rgb(22.154236%, 36.709595%, 54.148865%)" offset="0.316406"/><stop stop-opacity="1" stop-color="rgb(22.340393%, 36.962891%, 54.418945%)" offset="0.324219"/><stop stop-opacity="1" stop-color="rgb(22.528076%, 37.216187%, 54.689026%)" offset="0.332031"/><stop stop-opacity="1" stop-color="rgb(22.714233%, 37.471008%, 54.957581%)" offset="0.339844"/><stop stop-opacity="1" stop-color="rgb(22.901917%, 37.724304%, 55.227661%)" offset="0.347656"/><stop stop-opacity="1" stop-color="rgb(23.088074%, 37.979126%, 55.497742%)" offset="0.355469"/><stop stop-opacity="1" stop-color="rgb(23.274231%, 38.232422%, 55.766296%)" offset="0.363281"/><stop stop-opacity="1" stop-color="rgb(23.461914%, 38.485718%, 56.036377%)" offset="0.371094"/><stop stop-opacity="1" stop-color="rgb(23.648071%, 38.74054%, 56.306458%)" offset="0.378906"/><stop stop-opacity="1" stop-color="rgb(23.834229%, 38.993835%, 56.575012%)" offset="0.386719"/><stop stop-opacity="1" stop-color="rgb(24.021912%, 39.248657%, 56.845093%)" offset="0.394531"/><stop stop-opacity="1" stop-color="rgb(24.208069%, 39.501953%, 57.113647%)" offset="0.402344"/><stop stop-opacity="1" stop-color="rgb(24.395752%, 39.755249%, 57.383728%)" offset="0.410156"/><stop stop-opacity="1" stop-color="rgb(24.581909%, 40.010071%, 57.653809%)" offset="0.417969"/><stop stop-opacity="1" stop-color="rgb(24.768066%, 40.263367%, 57.922363%)" offset="0.425781"/><stop stop-opacity="1" stop-color="rgb(24.95575%, 40.518188%, 58.192444%)" offset="0.433594"/><stop stop-opacity="1" stop-color="rgb(25.141907%, 40.771484%, 58.462524%)" offset="0.441406"/><stop stop-opacity="1" stop-color="rgb(25.328064%, 41.02478%, 58.731079%)" offset="0.449219"/><stop stop-opacity="1" stop-color="rgb(25.515747%, 41.279602%, 59.00116%)" offset="0.457031"/><stop stop-opacity="1" stop-color="rgb(25.701904%, 41.532898%, 59.27124%)" offset="0.464844"/><stop stop-opacity="1" stop-color="rgb(25.888062%, 41.78772%, 59.539795%)" offset="0.472656"/><stop stop-opacity="1" stop-color="rgb(26.075745%, 42.041016%, 59.809875%)" offset="0.480469"/><stop stop-opacity="1" stop-color="rgb(26.261902%, 42.294312%, 60.079956%)" offset="0.488281"/><stop stop-opacity="1" stop-color="rgb(26.449585%, 42.549133%, 60.348511%)" offset="0.496094"/><stop stop-opacity="1" stop-color="rgb(26.58844%, 42.738342%, 60.551453%)" offset="0.503906"/><stop stop-opacity="1" stop-color="rgb(26.681519%, 42.866516%, 60.68573%)" offset="0.507812"/><stop stop-opacity="1" stop-color="rgb(26.776123%, 42.993164%, 60.820007%)" offset="0.511719"/><stop stop-opacity="1" stop-color="rgb(26.869202%, 43.119812%, 60.955811%)" offset="0.515625"/><stop stop-opacity="1" stop-color="rgb(26.96228%, 43.24646%, 61.090088%)" offset="0.519531"/><stop stop-opacity="1" stop-color="rgb(27.055359%, 43.373108%, 61.224365%)" offset="0.523438"/><stop stop-opacity="1" stop-color="rgb(27.148438%, 43.501282%, 61.360168%)" offset="0.527344"/><stop stop-opacity="1" stop-color="rgb(27.241516%, 43.62793%, 61.494446%)" offset="0.53125"/><stop stop-opacity="1" stop-color="rgb(27.336121%, 43.754578%, 61.628723%)" offset="0.535156"/><stop stop-opacity="1" stop-color="rgb(27.429199%, 43.881226%, 61.764526%)" offset="0.539062"/><stop stop-opacity="1" stop-color="rgb(27.522278%, 44.007874%, 61.898804%)" offset="0.542969"/><stop stop-opacity="1" stop-color="rgb(27.615356%, 44.136047%, 62.033081%)" offset="0.546875"/><stop stop-opacity="1" stop-color="rgb(27.708435%, 44.262695%, 62.168884%)" offset="0.550781"/><stop stop-opacity="1" stop-color="rgb(27.80304%, 44.389343%, 62.303162%)" offset="0.554688"/><stop stop-opacity="1" stop-color="rgb(27.896118%, 44.515991%, 62.437439%)" offset="0.558594"/><stop stop-opacity="1" stop-color="rgb(27.989197%, 44.642639%, 62.573242%)" offset="0.5625"/><stop stop-opacity="1" stop-color="rgb(28.082275%, 44.770813%, 62.70752%)" offset="0.566406"/><stop stop-opacity="1" stop-color="rgb(28.175354%, 44.897461%, 62.841797%)" offset="0.570312"/><stop stop-opacity="1" stop-color="rgb(28.268433%, 45.024109%, 62.9776%)" offset="0.574219"/><stop stop-opacity="1" stop-color="rgb(28.363037%, 45.150757%, 63.111877%)" offset="0.578125"/><stop stop-opacity="1" stop-color="rgb(28.456116%, 45.277405%, 63.246155%)" offset="0.582031"/><stop stop-opacity="1" stop-color="rgb(28.549194%, 45.405579%, 63.381958%)" offset="0.585938"/><stop stop-opacity="1" stop-color="rgb(28.642273%, 45.532227%, 63.516235%)" offset="0.589844"/><stop stop-opacity="1" stop-color="rgb(28.735352%, 45.658875%, 63.650513%)" offset="0.59375"/><stop stop-opacity="1" stop-color="rgb(28.829956%, 45.785522%, 63.78479%)" offset="0.597656"/><stop stop-opacity="1" stop-color="rgb(28.923035%, 45.91217%, 63.920593%)" offset="0.601562"/><stop stop-opacity="1" stop-color="rgb(29.016113%, 46.040344%, 64.054871%)" offset="0.605469"/><stop stop-opacity="1" stop-color="rgb(29.109192%, 46.166992%, 64.189148%)" offset="0.609375"/><stop stop-opacity="1" stop-color="rgb(29.202271%, 46.29364%, 64.324951%)" offset="0.613281"/><stop stop-opacity="1" stop-color="rgb(29.295349%, 46.420288%, 64.459229%)" offset="0.617188"/><stop stop-opacity="1" stop-color="rgb(29.389954%, 46.546936%, 64.593506%)" offset="0.621094"/><stop stop-opacity="1" stop-color="rgb(29.483032%, 46.67511%, 64.729309%)" offset="0.625"/><stop stop-opacity="1" stop-color="rgb(29.623413%, 46.865845%, 64.930725%)" offset="0.628906"/><stop stop-opacity="1" stop-color="rgb(29.80957%, 47.119141%, 65.200806%)" offset="0.636719"/><stop stop-opacity="1" stop-color="rgb(29.997253%, 47.372437%, 65.46936%)" offset="0.644531"/><stop stop-opacity="1" stop-color="rgb(30.183411%, 47.627258%, 65.739441%)" offset="0.652344"/><stop stop-opacity="1" stop-color="rgb(30.369568%, 47.880554%, 66.009521%)" offset="0.660156"/><stop stop-opacity="1" stop-color="rgb(30.557251%, 48.135376%, 66.278076%)" offset="0.667969"/><stop stop-opacity="1" stop-color="rgb(30.743408%, 48.388672%, 66.548157%)" offset="0.675781"/><stop stop-opacity="1" stop-color="rgb(30.929565%, 48.641968%, 66.818237%)" offset="0.683594"/><stop stop-opacity="1" stop-color="rgb(31.117249%, 48.89679%, 67.086792%)" offset="0.691406"/><stop stop-opacity="1" stop-color="rgb(31.303406%, 49.150085%, 67.356873%)" offset="0.699219"/><stop stop-opacity="1" stop-color="rgb(31.491089%, 49.404907%, 67.625427%)" offset="0.707031"/><stop stop-opacity="1" stop-color="rgb(31.677246%, 49.658203%, 67.895508%)" offset="0.714844"/><stop stop-opacity="1" stop-color="rgb(31.863403%, 49.911499%, 68.165588%)" offset="0.722656"/><stop stop-opacity="1" stop-color="rgb(32.051086%, 50.166321%, 68.434143%)" offset="0.730469"/><stop stop-opacity="1" stop-color="rgb(32.237244%, 50.419617%, 68.704224%)" offset="0.738281"/><stop stop-opacity="1" stop-color="rgb(32.423401%, 50.674438%, 68.974304%)" offset="0.746094"/><stop stop-opacity="1" stop-color="rgb(32.563782%, 50.863647%, 69.17572%)" offset="0.753906"/><stop stop-opacity="1" stop-color="rgb(32.65686%, 50.990295%, 69.311523%)" offset="0.757812"/><stop stop-opacity="1" stop-color="rgb(32.749939%, 51.118469%, 69.445801%)" offset="0.761719"/><stop stop-opacity="1" stop-color="rgb(32.843018%, 51.245117%, 69.580078%)" offset="0.765625"/><stop stop-opacity="1" stop-color="rgb(32.937622%, 51.371765%, 69.715881%)" offset="0.769531"/><stop stop-opacity="1" stop-color="rgb(33.030701%, 51.498413%, 69.850159%)" offset="0.773438"/><stop stop-opacity="1" stop-color="rgb(33.123779%, 51.625061%, 69.984436%)" offset="0.777344"/><stop stop-opacity="1" stop-color="rgb(33.216858%, 51.753235%, 70.120239%)" offset="0.78125"/><stop stop-opacity="1" stop-color="rgb(33.309937%, 51.879883%, 70.254517%)" offset="0.785156"/><stop stop-opacity="1" stop-color="rgb(33.404541%, 52.006531%, 70.388794%)" offset="0.789062"/><stop stop-opacity="1" stop-color="rgb(33.49762%, 52.133179%, 70.523071%)" offset="0.792969"/><stop stop-opacity="1" stop-color="rgb(33.590698%, 52.259827%, 70.658875%)" offset="0.796875"/><stop stop-opacity="1" stop-color="rgb(33.683777%, 52.388%, 70.793152%)" offset="0.800781"/><stop stop-opacity="1" stop-color="rgb(33.776855%, 52.514648%, 70.927429%)" offset="0.804688"/><stop stop-opacity="1" stop-color="rgb(33.869934%, 52.641296%, 71.063232%)" offset="0.808594"/><stop stop-opacity="1" stop-color="rgb(33.964539%, 52.767944%, 71.19751%)" offset="0.8125"/><stop stop-opacity="1" stop-color="rgb(34.104919%, 52.958679%, 71.398926%)" offset="0.816406"/><stop stop-opacity="1" stop-color="rgb(34.291077%, 53.213501%, 71.669006%)" offset="0.824219"/><stop stop-opacity="1" stop-color="rgb(34.477234%, 53.466797%, 71.939087%)" offset="0.832031"/><stop stop-opacity="1" stop-color="rgb(34.664917%, 53.720093%, 72.207642%)" offset="0.839844"/><stop stop-opacity="1" stop-color="rgb(34.851074%, 53.974915%, 72.477722%)" offset="0.847656"/><stop stop-opacity="1" stop-color="rgb(35.038757%, 54.22821%, 72.747803%)" offset="0.855469"/><stop stop-opacity="1" stop-color="rgb(35.224915%, 54.483032%, 73.016357%)" offset="0.863281"/><stop stop-opacity="1" stop-color="rgb(35.411072%, 54.736328%, 73.286438%)" offset="0.871094"/><stop stop-opacity="1" stop-color="rgb(35.551453%, 54.927063%, 73.48938%)" offset="0.878906"/><stop stop-opacity="1" stop-color="rgb(35.644531%, 55.053711%, 73.623657%)" offset="0.882812"/><stop stop-opacity="1" stop-color="rgb(35.73761%, 55.180359%, 73.757935%)" offset="0.886719"/><stop stop-opacity="1" stop-color="rgb(35.830688%, 55.307007%, 73.892212%)" offset="0.890625"/><stop stop-opacity="1" stop-color="rgb(35.925293%, 55.433655%, 74.028015%)" offset="0.894531"/><stop stop-opacity="1" stop-color="rgb(36.018372%, 55.561829%, 74.162292%)" offset="0.898438"/><stop stop-opacity="1" stop-color="rgb(36.11145%, 55.688477%, 74.29657%)" offset="0.902344"/><stop stop-opacity="1" stop-color="rgb(36.204529%, 55.815125%, 74.432373%)" offset="0.90625"/><stop stop-opacity="1" stop-color="rgb(36.34491%, 56.005859%, 74.633789%)" offset="0.910156"/><stop stop-opacity="1" stop-color="rgb(36.531067%, 56.259155%, 74.90387%)" offset="0.917969"/><stop stop-opacity="1" stop-color="rgb(36.71875%, 56.513977%, 75.172424%)" offset="0.925781"/><stop stop-opacity="1" stop-color="rgb(36.904907%, 56.767273%, 75.442505%)" offset="0.933594"/><stop stop-opacity="1" stop-color="rgb(37.045288%, 56.958008%, 75.645447%)" offset="0.941406"/><stop stop-opacity="1" stop-color="rgb(37.138367%, 57.084656%, 75.779724%)" offset="0.945312"/><stop stop-opacity="1" stop-color="rgb(37.231445%, 57.211304%, 75.914001%)" offset="0.949219"/><stop stop-opacity="1" stop-color="rgb(37.324524%, 57.337952%, 76.049805%)" offset="0.953125"/><stop stop-opacity="1" stop-color="rgb(37.464905%, 57.528687%, 76.251221%)" offset="0.957031"/><stop stop-opacity="1" stop-color="rgb(37.652588%, 57.783508%, 76.521301%)" offset="0.964844"/><stop stop-opacity="1" stop-color="rgb(37.791443%, 57.972717%, 76.722717%)" offset="0.972656"/><stop stop-opacity="1" stop-color="rgb(37.884521%, 58.100891%, 76.858521%)" offset="0.976562"/><stop stop-opacity="1" stop-color="rgb(38.024902%, 58.291626%, 77.059937%)" offset="0.980469"/><stop stop-opacity="1" stop-color="rgb(38.165283%, 58.480835%, 77.261353%)" offset="0.988281"/><stop stop-opacity="1" stop-color="rgb(38.305664%, 58.67157%, 77.464294%)" offset="0.992188"/><stop stop-opacity="1" stop-color="rgb(38.398743%, 58.799744%, 77.598572%)" offset="1"/></radialGradient><clipPath id="25706e99d9"><path d="M 389.59375 195.695312 L 570.757812 195.695312 L 570.757812 343.171875 L 389.59375 343.171875 Z M 389.59375 195.695312 " clip-rule="nonzero"/></clipPath><clipPath id="4a50ea90a8"><path d="M 154.296875 126 L 247.125 126 L 247.125 220 L 154.296875 220 Z M 154.296875 126 " clip-rule="nonzero"/></clipPath><clipPath id="018727822a"><path d="M 146.800781 295.636719 L 247.117188 295.636719 L 247.117188 407.929688 L 146.800781 407.929688 Z M 146.800781 295.636719 " clip-rule="nonzero"/></clipPath><clipPath id="9ea7d1e657"><path d="M 549.035156 43.785156 L 640.367188 43.785156 L 640.367188 135 L 549.035156 135 Z M 549.035156 43.785156 " clip-rule="nonzero"/></clipPath><clipPath id="009b8aefdf"><path d="M 688 342 L 802.34375 342 L 802.34375 406.703125 L 688 406.703125 Z M 688 342 " clip-rule="nonzero"/></clipPath><clipPath id="fb84424907"><path d="M 314.496094 37.171875 L 411.816406 37.171875 L 411.816406 124.761719 L 314.496094 124.761719 Z M 314.496094 37.171875 " clip-rule="nonzero"/></clipPath><clipPath id="e6647d7146"><path d="M 305.078125 401.171875 L 421.113281 401.171875 L 421.113281 503.730469 L 305.078125 503.730469 Z M 305.078125 401.171875 " clip-rule="nonzero"/></clipPath><clipPath id="cc0164a8e8"><path d="M 521.082031 438.347656 L 668.558594 438.347656 L 668.558594 495.242188 L 521.082031 495.242188 Z M 521.082031 438.347656 " clip-rule="nonzero"/></clipPath></defs><g clip-path="url(#051e91cff7)"><path fill="#ffffff" d="M 0.886719 0 L 959.113281 0 L 959.113281 539 L 0.886719 539 Z M 0.886719 0 " fill-opacity="1" fill-rule="nonzero"/><path fill="url(#c40bbf5690)" d="M 0.886719 0 L 0.886719 539 L 959.113281 539 L 959.113281 0 Z M 0.886719 0 " fill-rule="nonzero"/></g><g clip-path="url(#25706e99d9)"><path fill="#000000" d="M 393.261719 195.695312 L 567.085938 195.695312 C 567.554688 195.695312 568.007812 195.785156 568.4375 195.964844 C 568.871094 196.144531 569.253906 196.398438 569.585938 196.726562 C 569.917969 197.058594 570.171875 197.4375 570.351562 197.871094 C 570.53125 198.300781 570.621094 198.75 570.621094 199.21875 L 570.621094 339.679688 C 570.621094 340.144531 570.53125 340.59375 570.351562 341.027344 C 570.171875 341.457031 569.917969 341.839844 569.585938 342.167969 C 569.253906 342.5 568.871094 342.753906 568.4375 342.933594 C 568.007812 343.113281 567.554688 343.199219 567.085938 343.199219 L 393.261719 343.199219 C 392.792969 343.199219 392.34375 343.113281 391.910156 342.933594 C 391.476562 342.753906 391.097656 342.5 390.765625 342.167969 C 390.433594 341.839844 390.179688 341.457031 390 341.027344 C 389.820312 340.59375 389.730469 340.144531 389.730469 339.679688 L 389.730469 199.21875 C 389.730469 198.75 389.820312 198.300781 390 197.871094 C 390.179688 197.4375 390.433594 197.058594 390.765625 196.726562 C 391.097656 196.398438 391.476562 196.144531 391.910156 195.964844 C 392.34375 195.785156 392.792969 195.695312 393.261719 195.695312 Z M 393.261719 195.695312 " fill-opacity="1" fill-rule="nonzero"/></g><path fill="#ffffff" d="M 409.683594 211.039062 C 409.082031 210.433594 408.351562 210.132812 407.496094 210.132812 C 406.640625 210.132812 405.910156 210.4375 405.296875 211.046875 C 404.695312 211.648438 404.390625 212.378906 404.390625 213.230469 C 404.390625 214.082031 404.695312 214.8125 405.296875 215.414062 L 414.796875 224.882812 L 405.308594 234.347656 C 404.695312 234.957031 404.390625 235.6875 404.382812 236.539062 C 404.390625 237.390625 404.695312 238.121094 405.296875 238.722656 C 405.910156 239.320312 406.640625 239.625 407.488281 239.632812 C 408.351562 239.632812 409.082031 239.332031 409.695312 238.722656 L 420.246094 228.191406 C 422.460938 225.988281 422.460938 223.78125 420.246094 221.570312 Z M 451.054688 234.363281 C 450.441406 233.753906 449.703125 233.449219 448.839844 233.449219 L 448.839844 233.445312 L 428.464844 233.445312 L 428.464844 233.449219 C 427.601562 233.449219 426.867188 233.753906 426.257812 234.363281 C 425.648438 234.972656 425.339844 235.703125 425.339844 236.566406 C 425.339844 237.425781 425.648438 238.164062 426.257812 238.773438 C 426.867188 239.382812 427.601562 239.6875 428.464844 239.6875 L 428.464844 239.683594 L 448.839844 239.683594 L 448.839844 239.6875 C 449.703125 239.6875 450.441406 239.382812 451.054688 238.773438 C 451.664062 238.164062 451.96875 237.425781 451.96875 236.566406 C 451.96875 235.703125 451.664062 234.972656 451.054688 234.363281 Z M 451.054688 234.363281 " fill-opacity="1" fill-rule="nonzero"/><g clip-path="url(#4a50ea90a8)"><path fill="#000000" d="M 200.710938 126.597656 C 175.078125 126.597656 154.296875 147.351562 154.296875 172.953125 C 154.296875 198.550781 175.078125 219.304688 200.710938 219.304688 C 226.34375 219.304688 247.125 198.550781 247.125 172.953125 C 247.125 147.351562 226.34375 126.597656 200.710938 126.597656 Z M 162.03125 172.953125 C 162.03125 151.617188 179.347656 134.324219 200.710938 134.324219 C 222.070312 134.324219 239.386719 151.617188 239.386719 172.953125 C 239.386719 190.335938 227.890625 205.039062 212.074219 209.886719 C 212.507812 202.078125 212.359375 197.242188 211.628906 195.378906 C 210.859375 193.410156 210.234375 192.601562 209.859375 192.117188 C 209.613281 191.800781 209.472656 191.625 209.472656 191.347656 C 209.472656 190.882812 209.800781 190.546875 210.453125 190.339844 C 216.152344 189.082031 219.972656 185.585938 221.917969 179.847656 C 224.613281 171.898438 220.765625 166.117188 219.210938 163.777344 C 219.082031 163.585938 218.96875 163.414062 218.878906 163.269531 C 217.667969 161.363281 219.253906 156.722656 221.144531 153.007812 C 214.710938 151.71875 212.25 154.703125 210.84375 156.417969 C 210.265625 157.117188 209.863281 157.601562 209.441406 157.5 C 209.058594 157.40625 208.648438 157.226562 208.160156 157.011719 C 206.753906 156.394531 204.683594 155.484375 200.710938 155.484375 C 195.785156 155.484375 192.519531 157.203125 192.023438 157.464844 C 191.976562 157.488281 191.957031 157.5 191.957031 157.5 C 189.367188 153.894531 185.691406 152.398438 180.925781 153.007812 C 182.238281 158.242188 182.335938 161.664062 181.222656 163.269531 C 179.550781 165.675781 176.414062 171.277344 178.847656 179.847656 C 181.28125 188.414062 190.140625 190.339844 191.828125 190.339844 L 191.839844 190.34375 C 191.972656 190.371094 193.214844 190.640625 192.84375 191.6875 C 192.769531 191.964844 192.71875 192.34375 192.664062 192.773438 C 192.488281 194.144531 192.25 196.007812 190.933594 196.613281 C 189.207031 197.410156 185.394531 197.84375 183.800781 196.851562 C 183.269531 196.519531 182.886719 195.828125 182.425781 194.996094 C 181.507812 193.328125 180.277344 191.09375 176.90625 190.054688 C 171.851562 188.496094 172.167969 190.558594 173.429688 191.0625 C 173.707031 191.175781 174.074219 191.28125 174.496094 191.398438 C 175.984375 191.820312 178.125 192.425781 179.222656 194.1875 C 179.542969 194.703125 179.875 195.269531 180.210938 195.847656 C 181.355469 197.800781 182.578125 199.894531 183.800781 200.699219 C 184.855469 201.390625 187.386719 201.671875 191.394531 201.53125 C 191.21875 205.308594 191.128906 208.257812 191.113281 210.382812 C 174.394531 206.121094 162.03125 190.976562 162.03125 172.953125 Z M 162.03125 172.953125 " fill-opacity="0.85" fill-rule="evenodd"/></g><g clip-path="url(#018727822a)"><path fill="#000000" d="M 247.039062 315.070312 L 247.039062 350.65625 L 215.871094 368.449219 L 215.871094 333.417969 Z M 212.535156 333.417969 L 212.535156 368.449219 L 181.367188 350.65625 L 181.367188 315.070312 Z M 212.535156 372.339844 L 212.535156 407.929688 L 181.367188 390.132812 L 181.367188 354.546875 Z M 178.027344 313.402344 L 178.027344 348.988281 L 146.859375 331.195312 L 146.859375 295.609375 Z M 178.027344 313.402344 " fill-opacity="1" fill-rule="nonzero"/></g><g clip-path="url(#9ea7d1e657)"><path fill="#000000" d="M 591.695312 43.785156 C 568.160156 43.785156 549.035156 62.910156 549.035156 86.445312 C 549.035156 109.976562 568.160156 129.105469 591.695312 129.105469 C 595.6875 129.105469 599.589844 128.527344 603.328125 127.46875 L 603.328125 119.984375 C 600.429688 122.785156 597.140625 124.582031 593.632812 125.074219 L 593.632812 109.714844 L 603.328125 109.714844 L 603.328125 105.835938 L 593.632812 105.835938 L 593.632812 88.382812 L 603.328125 88.382812 L 603.328125 84.503906 L 593.632812 84.503906 L 593.632812 67.054688 L 611.804688 67.054688 C 613.539062 72.058594 614.636719 77.757812 614.882812 83.847656 L 616.902344 85.746094 L 618.820312 87.535156 L 619.722656 88.382812 L 630.410156 88.382812 C 630.257812 91.34375 629.789062 94.253906 628.984375 97.070312 L 632.121094 100.011719 C 633.582031 95.671875 634.355469 91.109375 634.355469 86.445312 C 634.355469 62.910156 615.230469 43.785156 591.695312 43.785156 Z M 589.757812 47.820312 L 589.757812 63.175781 L 573.160156 63.175781 C 573.886719 61.578125 574.660156 60.054688 575.515625 58.675781 C 579.386719 52.425781 584.378906 48.578125 589.757812 47.820312 Z M 593.632812 47.820312 C 600.429688 48.761719 606.390625 54.578125 610.269531 63.175781 L 593.632812 63.175781 Z M 606.238281 50.480469 C 612.828125 53.148438 618.492188 57.578125 622.699219 63.175781 L 614.417969 63.175781 C 612.296875 58.078125 609.503906 53.753906 606.238281 50.480469 Z M 577.007812 50.554688 C 575.257812 52.320312 573.636719 54.34375 572.222656 56.632812 C 570.980469 58.636719 569.871094 60.835938 568.910156 63.175781 L 560.707031 63.175781 C 564.882812 57.625 570.488281 53.222656 577.007812 50.554688 Z M 558.132812 67.054688 L 567.496094 67.054688 C 565.789062 72.339844 564.78125 78.25 564.609375 84.503906 L 552.960938 84.503906 C 553.277344 78.15625 555.132812 72.234375 558.132812 67.054688 Z M 571.601562 67.054688 L 589.757812 67.054688 L 589.757812 84.503906 L 568.488281 84.503906 C 568.675781 78.15625 569.78125 72.21875 571.601562 67.054688 Z M 615.84375 67.054688 L 625.289062 67.054688 C 628.28125 72.234375 630.113281 78.164062 630.425781 84.503906 L 618.78125 84.503906 C 618.601562 78.242188 617.570312 72.332031 615.84375 67.054688 Z M 552.960938 88.382812 L 564.609375 88.382812 C 564.78125 94.640625 565.789062 100.546875 567.496094 105.835938 L 558.132812 105.835938 C 555.132812 100.652344 553.277344 94.730469 552.960938 88.382812 Z M 568.488281 88.382812 L 589.757812 88.382812 L 589.757812 105.835938 L 571.601562 105.835938 C 569.78125 100.667969 568.675781 94.730469 568.488281 88.382812 Z M 610.996094 88.382812 C 609.964844 88.4375 609.148438 89.285156 609.148438 90.324219 L 609.148438 127.648438 C 609.148438 128.4375 609.617188 129.140625 610.34375 129.4375 C 611.070312 129.742188 611.902344 129.574219 612.457031 129.019531 L 618.296875 123.171875 L 623.167969 133.792969 C 623.613281 134.761719 624.765625 135.1875 625.742188 134.738281 L 633.226562 131.316406 C 634.195312 130.867188 634.621094 129.71875 634.171875 128.742188 L 629.121094 117.710938 L 638.234375 117.710938 C 639.027344 117.710938 639.75 117.226562 640.035156 116.484375 C 640.332031 115.742188 640.140625 114.902344 639.558594 114.355469 L 612.410156 88.90625 C 612.023438 88.550781 611.519531 88.359375 610.996094 88.382812 Z M 613.023438 94.800781 L 633.324219 113.832031 L 626.355469 113.832031 C 626.054688 113.832031 625.757812 113.902344 625.484375 114.039062 L 625.28125 114.144531 C 624.347656 114.613281 623.949219 115.734375 624.386719 116.683594 L 629.839844 128.589844 L 625.878906 130.40625 L 620.660156 119.023438 C 620.402344 118.445312 619.863281 118.039062 619.242188 117.925781 C 618.613281 117.8125 617.980469 118.015625 617.53125 118.46875 L 613.023438 122.96875 Z M 560.707031 109.714844 L 568.910156 109.714844 C 569.871094 112.054688 570.980469 114.25 572.222656 116.257812 C 573.636719 118.546875 575.257812 120.566406 577.007812 122.332031 C 570.488281 119.667969 564.882812 115.265625 560.707031 109.714844 Z M 573.160156 109.714844 L 589.757812 109.714844 L 589.757812 125.066406 C 584.378906 124.308594 579.386719 120.460938 575.515625 114.21875 C 574.660156 112.835938 573.886719 111.3125 573.160156 109.714844 Z M 573.160156 109.714844 " fill-opacity="1" fill-rule="nonzero"/></g><path fill="#000000" d="M 697.566406 362.722656 L 709.292969 362.722656 L 709.292969 352.082031 L 697.566406 352.082031 Z M 697.566406 362.722656 " fill-opacity="1" fill-rule="nonzero"/><g clip-path="url(#009b8aefdf)"><path fill="#000000" d="M 800.839844 361.734375 C 801.105469 361.285156 802.007812 359.367188 802.34375 358.671875 L 799.988281 357.074219 L 799.988281 357.078125 C 797.429688 355.339844 791.539062 354.710938 787.015625 355.570312 C 786.425781 351.269531 784.050781 347.523438 779.71875 344.15625 L 777.234375 342.492188 L 775.582031 345 C 772.316406 349.980469 771.433594 358.183594 774.929688 363.59375 C 773.386719 364.4375 770.355469 365.582031 766.339844 365.511719 L 689.191406 365.511719 C 687.648438 374.613281 690.226562 386.4375 697.003906 394.554688 C 703.582031 402.421875 713.449219 406.417969 726.351562 406.417969 C 754.285156 406.417969 774.960938 393.433594 784.632812 369.832031 C 788.429688 369.90625 796.632812 369.851562 800.839844 361.734375 Z M 800.839844 361.734375 " fill-opacity="1" fill-rule="nonzero"/></g><path fill="#000000" d="M 711.410156 352.082031 L 723.136719 352.082031 L 723.136719 362.722656 L 711.410156 362.722656 Z M 711.410156 352.082031 " fill-opacity="1" fill-rule="nonzero"/><path fill="#000000" d="M 725.273438 352.082031 L 737 352.082031 L 737 362.722656 L 725.273438 362.722656 Z M 725.273438 352.082031 " fill-opacity="1" fill-rule="nonzero"/><path fill="#000000" d="M 753.007812 352.082031 L 764.734375 352.082031 L 764.734375 362.722656 L 753.007812 362.722656 Z M 753.007812 352.082031 " fill-opacity="1" fill-rule="nonzero"/><path fill="#000000" d="M 711.410156 339.160156 L 723.136719 339.160156 L 723.136719 349.929688 L 711.410156 349.929688 Z M 711.410156 339.160156 " fill-opacity="1" fill-rule="nonzero"/><path fill="#000000" d="M 739.128906 352.101562 L 750.859375 352.101562 L 750.859375 362.742188 L 739.128906 362.742188 Z M 739.128906 352.101562 " fill-opacity="1" fill-rule="nonzero"/><path fill="#000000" d="M 739.128906 339.160156 L 750.859375 339.160156 L 750.859375 349.929688 L 739.128906 349.929688 Z M 739.128906 339.160156 " fill-opacity="1" fill-rule="nonzero"/><path fill="#000000" d="M 739.128906 326.136719 L 750.859375 326.136719 L 750.859375 337.011719 L 739.128906 337.011719 Z M 739.128906 326.136719 " fill-opacity="1" fill-rule="nonzero"/><path fill="#000000" d="M 725.273438 339.160156 L 737 339.160156 L 737 349.929688 L 725.273438 349.929688 Z M 725.273438 339.160156 " fill-opacity="1" fill-rule="nonzero"/><path fill="#000000" d="M 319.414062 56.847656 L 375.429688 56.847656 L 375.429688 58.816406 L 319.414062 58.816406 Z M 319.414062 56.847656 " fill-opacity="1" fill-rule="nonzero"/><path fill="#000000" d="M 319.414062 66.6875 L 375.429688 66.6875 L 375.429688 68.65625 L 319.414062 68.65625 Z M 319.414062 66.6875 " fill-opacity="1" fill-rule="nonzero"/><path fill="#000000" d="M 319.414062 76.527344 L 375.429688 76.527344 L 375.429688 78.496094 L 319.414062 78.496094 Z M 319.414062 76.527344 " fill-opacity="1" fill-rule="nonzero"/><path fill="#000000" d="M 319.414062 106.054688 L 375.429688 106.054688 L 375.429688 108.019531 L 319.414062 108.019531 Z M 319.414062 106.054688 " fill-opacity="1" fill-rule="nonzero"/><g clip-path="url(#fb84424907)"><path fill="#000000" d="M 411.710938 54.1875 L 407.542969 50.015625 L 403.398438 54.1875 L 402.011719 52.800781 L 399.898438 54.886719 L 398.484375 53.492188 L 399.871094 52.101562 L 398.484375 50.707031 L 381.777344 67.433594 L 383.164062 68.824219 L 397.117188 54.886719 L 398.484375 56.277344 L 395.703125 59.058594 L 380.34375 74.460938 L 380.34375 43.089844 L 375.429688 43.089844 C 375.402344 42.6875 375.339844 42.292969 375.238281 41.90625 C 375.136719 41.519531 375 41.140625 374.828125 40.78125 C 374.65625 40.417969 374.449219 40.074219 374.214844 39.75 C 373.976562 39.425781 373.714844 39.128906 373.421875 38.855469 C 373.128906 38.582031 372.8125 38.335938 372.472656 38.121094 C 372.136719 37.910156 371.777344 37.726562 371.40625 37.582031 C 371.035156 37.433594 370.652344 37.324219 370.257812 37.246094 C 369.863281 37.171875 369.46875 37.136719 369.066406 37.136719 C 368.664062 37.136719 368.269531 37.171875 367.875 37.246094 C 367.480469 37.324219 367.097656 37.433594 366.726562 37.582031 C 366.355469 37.726562 366 37.910156 365.660156 38.121094 C 365.320312 38.335938 365.003906 38.582031 364.710938 38.855469 C 364.417969 39.128906 364.15625 39.425781 363.917969 39.75 C 363.683594 40.074219 363.476562 40.417969 363.304688 40.78125 C 363.132812 41.140625 362.996094 41.519531 362.894531 41.90625 C 362.792969 42.292969 362.730469 42.6875 362.703125 43.089844 L 360.667969 43.089844 C 360.640625 42.6875 360.578125 42.292969 360.476562 41.90625 C 360.375 41.519531 360.238281 41.140625 360.066406 40.78125 C 359.894531 40.417969 359.691406 40.074219 359.453125 39.75 C 359.21875 39.425781 358.953125 39.128906 358.660156 38.855469 C 358.367188 38.582031 358.050781 38.335938 357.714844 38.121094 C 357.375 37.910156 357.019531 37.726562 356.644531 37.582031 C 356.273438 37.433594 355.890625 37.324219 355.496094 37.246094 C 355.105469 37.171875 354.707031 37.136719 354.304688 37.136719 C 353.90625 37.136719 353.507812 37.171875 353.113281 37.246094 C 352.722656 37.324219 352.339844 37.433594 351.964844 37.582031 C 351.59375 37.726562 351.238281 37.910156 350.898438 38.121094 C 350.558594 38.335938 350.246094 38.582031 349.953125 38.855469 C 349.660156 39.128906 349.394531 39.425781 349.160156 39.75 C 348.921875 40.074219 348.71875 40.417969 348.546875 40.78125 C 348.375 41.140625 348.238281 41.519531 348.136719 41.90625 C 348.035156 42.292969 347.96875 42.6875 347.941406 43.089844 L 345.929688 43.089844 C 345.902344 42.6875 345.835938 42.292969 345.734375 41.90625 C 345.632812 41.519531 345.496094 41.140625 345.324219 40.78125 C 345.152344 40.417969 344.949219 40.074219 344.714844 39.75 C 344.476562 39.425781 344.210938 39.128906 343.917969 38.855469 C 343.625 38.582031 343.3125 38.335938 342.972656 38.121094 C 342.632812 37.910156 342.277344 37.726562 341.90625 37.582031 C 341.53125 37.433594 341.148438 37.324219 340.757812 37.246094 C 340.363281 37.171875 339.964844 37.136719 339.566406 37.136719 C 339.164062 37.136719 338.769531 37.171875 338.375 37.246094 C 337.980469 37.324219 337.597656 37.433594 337.226562 37.582031 C 336.851562 37.726562 336.496094 37.910156 336.160156 38.121094 C 335.820312 38.335938 335.503906 38.582031 335.210938 38.855469 C 334.917969 39.128906 334.652344 39.425781 334.417969 39.75 C 334.179688 40.074219 333.976562 40.417969 333.804688 40.78125 C 333.632812 41.140625 333.496094 41.519531 333.394531 41.90625 C 333.292969 42.292969 333.230469 42.6875 333.203125 43.089844 L 331.1875 43.089844 C 331.160156 42.6875 331.097656 42.292969 330.996094 41.90625 C 330.894531 41.519531 330.757812 41.140625 330.585938 40.78125 C 330.414062 40.417969 330.207031 40.074219 329.972656 39.75 C 329.734375 39.425781 329.472656 39.128906 329.179688 38.855469 C 328.886719 38.582031 328.570312 38.335938 328.230469 38.121094 C 327.894531 37.910156 327.539062 37.726562 327.164062 37.582031 C 326.792969 37.433594 326.410156 37.324219 326.015625 37.246094 C 325.621094 37.171875 325.226562 37.136719 324.824219 37.136719 C 324.425781 37.136719 324.027344 37.171875 323.632812 37.246094 C 323.238281 37.324219 322.855469 37.433594 322.484375 37.582031 C 322.113281 37.726562 321.757812 37.910156 321.417969 38.121094 C 321.078125 38.335938 320.761719 38.582031 320.472656 38.855469 C 320.179688 39.128906 319.914062 39.425781 319.675781 39.75 C 319.441406 40.074219 319.238281 40.417969 319.0625 40.78125 C 318.890625 41.140625 318.753906 41.519531 318.65625 41.90625 C 318.554688 42.292969 318.488281 42.6875 318.460938 43.089844 L 314.53125 43.089844 L 314.53125 116.898438 L 316.496094 116.898438 L 316.496094 120.835938 L 318.460938 120.835938 L 318.460938 124.769531 L 376.441406 124.769531 L 376.441406 120.835938 L 378.40625 120.835938 L 378.40625 116.898438 L 380.371094 116.898438 L 380.371094 88.359375 L 402.671875 66.019531 L 408.921875 59.757812 L 407.535156 58.332031 Z M 369.003906 39.152344 C 369.542969 39.152344 370.070312 39.25 370.574219 39.445312 C 371.082031 39.640625 371.535156 39.921875 371.9375 40.285156 C 372.34375 40.648438 372.667969 41.070312 372.914062 41.554688 C 373.164062 42.035156 373.316406 42.546875 373.375 43.089844 L 364.628906 43.089844 C 364.6875 42.546875 364.84375 42.035156 365.089844 41.554688 C 365.335938 41.070312 365.664062 40.648438 366.066406 40.285156 C 366.46875 39.921875 366.925781 39.640625 367.429688 39.445312 C 367.9375 39.25 368.460938 39.152344 369.003906 39.152344 Z M 354.261719 39.152344 C 354.804688 39.152344 355.328125 39.25 355.835938 39.445312 C 356.339844 39.640625 356.796875 39.921875 357.199219 40.285156 C 357.601562 40.648438 357.925781 41.070312 358.175781 41.554688 C 358.421875 42.035156 358.574219 42.546875 358.636719 43.089844 L 349.890625 43.089844 C 349.949219 42.546875 350.101562 42.035156 350.347656 41.554688 C 350.597656 41.070312 350.921875 40.648438 351.324219 40.285156 C 351.726562 39.921875 352.183594 39.640625 352.6875 39.445312 C 353.195312 39.25 353.71875 39.152344 354.261719 39.152344 Z M 339.519531 39.152344 C 340.0625 39.152344 340.585938 39.25 341.09375 39.445312 C 341.601562 39.640625 342.054688 39.921875 342.457031 40.285156 C 342.859375 40.648438 343.1875 41.070312 343.433594 41.554688 C 343.683594 42.035156 343.835938 42.546875 343.894531 43.089844 L 335.148438 43.089844 C 335.207031 42.546875 335.359375 42.035156 335.609375 41.554688 C 335.855469 41.070312 336.179688 40.648438 336.585938 40.285156 C 336.988281 39.921875 337.441406 39.640625 337.949219 39.445312 C 338.453125 39.25 338.980469 39.152344 339.519531 39.152344 Z M 324.78125 39.152344 C 325.324219 39.152344 325.847656 39.25 326.351562 39.445312 C 326.859375 39.640625 327.3125 39.921875 327.71875 40.285156 C 328.121094 40.648438 328.445312 41.070312 328.695312 41.554688 C 328.941406 42.035156 329.09375 42.546875 329.152344 43.089844 L 320.445312 43.089844 C 320.503906 42.550781 320.65625 42.042969 320.902344 41.5625 C 321.148438 41.082031 321.46875 40.660156 321.867188 40.296875 C 322.265625 39.933594 322.71875 39.65625 323.21875 39.457031 C 323.722656 39.261719 324.242188 39.15625 324.78125 39.152344 Z M 374.40625 122.804688 L 320.359375 122.804688 L 320.359375 120.835938 L 374.40625 120.835938 Z M 376.371094 118.867188 L 318.394531 118.867188 L 318.394531 116.898438 L 376.371094 116.898438 Z M 378.339844 114.929688 L 316.425781 114.929688 L 316.425781 45.054688 L 328.988281 45.054688 C 328.851562 45.449219 328.664062 45.820312 328.421875 46.160156 C 328.183594 46.503906 327.902344 46.804688 327.574219 47.066406 C 327.25 47.328125 326.894531 47.535156 326.511719 47.699219 C 326.125 47.859375 325.726562 47.960938 325.3125 48.007812 L 325.527344 49.976562 C 326.183594 49.902344 326.8125 49.730469 327.417969 49.460938 C 328.019531 49.191406 328.570312 48.835938 329.0625 48.394531 C 329.554688 47.953125 329.96875 47.449219 330.304688 46.878906 C 330.640625 46.308594 330.882812 45.703125 331.03125 45.054688 L 343.726562 45.054688 C 343.589844 45.449219 343.402344 45.820312 343.164062 46.160156 C 342.921875 46.503906 342.640625 46.804688 342.316406 47.066406 C 341.992188 47.328125 341.636719 47.535156 341.25 47.699219 C 340.867188 47.859375 340.464844 47.960938 340.050781 48.007812 L 340.269531 49.976562 C 340.925781 49.902344 341.554688 49.730469 342.15625 49.460938 C 342.761719 49.191406 343.308594 48.835938 343.800781 48.394531 C 344.296875 47.953125 344.710938 47.449219 345.046875 46.878906 C 345.382812 46.308594 345.625 45.703125 345.769531 45.054688 L 358.46875 45.054688 C 358.332031 45.449219 358.144531 45.820312 357.90625 46.160156 C 357.664062 46.503906 357.382812 46.804688 357.054688 47.066406 C 356.730469 47.328125 356.375 47.535156 355.992188 47.699219 C 355.605469 47.859375 355.207031 47.960938 354.792969 48.007812 L 355.007812 49.976562 C 355.664062 49.902344 356.296875 49.730469 356.898438 49.460938 C 357.5 49.191406 358.050781 48.835938 358.542969 48.394531 C 359.035156 47.953125 359.449219 47.449219 359.785156 46.878906 C 360.121094 46.308594 360.363281 45.703125 360.511719 45.054688 L 373.207031 45.054688 C 373.074219 45.449219 372.886719 45.820312 372.644531 46.160156 C 372.40625 46.503906 372.121094 46.804688 371.796875 47.066406 C 371.472656 47.328125 371.117188 47.535156 370.730469 47.699219 C 370.347656 47.859375 369.949219 47.960938 369.535156 48.007812 L 369.75 49.976562 C 370.40625 49.902344 371.035156 49.730469 371.640625 49.460938 C 372.242188 49.191406 372.789062 48.835938 373.285156 48.394531 C 373.777344 47.953125 374.191406 47.449219 374.527344 46.878906 C 374.863281 46.308594 375.105469 45.703125 375.253906 45.054688 L 378.378906 45.054688 L 378.378906 76.429688 L 368.453125 86.371094 L 319.414062 86.371094 L 319.414062 88.339844 L 366.488281 88.339844 L 363.105469 91.792969 L 360.039062 94.746094 L 359.882812 96.164062 L 319.414062 96.164062 L 319.414062 98.128906 L 359.707031 98.128906 L 359.390625 101.003906 L 357.503906 102.902344 L 358.890625 104.292969 L 360.726562 102.449219 L 367.039062 101.753906 L 369.984375 98.683594 L 378.347656 90.308594 Z M 364.453125 93.160156 L 365.847656 91.792969 L 369.984375 95.9375 L 368.601562 97.324219 Z M 367.234375 98.683594 L 366.054688 99.871094 L 361.367188 100.394531 L 361.917969 95.730469 L 363.105469 94.546875 Z M 367.234375 90.335938 L 368.628906 88.9375 L 372.796875 93.113281 L 371.398438 94.546875 Z M 374.179688 91.792969 L 369.984375 87.589844 L 397.117188 60.449219 L 399.203125 62.535156 L 401.285156 64.621094 Z M 402.679688 63.253906 L 400.597656 61.167969 L 398.484375 59.058594 L 401.960938 55.578125 L 406.128906 59.75 Z M 404.761719 55.597656 L 407.542969 52.8125 L 408.929688 54.199219 L 406.148438 56.972656 Z M 404.761719 55.597656 " fill-opacity="1" fill-rule="nonzero"/></g><path fill="#000000" d="M 745.8125 186.351562 C 751.894531 186.351562 754.960938 193.742188 750.660156 198.042969 C 746.355469 202.347656 738.96875 199.28125 738.96875 193.199219 C 738.96875 189.425781 742.03125 186.351562 745.8125 186.351562 Z M 748.058594 190.960938 C 746.0625 188.972656 742.652344 190.382812 742.652344 193.199219 C 742.652344 196.015625 746.0625 197.429688 748.058594 195.445312 C 749.296875 194.207031 749.296875 192.199219 748.058594 190.960938 Z M 695.183594 186.824219 L 698.171875 186.824219 C 699.285156 178.472656 702.558594 170.652344 707.625 164.027344 L 705.503906 161.90625 C 701.863281 158.269531 703.792969 153.109375 707.671875 151.464844 C 709.804688 150.554688 712.375 150.738281 714.515625 152.886719 L 716.636719 155.007812 C 723.269531 149.9375 731.078125 146.667969 739.4375 145.554688 L 739.4375 142.570312 C 739.4375 137.464844 744.429688 135.179688 748.347656 136.746094 C 750.503906 137.605469 752.195312 139.554688 752.195312 142.570312 L 752.195312 145.558594 C 760.554688 146.671875 768.359375 149.9375 774.996094 155.011719 L 777.109375 152.890625 C 780.75 149.25 785.902344 151.179688 787.554688 155.058594 C 788.464844 157.191406 788.277344 159.765625 786.128906 161.90625 L 784.007812 164.027344 C 789.074219 170.648438 792.351562 178.46875 793.453125 186.824219 L 796.449219 186.824219 C 801.554688 186.824219 803.839844 191.816406 802.273438 195.738281 C 801.414062 197.890625 799.464844 199.582031 796.449219 199.582031 L 793.453125 199.582031 C 792.347656 207.9375 789.074219 215.757812 784.007812 222.382812 L 786.128906 224.496094 C 789.769531 228.136719 787.839844 233.289062 783.960938 234.941406 C 781.828125 235.851562 779.257812 235.664062 777.109375 233.515625 L 774.996094 231.394531 C 768.371094 236.460938 760.550781 239.738281 752.195312 240.839844 L 752.195312 243.835938 C 752.195312 248.941406 747.203125 251.226562 743.285156 249.660156 C 741.121094 248.800781 739.4375 246.855469 739.4375 243.835938 L 739.4375 240.839844 C 731.082031 239.734375 723.265625 236.460938 716.636719 231.394531 L 714.515625 233.515625 C 710.878906 237.15625 705.722656 235.226562 704.074219 231.347656 C 703.160156 229.214844 703.351562 226.644531 705.5 224.496094 L 707.613281 222.382812 C 702.554688 215.757812 699.28125 207.9375 698.175781 199.582031 L 695.183594 199.582031 C 690.078125 199.582031 687.792969 194.589844 689.359375 190.671875 C 690.21875 188.515625 692.164062 186.824219 695.183594 186.824219 Z M 701.875 186.824219 L 708.179688 186.824219 C 709.140625 181.144531 711.394531 175.75 714.695312 171.101562 L 710.238281 166.648438 C 705.824219 172.550781 702.933594 179.457031 701.875 186.824219 Z M 711.914062 186.824219 L 730.417969 186.824219 L 717.335938 173.742188 C 714.636719 177.679688 712.796875 182.097656 711.914062 186.824219 Z M 719.257812 157.625 L 723.714844 162.082031 C 728.378906 158.773438 733.746094 156.527344 739.4375 155.566406 L 739.4375 149.261719 C 732.085938 150.316406 725.148438 153.214844 719.257812 157.625 Z M 726.359375 164.722656 L 739.441406 177.804688 L 739.441406 159.300781 C 734.71875 160.183594 730.285156 162.03125 726.359375 164.722656 Z M 752.195312 149.261719 L 752.195312 155.566406 C 757.886719 156.523438 763.253906 158.769531 767.917969 162.078125 L 772.371094 157.625 C 766.476562 153.214844 759.546875 150.316406 752.195312 149.261719 Z M 752.195312 159.300781 L 752.195312 177.804688 L 765.277344 164.722656 C 761.347656 162.03125 756.914062 160.183594 752.195312 159.300781 Z M 781.394531 166.648438 L 776.9375 171.101562 C 780.238281 175.75 782.492188 181.140625 783.453125 186.824219 L 789.757812 186.824219 C 788.703125 179.464844 785.808594 172.542969 781.394531 166.648438 Z M 774.296875 173.742188 L 761.214844 186.824219 L 779.71875 186.824219 C 778.835938 182.097656 776.996094 177.679688 774.296875 173.742188 Z M 789.757812 199.578125 L 783.453125 199.578125 C 783 202.25 782.128906 205.382812 781.082031 207.800781 L 781.085938 207.800781 C 779.980469 210.472656 778.585938 212.980469 776.929688 215.300781 L 781.394531 219.757812 C 785.808594 213.859375 788.703125 206.941406 789.757812 199.578125 Z M 779.71875 199.578125 L 761.214844 199.578125 L 774.296875 212.660156 C 775.640625 210.703125 776.78125 208.609375 777.695312 206.390625 C 778.59375 204.230469 779.277344 201.949219 779.71875 199.578125 Z M 772.371094 228.78125 L 767.917969 224.320312 C 765.601562 225.964844 763.085938 227.363281 760.417969 228.46875 L 760.417969 228.476562 C 757.800781 229.550781 755.050781 230.359375 752.195312 230.839844 L 752.195312 237.144531 C 759.554688 236.085938 766.46875 233.195312 772.371094 228.78125 Z M 765.277344 221.683594 L 752.195312 208.601562 L 752.195312 227.105469 C 754.566406 226.664062 756.84375 225.980469 759.007812 225.082031 C 761.382812 224.0625 763.144531 223.144531 765.277344 221.683594 Z M 739.4375 237.144531 L 739.4375 230.839844 C 733.757812 229.878906 728.378906 227.632812 723.714844 224.320312 L 719.253906 228.78125 C 725.15625 233.195312 732.070312 236.085938 739.4375 237.144531 Z M 739.4375 227.105469 L 739.4375 208.601562 L 726.355469 221.683594 C 730.292969 224.378906 734.726562 226.222656 739.4375 227.105469 Z M 710.238281 219.757812 L 714.695312 215.300781 C 711.386719 210.636719 709.140625 205.273438 708.179688 199.578125 L 701.875 199.578125 C 702.933594 206.941406 705.824219 213.867188 710.238281 219.757812 Z M 717.335938 212.660156 L 730.417969 199.578125 L 711.914062 199.578125 C 712.796875 204.300781 714.644531 208.734375 717.335938 212.660156 Z M 733.355469 190.5 L 695.183594 190.5 C 692.792969 190.5 692.136719 192.816406 692.765625 194.378906 C 693.105469 195.238281 693.90625 195.902344 695.183594 195.902344 L 733.355469 195.902344 L 733.355469 195.910156 C 734.105469 195.910156 734.808594 196.371094 735.082031 197.121094 L 735.398438 197.898438 C 735.796875 198.597656 735.691406 199.503906 735.09375 200.101562 L 708.101562 227.097656 C 705.570312 229.621094 709.382812 233.453125 711.917969 230.914062 L 738.914062 203.917969 C 739.441406 203.390625 740.273438 203.222656 740.988281 203.554688 L 741.78125 203.898438 C 742.550781 204.113281 743.113281 204.820312 743.113281 205.664062 L 743.113281 243.835938 C 743.113281 246.230469 745.429688 246.882812 746.992188 246.253906 C 747.847656 245.914062 748.515625 245.117188 748.515625 243.835938 L 748.515625 205.664062 L 748.523438 205.664062 C 748.523438 204.914062 748.980469 204.210938 749.730469 203.9375 L 750.507812 203.621094 C 751.210938 203.222656 752.117188 203.328125 752.714844 203.917969 L 779.710938 230.917969 C 782.234375 233.441406 786.066406 229.636719 783.527344 227.101562 L 756.53125 200.105469 C 756.003906 199.578125 755.835938 198.746094 756.167969 198.023438 L 756.503906 197.234375 C 756.726562 196.46875 757.433594 195.90625 758.277344 195.90625 L 796.449219 195.90625 C 798.839844 195.90625 799.496094 193.589844 798.867188 192.019531 C 798.527344 191.171875 797.71875 190.503906 796.449219 190.503906 L 758.277344 190.503906 L 758.277344 190.496094 C 757.523438 190.496094 756.824219 190.039062 756.550781 189.289062 L 756.234375 188.511719 C 755.835938 187.808594 755.941406 186.902344 756.53125 186.304688 L 783.53125 159.308594 C 786.054688 156.785156 782.25 152.953125 779.714844 155.492188 L 752.714844 182.480469 L 752.710938 182.480469 C 752.183594 183.007812 751.359375 183.175781 750.636719 182.839844 L 749.84375 182.507812 C 749.078125 182.292969 748.519531 181.582031 748.519531 180.742188 L 748.519531 142.570312 C 748.519531 140.179688 746.203125 139.523438 744.632812 140.152344 C 743.785156 140.492188 743.117188 141.292969 743.117188 142.570312 L 743.117188 180.746094 L 743.109375 180.746094 C 743.109375 181.496094 742.652344 182.195312 741.898438 182.46875 L 741.121094 182.785156 C 740.421875 183.183594 739.515625 183.078125 738.917969 182.480469 L 711.921875 155.488281 C 709.398438 152.960938 705.566406 156.769531 708.105469 159.304688 L 735.09375 186.304688 L 735.09375 186.3125 C 735.621094 186.835938 735.789062 187.660156 735.457031 188.382812 L 735.121094 189.167969 C 734.90625 189.941406 734.199219 190.5 733.355469 190.5 Z M 733.355469 190.5 " fill-opacity="1" fill-rule="nonzero"/><g clip-path="url(#e6647d7146)"><path fill="#000000" d="M 382.234375 401.214844 L 305.066406 401.214844 L 305.066406 429.117188 L 382.238281 429.117188 L 382.238281 401.214844 Z M 313.257812 442.515625 C 312.378906 442.515625 311.667969 441.800781 311.667969 440.917969 C 311.667969 440.035156 312.378906 439.320312 313.257812 439.320312 L 336.042969 439.320312 C 336.921875 439.320312 337.636719 440.035156 337.636719 440.917969 C 337.636719 441.800781 336.921875 442.515625 336.042969 442.515625 Z M 313.257812 452.1875 C 312.378906 452.1875 311.667969 451.472656 311.667969 450.597656 C 311.667969 449.714844 312.378906 449 313.257812 449 L 336.042969 449 C 336.921875 449 337.636719 449.714844 337.636719 450.597656 C 337.636719 451.472656 336.921875 452.1875 336.042969 452.1875 Z M 313.257812 461.867188 C 312.378906 461.867188 311.667969 461.152344 311.667969 460.269531 C 311.667969 459.386719 312.378906 458.671875 313.257812 458.671875 L 328.210938 458.671875 C 329.089844 458.671875 329.796875 459.386719 329.796875 460.269531 C 329.796875 461.152344 329.089844 461.867188 328.210938 461.867188 Z M 313.257812 471.539062 C 312.378906 471.539062 311.667969 470.824219 311.667969 469.941406 C 311.667969 469.066406 312.378906 468.351562 313.257812 468.351562 L 317.789062 468.351562 C 318.667969 468.351562 319.378906 469.066406 319.378906 469.941406 C 319.378906 470.824219 318.667969 471.539062 317.789062 471.539062 Z M 354.59375 423.117188 C 353.902344 423.652344 352.902344 423.515625 352.371094 422.824219 C 351.835938 422.121094 351.972656 421.121094 352.667969 420.59375 L 359.734375 415.164062 L 352.667969 409.730469 C 351.96875 409.195312 351.835938 408.203125 352.371094 407.5 C 352.90625 406.800781 353.902344 406.671875 354.59375 407.203125 L 363.28125 413.882812 C 364.117188 414.507812 364.152344 415.769531 363.304688 416.425781 Z M 346.675781 406.738281 C 347.109375 405.976562 348.074219 405.710938 348.832031 406.148438 C 349.589844 406.585938 349.851562 407.558594 349.417969 408.316406 L 340.625 423.59375 C 340.191406 424.355469 339.222656 424.621094 338.464844 424.179688 C 337.714844 423.746094 337.449219 422.773438 337.886719 422.011719 Z M 334.628906 420.597656 C 335.332031 421.121094 335.457031 422.125 334.929688 422.824219 C 334.398438 423.519531 333.398438 423.65625 332.707031 423.121094 L 323.996094 416.433594 C 323.140625 415.777344 323.1875 414.511719 324.019531 413.886719 L 332.707031 407.207031 C 333.398438 406.679688 334.398438 406.808594 334.929688 407.507812 C 335.453125 408.207031 335.328125 409.203125 334.628906 409.738281 L 327.566406 415.167969 Z M 348.59375 458.753906 C 350.777344 458.957031 352.875 459.457031 354.847656 460.207031 C 357.386719 452.886719 364.300781 447.855469 372.15625 447.855469 C 379.222656 447.855469 384.214844 450.597656 387.347656 456.164062 L 392.011719 451.488281 C 389.847656 448.546875 387.046875 446.117188 383.824219 444.375 C 370.242188 437.054688 353.25 443.960938 348.59375 458.753906 Z M 323.730469 490.992188 C 320.515625 482.121094 322.792969 472.273438 329.335938 465.707031 C 333.460938 461.570312 339.078125 458.925781 345.308594 458.664062 C 349.734375 442.824219 366.894531 434.167969 382.234375 440.144531 L 382.234375 432.308594 L 305.066406 432.308594 L 305.066406 490.996094 L 323.730469 490.996094 Z M 398.652344 498.1875 L 346.796875 498.1875 C 346.714844 498.207031 346.625 498.226562 346.535156 498.242188 L 346.535156 503.683594 L 398.652344 503.683594 Z M 343.355469 503.472656 L 343.355469 497.957031 C 336.195312 496.558594 330.890625 490.230469 330.890625 482.757812 C 330.890625 474.203125 337.800781 467.265625 346.328125 467.265625 C 353.085938 467.265625 358.988281 471.664062 361.03125 477.996094 L 366.65625 477.996094 C 365.640625 473.628906 363.269531 469.785156 360.003906 466.949219 C 351.808594 459.816406 339.390625 460.125 331.578125 467.96875 C 323.429688 476.132812 323.429688 489.382812 331.578125 497.550781 C 334.691406 500.679688 338.785156 502.820312 343.355469 503.472656 Z M 401.828125 498.171875 L 401.828125 503.625 C 412.648438 502.8125 421.105469 493.742188 421.105469 482.757812 C 421.105469 470.269531 410.292969 460.613281 397.960938 461.957031 C 397.171875 462.039062 396.429688 461.519531 396.25 460.71875 C 395.738281 458.453125 394.898438 456.246094 393.78125 454.230469 L 388.785156 459.238281 C 390.09375 462.597656 390.835938 466.332031 391.511719 469.988281 C 397.640625 465.769531 405.890625 466.519531 411.164062 471.808594 C 417.191406 477.855469 417.191406 487.664062 411.164062 493.710938 C 408.714844 496.167969 405.460938 497.792969 401.828125 498.171875 Z M 345.03125 494.992188 L 400.234375 494.992188 C 400.394531 494.992188 400.535156 495.015625 400.679688 495.054688 C 403.882812 494.941406 406.789062 493.59375 408.910156 491.460938 C 413.699219 486.65625 413.699219 478.867188 408.910156 474.0625 C 404.121094 469.257812 396.359375 469.25 391.5625 474.0625 C 390.691406 474.9375 389.085938 474.550781 388.867188 473.121094 C 388.792969 472.730469 388.667969 472.074219 388.542969 471.40625 C 387.4375 465.410156 386.140625 457.191406 380.839844 453.417969 C 378.742188 451.9375 375.941406 451.046875 372.15625 451.046875 C 365.527344 451.046875 359.75 455.332031 357.753906 461.542969 C 364.359375 465.128906 369.070312 471.714844 370.136719 479.378906 C 370.261719 480.328125 369.511719 481.1875 368.566406 481.1875 L 368.566406 481.195312 L 359.824219 481.195312 C 359.042969 481.195312 358.398438 480.628906 358.261719 479.882812 C 357.617188 477.167969 356.058594 474.792969 353.945312 473.113281 C 349.078125 469.234375 342.054688 469.648438 337.65625 474.0625 C 332.867188 478.871094 332.867188 486.65625 337.65625 491.460938 C 339.59375 493.394531 342.164062 494.691406 345.03125 494.992188 Z M 345.03125 494.992188 " fill-opacity="1" fill-rule="nonzero"/></g><g clip-path="url(#cc0164a8e8)"><path fill="#000000" d="M 529.554688 446.425781 L 529.554688 478.914062 L 545.871094 478.914062 L 545.871094 454.550781 L 554.027344 454.550781 L 554.027344 478.914062 L 562.183594 478.914062 L 562.183594 446.425781 Z M 570.34375 446.425781 L 570.34375 487.039062 L 586.660156 487.039062 L 586.660156 478.914062 L 602.972656 478.914062 L 602.972656 446.425781 Z M 594.816406 454.550781 L 594.816406 470.792969 L 586.660156 470.792969 L 586.660156 454.550781 Z M 611.128906 446.425781 L 611.128906 478.914062 L 627.445312 478.914062 L 627.445312 454.550781 L 635.601562 454.550781 L 635.601562 478.914062 L 643.761719 478.914062 L 643.761719 454.550781 L 651.917969 454.550781 L 651.917969 478.914062 L 660.078125 478.914062 L 660.078125 446.425781 Z M 521.398438 438.304688 L 668.234375 438.304688 L 668.234375 487.039062 L 594.816406 487.039062 L 594.816406 495.160156 L 562.183594 495.160156 L 562.183594 487.039062 L 521.398438 487.039062 Z M 521.398438 438.304688 " fill-opacity="1" fill-rule="nonzero"/></g></svg>